<svg xmlns="http://www.w3.org/2000/svg" xmlns:xlink="http://www.w3.org/1999/xlink" width="3000" zoomAndPan="magnify" viewBox="0 0 2250 2250.000011" height="3000" preserveAspectRatio="xMidYMid meet" version="1.0"><defs><clipPath id="c38e3ed7c0"><path d="M 0.5 0 L 2249.5 0 L 2249.5 2249 L 0.5 2249 Z M 0.5 0 " clip-rule="nonzero"/></clipPath><clipPath id="9d011a2e73"><path d="M 1188 1747.875 L 1542 1747.875 L 1542 2216 L 1188 2216 Z M 1188 1747.875 " clip-rule="nonzero"/></clipPath></defs><g clip-path="url(#c38e3ed7c0)"><path fill="#ffffff" d="M 0.5 0 L 2249.5 0 L 2249.5 2249 L 0.5 2249 Z M 0.5 0 " fill-opacity="1" fill-rule="nonzero"/><path fill="#ffffff" d="M 0.5 0 L 2249.5 0 L 2249.5 2249 L 0.5 2249 Z M 0.5 0 " fill-opacity="1" fill-rule="nonzero"/></g><path fill="#8b5cf6" d="M 492.0625 19.726562 L 176.417969 19.726562 C 130.386719 19.726562 90.933594 59.183594 90.933594 105.214844 L 90.933594 2153.617188 C 90.933594 2199.648438 130.386719 2239.101562 176.417969 2239.101562 L 492.0625 2239.101562 C 538.09375 2239.101562 577.550781 2199.648438 577.550781 2153.617188 L 577.550781 108.503906 C 577.550781 59.183594 538.09375 19.726562 492.0625 19.726562 Z M 518.367188 364.964844 L 150.117188 364.964844 L 150.117188 309.070312 L 518.367188 309.070312 Z M 518.367188 364.964844 " fill-opacity="1" fill-rule="nonzero"/><path fill="#8b5cf6" d="M 1031.289062 19.726562 L 715.644531 19.726562 C 669.613281 19.726562 630.15625 59.183594 630.15625 105.214844 L 630.15625 2153.617188 C 630.15625 2199.648438 669.613281 2239.101562 715.644531 2239.101562 L 1031.289062 2239.101562 C 1077.320312 2239.101562 1116.777344 2199.648438 1116.777344 2153.617188 L 1116.777344 108.503906 C 1116.777344 59.183594 1077.320312 19.726562 1031.289062 19.726562 Z M 1057.59375 364.964844 L 689.339844 364.964844 L 689.339844 309.070312 L 1057.59375 309.070312 Z M 1057.59375 364.964844 " fill-opacity="1" fill-rule="nonzero"/><path fill="#8b5cf6" d="M 2149.195312 2051.6875 L 1623.121094 72.335938 C 1609.96875 26.304688 1563.9375 0 1517.90625 9.863281 L 1212.128906 92.0625 C 1166.097656 105.214844 1139.792969 151.246094 1149.65625 197.277344 L 1675.730469 2176.632812 C 1688.882812 2222.664062 1734.914062 2248.964844 1780.945312 2239.101562 L 2086.726562 2156.902344 C 2132.757812 2143.75 2159.058594 2097.71875 2149.195312 2051.6875 Z M 1274.597656 430.722656 L 1261.445312 378.117188 L 1616.546875 282.765625 L 1629.699219 335.371094 Z M 1274.597656 430.722656 " fill-opacity="1" fill-rule="nonzero"/><g clip-path="url(#9d011a2e73)"><path fill="#8b5cf6" d="M 1541.753906 2168.558594 C 1542.347656 2176.65625 1535.964844 2184.117188 1526.339844 2187.855469 C 1530.105469 2197.464844 1528.941406 2207.21875 1522.582031 2212.261719 C 1514.046875 2219.03125 1499.398438 2214.777344 1489.867188 2202.765625 C 1489.824219 2202.710938 1489.78125 2202.660156 1489.738281 2202.601562 C 1479.429688 2189.472656 1466.222656 2178.902344 1450.929688 2172.191406 L 1365.132812 2134.554688 L 1279.335938 2172.191406 C 1264.042969 2178.894531 1250.84375 2189.46875 1240.527344 2202.601562 C 1240.484375 2202.660156 1240.445312 2202.710938 1240.402344 2202.765625 C 1230.875 2214.777344 1216.226562 2219.03125 1207.691406 2212.261719 C 1201.332031 2207.21875 1200.167969 2197.464844 1203.933594 2187.855469 C 1194.308594 2184.117188 1187.925781 2176.65625 1188.519531 2168.558594 C 1189.320312 2157.691406 1202.371094 2149.796875 1217.667969 2150.914062 C 1217.738281 2150.921875 1217.804688 2150.921875 1217.875 2150.929688 C 1234.523438 2152.234375 1251.242188 2149.679688 1266.53125 2142.972656 L 1325.433594 2117.132812 L 1266.53125 2091.289062 C 1251.242188 2084.585938 1234.523438 2082.027344 1217.875 2083.332031 C 1217.804688 2083.339844 1217.738281 2083.339844 1217.667969 2083.347656 C 1202.371094 2084.472656 1189.320312 2076.570312 1188.519531 2065.703125 C 1187.925781 2057.605469 1194.308594 2050.144531 1203.933594 2046.40625 C 1200.167969 2036.796875 1201.332031 2027.042969 1207.691406 2022 C 1216.226562 2015.230469 1230.875 2019.484375 1240.40625 2031.496094 C 1240.449219 2031.550781 1240.492188 2031.601562 1240.535156 2031.660156 C 1250.84375 2044.789062 1264.050781 2055.359375 1279.34375 2062.070312 L 1365.132812 2099.710938 L 1450.929688 2062.078125 C 1466.222656 2055.371094 1479.421875 2044.800781 1489.738281 2031.664062 C 1489.78125 2031.609375 1489.824219 2031.558594 1489.867188 2031.503906 C 1499.398438 2019.484375 1514.054688 2015.230469 1522.582031 2022.007812 C 1528.941406 2027.050781 1530.105469 2036.800781 1526.339844 2046.414062 C 1535.964844 2050.152344 1542.347656 2057.613281 1541.753906 2065.710938 C 1540.953125 2076.578125 1527.902344 2084.472656 1512.605469 2083.355469 C 1512.535156 2083.347656 1512.46875 2083.347656 1512.398438 2083.339844 C 1495.75 2082.035156 1479.03125 2084.589844 1463.742188 2091.296875 L 1404.839844 2117.136719 L 1463.742188 2142.980469 C 1479.03125 2149.683594 1495.75 2152.242188 1512.398438 2150.933594 C 1512.46875 2150.929688 1512.535156 2150.929688 1512.605469 2150.921875 C 1527.902344 2149.789062 1540.953125 2157.691406 1541.753906 2168.558594 Z M 1257.65625 1954.347656 C 1257.628906 1954.882812 1257.496094 1955.421875 1257.273438 1955.910156 C 1250.1875 1972.125 1251.785156 1981.09375 1258.46875 1988.527344 C 1267.585938 1998.636719 1294.011719 1999.273438 1297.617188 1999.253906 C 1297.742188 1999.253906 1298.03125 1999.246094 1298.4375 1999.273438 C 1304.519531 1999.570312 1310.128906 2001.859375 1312.3125 2006.808594 C 1313.527344 2009.582031 1312.304688 2014.246094 1311.902344 2019.003906 C 1310.730469 2032.84375 1306.921875 2035.199219 1309.910156 2039.976562 C 1311.089844 2041.867188 1317.839844 2048.269531 1332.925781 2051.710938 C 1340.332031 2053.394531 1351.804688 2055.289062 1364.414062 2056.179688 C 1364.449219 2056.179688 1364.476562 2056.179688 1364.511719 2056.179688 L 1364.511719 2056.199219 C 1364.617188 2056.199219 1364.714844 2056.191406 1364.816406 2056.183594 C 1364.914062 2056.183594 1365.019531 2056.199219 1365.117188 2056.199219 L 1365.117188 2056.179688 C 1365.15625 2056.179688 1365.183594 2056.179688 1365.21875 2056.179688 C 1377.824219 2055.289062 1389.300781 2053.402344 1396.703125 2051.710938 C 1411.792969 2048.269531 1418.539062 2041.863281 1419.71875 2039.976562 C 1422.714844 2035.199219 1418.898438 2032.839844 1417.726562 2019.003906 C 1417.324219 2014.246094 1416.09375 2009.578125 1417.316406 2006.808594 C 1419.5 2001.859375 1425.105469 1999.570312 1431.195312 1999.273438 C 1431.597656 1999.253906 1431.886719 1999.253906 1432.015625 1999.253906 C 1435.617188 1999.273438 1462.046875 1998.632812 1471.160156 1988.527344 C 1477.847656 1981.101562 1479.441406 1972.125 1472.355469 1955.910156 C 1472.144531 1955.421875 1472.007812 1954.882812 1471.972656 1954.347656 C 1470.25 1921.476562 1489.667969 1916.359375 1495.09375 1886.125 C 1503.21875 1840.851562 1471.132812 1794.371094 1468.398438 1791.070312 C 1435.160156 1750.882812 1384.996094 1747.859375 1368.898438 1747.945312 C 1367.542969 1747.953125 1366.1875 1747.957031 1364.828125 1747.957031 C 1363.472656 1747.957031 1362.117188 1747.953125 1360.757812 1747.945312 C 1344.664062 1747.859375 1294.5 1750.882812 1261.238281 1791.070312 C 1258.503906 1794.371094 1226.417969 1840.851562 1234.542969 1886.125 C 1239.96875 1916.367188 1259.378906 1921.476562 1257.65625 1954.347656 Z M 1382.855469 1930.335938 L 1382.945312 1929.148438 C 1383.90625 1916.359375 1395.050781 1906.769531 1407.847656 1907.730469 L 1422.222656 1908.8125 C 1439.609375 1910.121094 1452.84375 1924.632812 1452.84375 1941.796875 C 1452.84375 1942.632812 1452.816406 1943.472656 1452.753906 1944.3125 C 1451.792969 1957.03125 1440.707031 1966.566406 1427.988281 1965.609375 L 1412.171875 1964.421875 C 1394.667969 1963.109375 1381.539062 1947.847656 1382.855469 1930.335938 Z M 1350.738281 1985.828125 C 1352.398438 1981.925781 1354.632812 1978.613281 1357.070312 1976.132812 C 1357.09375 1976.109375 1357.121094 1976.074219 1357.148438 1976.054688 C 1359.253906 1973.921875 1362.03125 1972.832031 1364.828125 1972.761719 C 1367.621094 1972.832031 1370.398438 1973.921875 1372.511719 1976.054688 C 1372.539062 1976.074219 1372.566406 1976.109375 1372.589844 1976.132812 C 1375.027344 1978.613281 1377.257812 1981.925781 1378.917969 1985.828125 C 1383.265625 1996.046875 1382.078125 2006.332031 1376.261719 2008.804688 C 1373.515625 2009.980469 1370.214844 2009.195312 1367.035156 2006.949219 C 1366.453125 2006.539062 1365.804688 2006.289062 1365.132812 2006.199219 L 1365.132812 2006.148438 C 1365.027344 2006.148438 1364.929688 2006.164062 1364.828125 2006.171875 C 1364.730469 2006.164062 1364.625 2006.148438 1364.527344 2006.148438 L 1364.527344 2006.199219 C 1363.855469 2006.289062 1363.203125 2006.539062 1362.625 2006.949219 C 1359.445312 2009.1875 1356.144531 2009.980469 1353.394531 2008.804688 C 1347.574219 2006.328125 1346.386719 1996.039062 1350.738281 1985.828125 Z M 1307.4375 1908.820312 L 1321.808594 1907.738281 C 1334.601562 1906.777344 1345.75 1916.367188 1346.710938 1929.15625 L 1346.804688 1930.34375 C 1348.117188 1947.855469 1334.988281 1963.117188 1317.484375 1964.4375 L 1301.671875 1965.625 C 1288.953125 1966.578125 1277.867188 1957.046875 1276.90625 1944.328125 C 1276.839844 1943.480469 1276.8125 1942.644531 1276.8125 1941.8125 C 1276.804688 1924.640625 1290.039062 1910.128906 1307.4375 1908.820312 Z M 1307.4375 1908.820312 " fill-opacity="1" fill-rule="nonzero"/></g></svg>