<svg xmlns="http://www.w3.org/2000/svg" xmlns:xlink="http://www.w3.org/1999/xlink" width="3000" zoomAndPan="magnify" viewBox="0 0 2250 2250.000011" height="3000" preserveAspectRatio="xMidYMid meet" version="1.0"><defs><g/><clipPath id="be603f51dd"><path d="M 0.5 0 L 2249.5 0 L 2249.5 2249 L 0.5 2249 Z M 0.5 0 " clip-rule="nonzero"/></clipPath><clipPath id="a646db6636"><path d="M 327.441406 1302.722656 L 425.054688 1302.722656 L 425.054688 1434 L 327.441406 1434 Z M 327.441406 1302.722656 " clip-rule="nonzero"/></clipPath></defs><g clip-path="url(#be603f51dd)"><path fill="#ffffff" d="M 0.5 0 L 2249.5 0 L 2249.5 2249 L 0.5 2249 Z M 0.5 0 " fill-opacity="1" fill-rule="nonzero"/><path fill="#ffffff" d="M 0.5 0 L 2249.5 0 L 2249.5 2249 L 0.5 2249 Z M 0.5 0 " fill-opacity="1" fill-rule="nonzero"/></g><path fill="#8b5cf6" d="M 133.53125 820.003906 L 46.53125 820.003906 C 33.84375 820.003906 22.96875 830.878906 22.96875 843.566406 L 22.96875 1408.148438 C 22.96875 1420.835938 33.84375 1431.710938 46.53125 1431.710938 L 133.53125 1431.710938 C 146.21875 1431.710938 157.09375 1420.835938 157.09375 1408.148438 L 157.09375 844.472656 C 157.09375 830.878906 146.21875 820.003906 133.53125 820.003906 Z M 140.78125 915.160156 L 39.28125 915.160156 L 39.28125 899.753906 L 140.78125 899.753906 Z M 140.78125 915.160156 " fill-opacity="1" fill-rule="nonzero"/><path fill="#8b5cf6" d="M 282.152344 820.003906 L 195.15625 820.003906 C 182.46875 820.003906 171.59375 830.878906 171.59375 843.566406 L 171.59375 1408.148438 C 171.59375 1420.835938 182.46875 1431.710938 195.15625 1431.710938 L 282.152344 1431.710938 C 294.839844 1431.710938 305.714844 1420.835938 305.714844 1408.148438 L 305.714844 844.472656 C 305.714844 830.878906 294.839844 820.003906 282.152344 820.003906 Z M 289.402344 915.160156 L 187.90625 915.160156 L 187.90625 899.753906 L 289.402344 899.753906 Z M 289.402344 915.160156 " fill-opacity="1" fill-rule="nonzero"/><path fill="#8b5cf6" d="M 590.273438 1380.054688 L 445.273438 834.503906 C 441.648438 821.816406 428.960938 814.566406 416.273438 817.285156 L 331.996094 839.941406 C 319.308594 843.566406 312.058594 856.253906 314.777344 868.941406 L 459.773438 1414.492188 C 463.398438 1427.179688 476.085938 1434.429688 488.773438 1431.710938 L 573.054688 1409.054688 C 585.742188 1405.429688 592.992188 1392.742188 590.273438 1380.054688 Z M 349.214844 933.28125 L 345.589844 918.78125 L 443.460938 892.503906 L 447.085938 907.003906 Z M 349.214844 933.28125 " fill-opacity="1" fill-rule="nonzero"/><g fill="#ffffff" fill-opacity="1"><g transform="translate(708.094321, 1250.450826)"><g><path d="M 22.296875 0 L 22.296875 -256.5625 L 75.671875 -256.5625 L 75.671875 -160.109375 L 77.296875 -160.109375 C 79.710938 -165.367188 83.132812 -170.671875 87.5625 -176.015625 C 91.988281 -181.359375 97.832031 -185.847656 105.09375 -189.484375 C 112.363281 -193.117188 121.347656 -194.9375 132.046875 -194.9375 C 146.160156 -194.9375 159.101562 -191.28125 170.875 -183.96875 C 182.65625 -176.664062 192.113281 -165.679688 199.25 -151.015625 C 206.394531 -136.359375 209.96875 -118.007812 209.96875 -95.96875 C 209.96875 -74.5 206.5 -56.394531 199.5625 -41.65625 C 192.632812 -26.914062 183.28125 -15.765625 171.5 -8.203125 C 159.726562 -0.648438 146.535156 3.125 131.921875 3.125 C 121.566406 3.125 112.773438 1.414062 105.546875 -2 C 98.316406 -5.425781 92.425781 -9.75 87.875 -14.96875 C 83.320312 -20.1875 79.796875 -25.46875 77.296875 -30.8125 L 74.921875 -30.8125 L 74.921875 0 Z M 74.546875 -96.21875 C 74.546875 -79.09375 78.070312 -65.332031 85.125 -54.9375 C 92.1875 -44.539062 102.144531 -39.34375 115 -39.34375 C 128.113281 -39.34375 138.132812 -44.625 145.0625 -55.1875 C 152 -65.75 155.46875 -79.425781 155.46875 -96.21875 C 155.46875 -112.914062 152.019531 -126.460938 145.125 -136.859375 C 138.238281 -147.265625 128.195312 -152.46875 115 -152.46875 C 102.0625 -152.46875 92.082031 -147.390625 85.0625 -137.234375 C 78.050781 -127.085938 74.546875 -113.414062 74.546875 -96.21875 Z M 74.546875 -96.21875 "/></g></g></g><g fill="#ffffff" fill-opacity="1"><g transform="translate(917.383322, 1250.450826)"><g><path d="M 108.234375 3.765625 C 88.773438 3.765625 71.96875 -0.390625 57.8125 -8.703125 C 43.65625 -17.015625 32.734375 -28.625 25.046875 -43.53125 C 17.367188 -58.4375 13.53125 -75.75 13.53125 -95.46875 C 13.53125 -115.34375 17.367188 -132.734375 25.046875 -147.640625 C 32.734375 -162.546875 43.65625 -174.15625 57.8125 -182.46875 C 71.96875 -190.78125 88.773438 -194.9375 108.234375 -194.9375 C 127.691406 -194.9375 144.5 -190.78125 158.65625 -182.46875 C 172.820312 -174.15625 183.742188 -162.546875 191.421875 -147.640625 C 199.109375 -132.734375 202.953125 -115.34375 202.953125 -95.46875 C 202.953125 -75.75 199.109375 -58.4375 191.421875 -43.53125 C 183.742188 -28.625 172.820312 -17.015625 158.65625 -8.703125 C 144.5 -0.390625 127.691406 3.765625 108.234375 3.765625 Z M 108.484375 -37.578125 C 121.679688 -37.578125 131.679688 -43.085938 138.484375 -54.109375 C 145.296875 -65.140625 148.703125 -79.050781 148.703125 -95.84375 C 148.703125 -112.625 145.296875 -126.546875 138.484375 -137.609375 C 131.679688 -148.679688 121.679688 -154.21875 108.484375 -154.21875 C 95.046875 -154.21875 84.898438 -148.679688 78.046875 -137.609375 C 71.203125 -126.546875 67.78125 -112.625 67.78125 -95.84375 C 67.78125 -79.050781 71.203125 -65.140625 78.046875 -54.109375 C 84.898438 -43.085938 95.046875 -37.578125 108.484375 -37.578125 Z M 108.484375 -37.578125 "/></g></g></g><g fill="#ffffff" fill-opacity="1"><g transform="translate(1119.0309, 1250.450826)"><g><path d="M 108.234375 3.765625 C 88.773438 3.765625 71.96875 -0.390625 57.8125 -8.703125 C 43.65625 -17.015625 32.734375 -28.625 25.046875 -43.53125 C 17.367188 -58.4375 13.53125 -75.75 13.53125 -95.46875 C 13.53125 -115.34375 17.367188 -132.734375 25.046875 -147.640625 C 32.734375 -162.546875 43.65625 -174.15625 57.8125 -182.46875 C 71.96875 -190.78125 88.773438 -194.9375 108.234375 -194.9375 C 127.691406 -194.9375 144.5 -190.78125 158.65625 -182.46875 C 172.820312 -174.15625 183.742188 -162.546875 191.421875 -147.640625 C 199.109375 -132.734375 202.953125 -115.34375 202.953125 -95.46875 C 202.953125 -75.75 199.109375 -58.4375 191.421875 -43.53125 C 183.742188 -28.625 172.820312 -17.015625 158.65625 -8.703125 C 144.5 -0.390625 127.691406 3.765625 108.234375 3.765625 Z M 108.484375 -37.578125 C 121.679688 -37.578125 131.679688 -43.085938 138.484375 -54.109375 C 145.296875 -65.140625 148.703125 -79.050781 148.703125 -95.84375 C 148.703125 -112.625 145.296875 -126.546875 138.484375 -137.609375 C 131.679688 -148.679688 121.679688 -154.21875 108.484375 -154.21875 C 95.046875 -154.21875 84.898438 -148.679688 78.046875 -137.609375 C 71.203125 -126.546875 67.78125 -112.625 67.78125 -95.84375 C 67.78125 -79.050781 71.203125 -65.140625 78.046875 -54.109375 C 84.898438 -43.085938 95.046875 -37.578125 108.484375 -37.578125 Z M 108.484375 -37.578125 "/></g></g></g><g fill="#ffffff" fill-opacity="1"><g transform="translate(1320.678453, 1250.450826)"><g><path d="M 21.296875 0 L 21.296875 -256.5625 L 74.671875 -256.5625 L 74.671875 -119.390625 L 77.546875 -119.390625 L 139.1875 -192.421875 L 200.4375 -192.421875 L 129.03125 -109.109375 L 204.078125 0 L 141.5625 0 L 89.078125 -77.546875 L 74.671875 -61.140625 L 74.671875 0 Z M 21.296875 0 "/></g></g></g><g fill="#ffffff" fill-opacity="1"><g transform="translate(1511.051753, 1250.450826)"><g><path d="M 21.296875 0 L 21.296875 -192.421875 L 73.03125 -192.421875 L 73.03125 -158.859375 L 75.046875 -158.859375 C 78.546875 -170.796875 84.410156 -179.832031 92.640625 -185.96875 C 100.867188 -192.113281 110.410156 -195.1875 121.265625 -195.1875 C 126.441406 -195.1875 131.242188 -194.554688 135.671875 -193.296875 C 140.097656 -192.046875 144.066406 -190.335938 147.578125 -188.171875 L 131.546875 -144.0625 C 129.035156 -145.320312 126.296875 -146.390625 123.328125 -147.265625 C 120.367188 -148.140625 117.050781 -148.578125 113.375 -148.578125 C 102.601562 -148.578125 93.476562 -144.898438 86 -137.546875 C 78.53125 -130.203125 74.753906 -120.640625 74.671875 -108.859375 L 74.671875 0 Z M 21.296875 0 "/></g></g></g><g fill="#ffffff" fill-opacity="1"><g transform="translate(1647.434006, 1250.450826)"><g><path d="M 76.171875 3.640625 C 57.796875 3.640625 42.550781 -1.160156 30.4375 -10.765625 C 18.332031 -20.378906 12.28125 -34.707031 12.28125 -53.75 C 12.28125 -68.113281 15.660156 -79.382812 22.421875 -87.5625 C 29.191406 -95.75 38.066406 -101.742188 49.046875 -105.546875 C 60.023438 -109.347656 71.863281 -111.832031 84.5625 -113 C 101.269531 -114.664062 113.210938 -116.414062 120.390625 -118.25 C 127.578125 -120.09375 131.171875 -124.101562 131.171875 -130.28125 L 131.171875 -131.046875 C 131.171875 -138.972656 128.679688 -145.109375 123.703125 -149.453125 C 118.734375 -153.796875 111.703125 -155.96875 102.609375 -155.96875 C 93.003906 -155.96875 85.359375 -153.878906 79.671875 -149.703125 C 73.992188 -145.523438 70.238281 -140.222656 68.40625 -133.796875 L 19.046875 -137.8125 C 22.710938 -155.34375 31.832031 -169.242188 46.40625 -179.515625 C 60.988281 -189.796875 79.804688 -194.9375 102.859375 -194.9375 C 117.140625 -194.9375 130.5 -192.679688 142.9375 -188.171875 C 155.382812 -183.660156 165.425781 -176.625 173.0625 -167.0625 C 180.707031 -157.5 184.53125 -145.070312 184.53125 -129.78125 L 184.53125 0 L 133.921875 0 L 133.921875 -26.6875 L 132.421875 -26.6875 C 127.742188 -17.75 120.75 -10.457031 111.4375 -4.8125 C 102.125 0.820312 90.367188 3.640625 76.171875 3.640625 Z M 91.453125 -33.203125 C 103.140625 -33.203125 112.742188 -36.601562 120.265625 -43.40625 C 127.785156 -50.21875 131.546875 -58.675781 131.546875 -68.78125 L 131.546875 -89.203125 C 129.453125 -87.773438 126.210938 -86.519531 121.828125 -85.4375 C 117.441406 -84.351562 112.765625 -83.414062 107.796875 -82.625 C 102.828125 -81.832031 98.378906 -81.140625 94.453125 -80.546875 C 85.097656 -79.210938 77.5625 -76.582031 71.84375 -72.65625 C 66.125 -68.726562 63.265625 -63.007812 63.265625 -55.5 C 63.265625 -48.144531 65.914062 -42.585938 71.21875 -38.828125 C 76.519531 -35.078125 83.265625 -33.203125 91.453125 -33.203125 Z M 91.453125 -33.203125 "/></g></g></g><g fill="#ffffff" fill-opacity="1"><g transform="translate(1837.306282, 1250.450826)"><g><path d="M 108.234375 3.765625 C 88.523438 3.765625 71.59375 -0.429688 57.4375 -8.828125 C 43.28125 -17.222656 32.421875 -28.894531 24.859375 -43.84375 C 17.304688 -58.789062 13.53125 -76 13.53125 -95.46875 C 13.53125 -115.175781 17.347656 -132.484375 24.984375 -147.390625 C 32.628906 -162.296875 43.507812 -173.945312 57.625 -182.34375 C 71.738281 -190.738281 88.523438 -194.9375 107.984375 -194.9375 C 124.773438 -194.9375 139.492188 -191.882812 152.140625 -185.78125 C 164.796875 -179.6875 174.773438 -171.125 182.078125 -160.09375 C 189.390625 -149.070312 193.425781 -136.128906 194.1875 -121.265625 L 143.8125 -121.265625 C 142.394531 -130.867188 138.660156 -138.613281 132.609375 -144.5 C 126.554688 -150.394531 118.640625 -153.34375 108.859375 -153.34375 C 96.503906 -153.34375 86.566406 -148.375 79.046875 -138.4375 C 71.535156 -128.5 67.78125 -114.425781 67.78125 -96.21875 C 67.78125 -77.84375 71.515625 -63.617188 78.984375 -53.546875 C 86.460938 -43.484375 96.421875 -38.453125 108.859375 -38.453125 C 118.046875 -38.453125 125.769531 -41.226562 132.03125 -46.78125 C 138.300781 -52.34375 142.226562 -60.257812 143.8125 -70.53125 L 194.1875 -70.53125 C 193.34375 -55.832031 189.347656 -42.882812 182.203125 -31.6875 C 175.066406 -20.5 165.234375 -11.789062 152.703125 -5.5625 C 140.179688 0.65625 125.359375 3.765625 108.234375 3.765625 Z M 108.234375 3.765625 "/></g></g></g><g fill="#ffffff" fill-opacity="1"><g transform="translate(2029.683882, 1250.450826)"><g><path d="M 52.359375 74.921875 C 44.765625 74.921875 38.273438 74.269531 32.890625 72.96875 C 27.503906 71.675781 23.304688 70.363281 20.296875 69.03125 L 32.328125 27.6875 C 41.765625 30.53125 49.71875 31.28125 56.1875 29.9375 C 62.65625 28.601562 67.769531 23.550781 71.53125 14.78125 L 75.046875 5.515625 L 6.015625 -192.421875 L 62.140625 -192.421875 L 101.96875 -51.109375 L 103.984375 -51.109375 L 144.1875 -192.421875 L 200.6875 -192.421875 L 125.53125 22.046875 C 120.101562 37.410156 111.4375 50.0625 99.53125 60 C 87.632812 69.945312 71.910156 74.921875 52.359375 74.921875 Z M 52.359375 74.921875 "/></g></g></g><g fill="#ffffff" fill-opacity="1"><g transform="translate(715.454109, 1340.448633)"><g><path d="M 11.703125 0 L 6.015625 -41.21875 L 12.671875 -41.21875 L 16.3125 -9.65625 L 16.75 -9.65625 L 30.796875 -41.21875 L 37.5625 -41.21875 L 41 -9.765625 L 41.4375 -9.765625 L 55.59375 -41.21875 L 62.25 -41.21875 L 42.828125 0 L 36.59375 0 L 32.84375 -31.65625 L 32.203125 -31.65625 L 17.921875 0 Z M 11.703125 0 "/></g></g></g><g fill="#ffffff" fill-opacity="1"><g transform="translate(776.855095, 1340.448633)"><g><path d="M 12.765625 -24.796875 L 8.6875 0 L 2.359375 0 L 11.484375 -54.953125 L 17.8125 -54.953125 L 14.484375 -34.78125 L 15.03125 -34.78125 C 16.3125 -36.925781 18.03125 -38.625 20.1875 -39.875 C 22.34375 -41.125 25.0625 -41.75 28.34375 -41.75 C 32.519531 -41.75 35.691406 -40.484375 37.859375 -37.953125 C 40.023438 -35.421875 40.679688 -31.5 39.828125 -26.1875 L 35.421875 0 L 29.09375 0 L 33.375 -25.765625 C 33.914062 -29.035156 33.484375 -31.566406 32.078125 -33.359375 C 30.671875 -35.160156 28.492188 -36.0625 25.546875 -36.0625 C 22.429688 -36.0625 19.679688 -35.082031 17.296875 -33.125 C 14.921875 -31.164062 13.410156 -28.390625 12.765625 -24.796875 Z M 12.765625 -24.796875 "/></g></g></g><g fill="#ffffff" fill-opacity="1"><g transform="translate(821.510366, 1340.448633)"><g><path d="M 3.65625 16 C 2.582031 16 1.628906 15.910156 0.796875 15.734375 C -0.0351562 15.566406 -0.585938 15.398438 -0.859375 15.234375 L 1.609375 9.65625 C 3.078125 10.050781 4.390625 10.191406 5.546875 10.078125 C 6.710938 9.960938 7.820312 9.4375 8.875 8.5 C 9.9375 7.570312 11.019531 6.097656 12.125 4.078125 L 14.375 0 L 6.015625 -41.21875 L 12.671875 -41.21875 L 18.5625 -8.375 L 19 -8.375 L 35.84375 -41.21875 L 42.9375 -41.21875 L 17.28125 6.65625 C 13.894531 12.882812 9.351562 16 3.65625 16 Z M 3.65625 16 "/></g></g></g><g fill="#ffffff" fill-opacity="1"><g transform="translate(863.589396, 1340.448633)"><g/></g></g><g fill="#ffffff" fill-opacity="1"><g transform="translate(884.843582, 1340.448633)"><g><path d="M -0.21875 15.453125 L 9.234375 -41.21875 L 15.34375 -41.21875 L 14.28125 -34.671875 L 15.03125 -34.671875 C 15.601562 -35.378906 16.394531 -36.289062 17.40625 -37.40625 C 18.425781 -38.53125 19.796875 -39.535156 21.515625 -40.421875 C 23.234375 -41.304688 25.4375 -41.75 28.125 -41.75 C 31.59375 -41.75 34.503906 -40.878906 36.859375 -39.140625 C 39.210938 -37.410156 40.863281 -34.953125 41.8125 -31.765625 C 42.769531 -28.585938 42.894531 -24.832031 42.1875 -20.5 C 41.46875 -16.132812 40.101562 -12.351562 38.09375 -9.15625 C 36.082031 -5.96875 33.613281 -3.5 30.6875 -1.75 C 27.757812 -0.0078125 24.578125 0.859375 21.140625 0.859375 C 18.492188 0.859375 16.453125 0.414062 15.015625 -0.46875 C 13.578125 -1.351562 12.519531 -2.363281 11.84375 -3.5 C 11.175781 -4.632812 10.660156 -5.578125 10.296875 -6.328125 L 9.765625 -6.328125 L 6.125 15.453125 Z M 12.015625 -20.609375 C 11.265625 -15.941406 11.660156 -12.144531 13.203125 -9.21875 C 14.753906 -6.289062 17.4375 -4.828125 21.25 -4.828125 C 23.894531 -4.828125 26.21875 -5.53125 28.21875 -6.9375 C 30.226562 -8.34375 31.875 -10.238281 33.15625 -12.625 C 34.445312 -15.007812 35.34375 -17.671875 35.84375 -20.609375 C 36.3125 -23.503906 36.300781 -26.117188 35.8125 -28.453125 C 35.320312 -30.785156 34.300781 -32.632812 32.75 -34 C 31.195312 -35.375 29.082031 -36.0625 26.40625 -36.0625 C 22.539062 -36.0625 19.363281 -34.640625 16.875 -31.796875 C 14.382812 -28.953125 12.765625 -25.222656 12.015625 -20.609375 Z M 12.015625 -20.609375 "/></g></g></g><g fill="#ffffff" fill-opacity="1"><g transform="translate(930.894309, 1340.448633)"><g><path d="M 14.375 0.96875 C 11.769531 0.96875 9.484375 0.472656 7.515625 -0.515625 C 5.546875 -1.515625 4.085938 -2.957031 3.140625 -4.84375 C 2.191406 -6.726562 1.929688 -9.015625 2.359375 -11.703125 C 2.773438 -14.054688 3.570312 -15.972656 4.75 -17.453125 C 5.925781 -18.929688 7.359375 -20.09375 9.046875 -20.9375 C 10.742188 -21.789062 12.570312 -22.425781 14.53125 -22.84375 C 16.488281 -23.269531 18.441406 -23.597656 20.390625 -23.828125 C 22.929688 -24.148438 25 -24.398438 26.59375 -24.578125 C 28.1875 -24.753906 29.382812 -25.046875 30.1875 -25.453125 C 30.988281 -25.867188 31.476562 -26.578125 31.65625 -27.578125 L 31.65625 -27.796875 C 32.09375 -30.429688 31.742188 -32.484375 30.609375 -33.953125 C 29.484375 -35.429688 27.472656 -36.171875 24.578125 -36.171875 C 21.578125 -36.171875 19.0625 -35.507812 17.03125 -34.1875 C 15.007812 -32.863281 13.519531 -31.453125 12.5625 -29.953125 L 6.984375 -32.09375 C 8.441406 -34.59375 10.191406 -36.546875 12.234375 -37.953125 C 14.273438 -39.359375 16.410156 -40.34375 18.640625 -40.90625 C 20.878906 -41.46875 23.035156 -41.75 25.109375 -41.75 C 26.441406 -41.75 27.9375 -41.59375 29.59375 -41.28125 C 31.257812 -40.96875 32.820312 -40.328125 34.28125 -39.359375 C 35.738281 -38.398438 36.835938 -36.941406 37.578125 -34.984375 C 38.316406 -33.035156 38.421875 -30.425781 37.890625 -27.15625 L 33.375 0 L 27.046875 0 L 28.015625 -5.578125 L 27.6875 -5.578125 C 27.113281 -4.679688 26.238281 -3.722656 25.0625 -2.703125 C 23.894531 -1.691406 22.421875 -0.828125 20.640625 -0.109375 C 18.867188 0.609375 16.78125 0.96875 14.375 0.96875 Z M 16.203125 -4.71875 C 18.710938 -4.71875 20.910156 -5.207031 22.796875 -6.1875 C 24.679688 -7.175781 26.203125 -8.445312 27.359375 -10 C 28.515625 -11.5625 29.234375 -13.203125 29.515625 -14.921875 L 30.484375 -20.71875 C 30.160156 -20.394531 29.523438 -20.101562 28.578125 -19.84375 C 27.628906 -19.582031 26.5625 -19.359375 25.375 -19.171875 C 24.1875 -18.984375 23.03125 -18.820312 21.90625 -18.6875 C 20.789062 -18.550781 19.894531 -18.441406 19.21875 -18.359375 C 17.53125 -18.140625 15.929688 -17.789062 14.421875 -17.3125 C 12.910156 -16.84375 11.640625 -16.140625 10.609375 -15.203125 C 9.578125 -14.265625 8.9375 -12.988281 8.6875 -11.375 C 8.3125 -9.175781 8.835938 -7.515625 10.265625 -6.390625 C 11.703125 -5.273438 13.679688 -4.71875 16.203125 -4.71875 Z M 16.203125 -4.71875 "/></g></g></g><g fill="#ffffff" fill-opacity="1"><g transform="translate(973.510016, 1340.448633)"><g><path d="M 3.65625 16 C 2.582031 16 1.628906 15.910156 0.796875 15.734375 C -0.0351562 15.566406 -0.585938 15.398438 -0.859375 15.234375 L 1.609375 9.65625 C 3.078125 10.050781 4.390625 10.191406 5.546875 10.078125 C 6.710938 9.960938 7.820312 9.4375 8.875 8.5 C 9.9375 7.570312 11.019531 6.097656 12.125 4.078125 L 14.375 0 L 6.015625 -41.21875 L 12.671875 -41.21875 L 18.5625 -8.375 L 19 -8.375 L 35.84375 -41.21875 L 42.9375 -41.21875 L 17.28125 6.65625 C 13.894531 12.882812 9.351562 16 3.65625 16 Z M 3.65625 16 "/></g></g></g><g fill="#ffffff" fill-opacity="1"><g transform="translate(1015.589045, 1340.448633)"><g/></g></g><g fill="#ffffff" fill-opacity="1"><g transform="translate(1036.843231, 1340.448633)"><g><path d="M 27.578125 -41.21875 L 26.71875 -35.84375 L 17.421875 -35.84375 L 11.484375 0 L 5.15625 0 L 11.140625 -35.84375 L 4.515625 -35.84375 L 5.359375 -41.21875 L 12.046875 -41.21875 L 12.984375 -46.90625 C 13.347656 -49.269531 14.210938 -51.238281 15.578125 -52.8125 C 16.941406 -54.382812 18.578125 -55.5625 20.484375 -56.34375 C 22.390625 -57.132812 24.328125 -57.53125 26.296875 -57.53125 C 27.847656 -57.53125 29.09375 -57.40625 30.03125 -57.15625 C 30.976562 -56.90625 31.664062 -56.671875 32.09375 -56.453125 L 29.40625 -50.984375 C 29.082031 -51.085938 28.65625 -51.21875 28.125 -51.375 C 27.601562 -51.539062 26.882812 -51.625 25.96875 -51.625 C 23.875 -51.625 22.28125 -51.09375 21.1875 -50.03125 C 20.101562 -48.976562 19.375 -47.4375 19 -45.40625 L 18.296875 -41.21875 Z M 27.578125 -41.21875 "/></g></g></g><g fill="#ffffff" fill-opacity="1"><g transform="translate(1064.108727, 1340.448633)"><g><path d="M 19.421875 0.859375 C 15.628906 0.859375 12.457031 -0.0390625 9.90625 -1.84375 C 7.363281 -3.65625 5.5625 -6.1875 4.5 -9.4375 C 3.445312 -12.695312 3.269531 -16.492188 3.96875 -20.828125 C 4.644531 -25.046875 6.003906 -28.722656 8.046875 -31.859375 C 10.085938 -35.003906 12.617188 -37.4375 15.640625 -39.15625 C 18.660156 -40.882812 22 -41.75 25.65625 -41.75 C 29.445312 -41.75 32.617188 -40.84375 35.171875 -39.03125 C 37.734375 -37.21875 39.539062 -34.675781 40.59375 -31.40625 C 41.65625 -28.144531 41.828125 -24.332031 41.109375 -19.96875 C 40.429688 -15.78125 39.070312 -12.125 37.03125 -9 C 34.988281 -5.875 32.457031 -3.445312 29.4375 -1.71875 C 26.414062 0 23.078125 0.859375 19.421875 0.859375 Z M 19.53125 -4.828125 C 22.425781 -4.828125 24.945312 -5.566406 27.09375 -7.046875 C 29.25 -8.535156 30.988281 -10.492188 32.3125 -12.921875 C 33.644531 -15.359375 34.535156 -17.992188 34.984375 -20.828125 C 35.421875 -23.503906 35.40625 -26 34.9375 -28.3125 C 34.46875 -30.632812 33.472656 -32.503906 31.953125 -33.921875 C 30.429688 -35.347656 28.296875 -36.0625 25.546875 -36.0625 C 22.648438 -36.0625 20.128906 -35.3125 17.984375 -33.8125 C 15.835938 -32.3125 14.097656 -30.332031 12.765625 -27.875 C 11.441406 -25.425781 10.550781 -22.789062 10.09375 -19.96875 C 9.664062 -17.28125 9.679688 -14.785156 10.140625 -12.484375 C 10.609375 -10.191406 11.601562 -8.34375 13.125 -6.9375 C 14.644531 -5.53125 16.78125 -4.828125 19.53125 -4.828125 Z M 19.53125 -4.828125 "/></g></g></g><g fill="#ffffff" fill-opacity="1"><g transform="translate(1109.193388, 1340.448633)"><g><path d="M 2.359375 0 L 9.234375 -41.21875 L 15.34375 -41.21875 L 14.28125 -34.984375 L 14.703125 -34.984375 C 15.773438 -37.023438 17.394531 -38.679688 19.5625 -39.953125 C 21.738281 -41.222656 24.09375 -41.859375 26.625 -41.859375 C 28.800781 -41.859375 30.445312 -41.359375 31.5625 -40.359375 L 28.546875 -35.09375 C 27.796875 -35.519531 26.617188 -35.734375 25.015625 -35.734375 C 23.003906 -35.734375 21.144531 -35.3125 19.4375 -34.46875 C 17.726562 -33.632812 16.300781 -32.492188 15.15625 -31.046875 C 14.007812 -29.597656 13.285156 -27.941406 12.984375 -26.078125 L 8.6875 0 Z M 2.359375 0 "/></g></g></g><g fill="#ffffff" fill-opacity="1"><g transform="translate(1138.176394, 1340.448633)"><g/></g></g><g fill="#ffffff" fill-opacity="1"><g transform="translate(1159.43058, 1340.448633)"><g><path d="M 2.359375 0 L 11.484375 -54.953125 L 17.8125 -54.953125 L 12.484375 -22.859375 L 13.203125 -22.859375 L 34.34375 -41.21875 L 42.1875 -41.21875 L 21.8125 -23.5625 L 36.59375 0 L 28.546875 0 L 16.390625 -19.5625 L 11.265625 -15.453125 L 8.6875 0 Z M 2.359375 0 "/></g></g></g><g fill="#ffffff" fill-opacity="1"><g transform="translate(1200.543495, 1340.448633)"><g><path d="M 12.765625 -24.796875 L 8.6875 0 L 2.359375 0 L 9.234375 -41.21875 L 15.34375 -41.21875 L 14.28125 -34.78125 L 14.8125 -34.78125 C 16.101562 -36.875 17.847656 -38.554688 20.046875 -39.828125 C 22.242188 -41.109375 24.898438 -41.75 28.015625 -41.75 C 32.148438 -41.75 35.289062 -40.46875 37.4375 -37.90625 C 39.59375 -35.351562 40.242188 -31.445312 39.390625 -26.1875 L 34.984375 0 L 28.65625 0 L 32.953125 -25.765625 C 33.484375 -28.984375 33.066406 -31.503906 31.703125 -33.328125 C 30.335938 -35.148438 28.175781 -36.0625 25.21875 -36.0625 C 22.164062 -36.0625 19.488281 -35.082031 17.1875 -33.125 C 14.882812 -31.164062 13.410156 -28.390625 12.765625 -24.796875 Z M 12.765625 -24.796875 "/></g></g></g><g fill="#ffffff" fill-opacity="1"><g transform="translate(1244.769377, 1340.448633)"><g><path d="M 19.421875 0.859375 C 15.628906 0.859375 12.457031 -0.0390625 9.90625 -1.84375 C 7.363281 -3.65625 5.5625 -6.1875 4.5 -9.4375 C 3.445312 -12.695312 3.269531 -16.492188 3.96875 -20.828125 C 4.644531 -25.046875 6.003906 -28.722656 8.046875 -31.859375 C 10.085938 -35.003906 12.617188 -37.4375 15.640625 -39.15625 C 18.660156 -40.882812 22 -41.75 25.65625 -41.75 C 29.445312 -41.75 32.617188 -40.84375 35.171875 -39.03125 C 37.734375 -37.21875 39.539062 -34.675781 40.59375 -31.40625 C 41.65625 -28.144531 41.828125 -24.332031 41.109375 -19.96875 C 40.429688 -15.78125 39.070312 -12.125 37.03125 -9 C 34.988281 -5.875 32.457031 -3.445312 29.4375 -1.71875 C 26.414062 0 23.078125 0.859375 19.421875 0.859375 Z M 19.53125 -4.828125 C 22.425781 -4.828125 24.945312 -5.566406 27.09375 -7.046875 C 29.25 -8.535156 30.988281 -10.492188 32.3125 -12.921875 C 33.644531 -15.359375 34.535156 -17.992188 34.984375 -20.828125 C 35.421875 -23.503906 35.40625 -26 34.9375 -28.3125 C 34.46875 -30.632812 33.472656 -32.503906 31.953125 -33.921875 C 30.429688 -35.347656 28.296875 -36.0625 25.546875 -36.0625 C 22.648438 -36.0625 20.128906 -35.3125 17.984375 -33.8125 C 15.835938 -32.3125 14.097656 -30.332031 12.765625 -27.875 C 11.441406 -25.425781 10.550781 -22.789062 10.09375 -19.96875 C 9.664062 -17.28125 9.679688 -14.785156 10.140625 -12.484375 C 10.609375 -10.191406 11.601562 -8.34375 13.125 -6.9375 C 14.644531 -5.53125 16.78125 -4.828125 19.53125 -4.828125 Z M 19.53125 -4.828125 "/></g></g></g><g fill="#ffffff" fill-opacity="1"><g transform="translate(1289.854037, 1340.448633)"><g><path d="M 11.703125 0 L 6.015625 -41.21875 L 12.671875 -41.21875 L 16.3125 -9.65625 L 16.75 -9.65625 L 30.796875 -41.21875 L 37.5625 -41.21875 L 41 -9.765625 L 41.4375 -9.765625 L 55.59375 -41.21875 L 62.25 -41.21875 L 42.828125 0 L 36.59375 0 L 32.84375 -31.65625 L 32.203125 -31.65625 L 17.921875 0 Z M 11.703125 0 "/></g></g></g><g fill="#ffffff" fill-opacity="1"><g transform="translate(1351.255024, 1340.448633)"><g><path d="M 17.8125 -54.953125 L 8.6875 0 L 2.359375 0 L 11.484375 -54.953125 Z M 17.8125 -54.953125 "/></g></g></g><g fill="#ffffff" fill-opacity="1"><g transform="translate(1369.181524, 1340.448633)"><g><path d="M 19.53125 0.859375 C 15.582031 0.859375 12.316406 -0.0195312 9.734375 -1.78125 C 7.160156 -3.539062 5.363281 -6.007812 4.34375 -9.1875 C 3.320312 -12.363281 3.160156 -16.0625 3.859375 -20.28125 C 4.554688 -24.507812 5.941406 -28.238281 8.015625 -31.46875 C 10.097656 -34.695312 12.6875 -37.21875 15.78125 -39.03125 C 18.875 -40.84375 22.269531 -41.75 25.96875 -41.75 C 28.113281 -41.75 30.179688 -41.390625 32.171875 -40.671875 C 34.160156 -39.960938 35.878906 -38.804688 37.328125 -37.203125 C 38.773438 -35.597656 39.785156 -33.476562 40.359375 -30.84375 C 40.929688 -28.21875 40.894531 -24.984375 40.25 -21.140625 L 39.828125 -18.46875 L 9.84375 -18.46875 C 9.070312 -13.414062 9.660156 -9.878906 11.609375 -7.859375 C 13.566406 -5.835938 16.53125 -4.828125 20.5 -4.828125 C 23.039062 -4.828125 25.28125 -5.363281 27.21875 -6.4375 C 29.164062 -7.507812 30.71875 -9.117188 31.875 -11.265625 L 37.671875 -9.546875 C 36.191406 -6.441406 33.847656 -3.929688 30.640625 -2.015625 C 27.441406 -0.0976562 23.738281 0.859375 19.53125 0.859375 Z M 10.734375 -23.9375 L 34.234375 -23.9375 C 34.847656 -27.425781 34.328125 -30.316406 32.671875 -32.609375 C 31.015625 -34.910156 28.460938 -36.0625 25.015625 -36.0625 C 22.703125 -36.0625 20.539062 -35.457031 18.53125 -34.25 C 16.519531 -33.039062 14.816406 -31.503906 13.421875 -29.640625 C 12.035156 -27.785156 11.140625 -25.882812 10.734375 -23.9375 Z M 10.734375 -23.9375 "/></g></g></g><g fill="#ffffff" fill-opacity="1"><g transform="translate(1413.30007, 1340.448633)"><g><path d="M 17.921875 0.859375 C 14.472656 0.859375 11.578125 -0.0078125 9.234375 -1.75 C 6.890625 -3.5 5.238281 -5.96875 4.28125 -9.15625 C 3.320312 -12.351562 3.203125 -16.132812 3.921875 -20.5 C 4.648438 -24.832031 6.019531 -28.585938 8.03125 -31.765625 C 10.050781 -34.953125 12.523438 -37.410156 15.453125 -39.140625 C 18.390625 -40.878906 21.59375 -41.75 25.0625 -41.75 C 27.75 -41.75 29.800781 -41.304688 31.21875 -40.421875 C 32.644531 -39.535156 33.675781 -38.53125 34.3125 -37.40625 C 34.957031 -36.289062 35.453125 -35.378906 35.796875 -34.671875 L 36.328125 -34.671875 L 39.71875 -54.953125 L 46.046875 -54.953125 L 36.921875 0 L 30.796875 0 L 31.875 -6.328125 L 31.125 -6.328125 C 30.53125 -5.578125 29.707031 -4.632812 28.65625 -3.5 C 27.601562 -2.363281 26.210938 -1.351562 24.484375 -0.46875 C 22.753906 0.414062 20.566406 0.859375 17.921875 0.859375 Z M 19.484375 -4.828125 C 23.296875 -4.828125 26.5 -6.289062 29.09375 -9.21875 C 31.6875 -12.144531 33.363281 -15.941406 34.125 -20.609375 C 34.894531 -25.222656 34.472656 -28.953125 32.859375 -31.796875 C 31.253906 -34.640625 28.515625 -36.0625 24.640625 -36.0625 C 21.972656 -36.0625 19.65625 -35.375 17.6875 -34 C 15.71875 -32.632812 14.113281 -30.785156 12.875 -28.453125 C 11.644531 -26.117188 10.785156 -23.503906 10.296875 -20.609375 C 9.816406 -17.671875 9.804688 -15.007812 10.265625 -12.625 C 10.734375 -10.238281 11.722656 -8.34375 13.234375 -6.9375 C 14.753906 -5.53125 16.835938 -4.828125 19.484375 -4.828125 Z M 19.484375 -4.828125 "/></g></g></g><g fill="#ffffff" fill-opacity="1"><g transform="translate(1460.316912, 1340.448633)"><g><path d="M 16.421875 16.3125 C 13.347656 16.3125 10.769531 15.921875 8.6875 15.140625 C 6.613281 14.367188 4.953125 13.351562 3.703125 12.09375 C 2.453125 10.832031 1.503906 9.484375 0.859375 8.046875 L 6.546875 4.515625 C 6.972656 5.265625 7.523438 6.125 8.203125 7.09375 C 8.890625 8.070312 9.925781 8.921875 11.3125 9.640625 C 12.695312 10.367188 14.648438 10.734375 17.171875 10.734375 C 20.484375 10.734375 23.378906 9.925781 25.859375 8.3125 C 28.347656 6.707031 29.890625 4.1875 30.484375 0.75 L 31.765625 -7.625 L 31.234375 -7.625 C 30.660156 -6.875 29.863281 -5.945312 28.84375 -4.84375 C 27.820312 -3.738281 26.453125 -2.757812 24.734375 -1.90625 C 23.023438 -1.0625 20.828125 -0.640625 18.140625 -0.640625 C 14.796875 -0.640625 11.929688 -1.425781 9.546875 -3 C 7.171875 -4.570312 5.46875 -6.859375 4.4375 -9.859375 C 3.40625 -12.867188 3.25 -16.523438 3.96875 -20.828125 C 4.664062 -25.046875 6.007812 -28.722656 8 -31.859375 C 10 -35.003906 12.460938 -37.4375 15.390625 -39.15625 C 18.328125 -40.882812 21.535156 -41.75 25.015625 -41.75 C 27.691406 -41.75 29.75 -41.304688 31.1875 -40.421875 C 32.632812 -39.535156 33.6875 -38.53125 34.34375 -37.40625 C 35.007812 -36.289062 35.507812 -35.378906 35.84375 -34.671875 L 36.5 -34.671875 L 37.5625 -41.21875 L 43.6875 -41.21875 L 36.703125 1.1875 C 36.117188 4.726562 34.84375 7.609375 32.875 9.828125 C 30.90625 12.054688 28.488281 13.691406 25.625 14.734375 C 22.757812 15.785156 19.691406 16.3125 16.421875 16.3125 Z M 19.75 -6.328125 C 23.539062 -6.328125 26.695312 -7.617188 29.21875 -10.203125 C 31.738281 -12.796875 33.375 -16.375 34.125 -20.9375 C 34.863281 -25.382812 34.414062 -29.015625 32.78125 -31.828125 C 31.15625 -34.648438 28.421875 -36.0625 24.578125 -36.0625 C 21.878906 -36.0625 19.550781 -35.378906 17.59375 -34.015625 C 15.632812 -32.660156 14.046875 -30.835938 12.828125 -28.546875 C 11.609375 -26.253906 10.765625 -23.71875 10.296875 -20.9375 C 9.585938 -16.632812 9.988281 -13.125 11.5 -10.40625 C 13.007812 -7.6875 15.757812 -6.328125 19.75 -6.328125 Z M 19.75 -6.328125 "/></g></g></g><g fill="#ffffff" fill-opacity="1"><g transform="translate(1506.367639, 1340.448633)"><g><path d="M 19.53125 0.859375 C 15.582031 0.859375 12.316406 -0.0195312 9.734375 -1.78125 C 7.160156 -3.539062 5.363281 -6.007812 4.34375 -9.1875 C 3.320312 -12.363281 3.160156 -16.0625 3.859375 -20.28125 C 4.554688 -24.507812 5.941406 -28.238281 8.015625 -31.46875 C 10.097656 -34.695312 12.6875 -37.21875 15.78125 -39.03125 C 18.875 -40.84375 22.269531 -41.75 25.96875 -41.75 C 28.113281 -41.75 30.179688 -41.390625 32.171875 -40.671875 C 34.160156 -39.960938 35.878906 -38.804688 37.328125 -37.203125 C 38.773438 -35.597656 39.785156 -33.476562 40.359375 -30.84375 C 40.929688 -28.21875 40.894531 -24.984375 40.25 -21.140625 L 39.828125 -18.46875 L 9.84375 -18.46875 C 9.070312 -13.414062 9.660156 -9.878906 11.609375 -7.859375 C 13.566406 -5.835938 16.53125 -4.828125 20.5 -4.828125 C 23.039062 -4.828125 25.28125 -5.363281 27.21875 -6.4375 C 29.164062 -7.507812 30.71875 -9.117188 31.875 -11.265625 L 37.671875 -9.546875 C 36.191406 -6.441406 33.847656 -3.929688 30.640625 -2.015625 C 27.441406 -0.0976562 23.738281 0.859375 19.53125 0.859375 Z M 10.734375 -23.9375 L 34.234375 -23.9375 C 34.847656 -27.425781 34.328125 -30.316406 32.671875 -32.609375 C 31.015625 -34.910156 28.460938 -36.0625 25.015625 -36.0625 C 22.703125 -36.0625 20.539062 -35.457031 18.53125 -34.25 C 16.519531 -33.039062 14.816406 -31.503906 13.421875 -29.640625 C 12.035156 -27.785156 11.140625 -25.882812 10.734375 -23.9375 Z M 10.734375 -23.9375 "/></g></g></g><g fill="#ffffff" fill-opacity="1"><g transform="translate(1550.486185, 1340.448633)"><g><path d="M 13.203125 -15.453125 L 13.3125 -16.09375 C 13.894531 -19.445312 14.703125 -22.113281 15.734375 -24.09375 C 16.765625 -26.082031 18.007812 -27.6875 19.46875 -28.90625 C 20.925781 -30.132812 22.59375 -31.269531 24.46875 -32.3125 C 26.1875 -33.269531 27.71875 -34.507812 29.0625 -36.03125 C 30.40625 -37.550781 31.238281 -39.382812 31.5625 -41.53125 C 31.988281 -44.164062 31.453125 -46.253906 29.953125 -47.796875 C 28.460938 -49.347656 26.457031 -50.125 23.9375 -50.125 C 22.46875 -50.125 20.992188 -49.816406 19.515625 -49.203125 C 18.046875 -48.597656 16.742188 -47.640625 15.609375 -46.328125 C 14.472656 -45.023438 13.671875 -43.320312 13.203125 -41.21875 L 6.4375 -41.21875 C 7.082031 -44.257812 8.300781 -46.859375 10.09375 -49.015625 C 11.894531 -51.179688 14.070312 -52.835938 16.625 -53.984375 C 19.175781 -55.128906 21.898438 -55.703125 24.796875 -55.703125 C 27.941406 -55.703125 30.578125 -55.078125 32.703125 -53.828125 C 34.835938 -52.578125 36.367188 -50.859375 37.296875 -48.671875 C 38.222656 -46.492188 38.457031 -44.007812 38 -41.21875 C 37.507812 -38.257812 36.421875 -35.71875 34.734375 -33.59375 C 33.046875 -31.476562 30.914062 -29.726562 28.34375 -28.34375 C 25.757812 -26.882812 23.828125 -25.285156 22.546875 -23.546875 C 21.273438 -21.804688 20.34375 -19.320312 19.75 -16.09375 L 19.640625 -15.453125 Z M 14.8125 0.421875 C 13.445312 0.421875 12.304688 -0.046875 11.390625 -0.984375 C 10.484375 -1.921875 10.015625 -3.0625 9.984375 -4.40625 C 9.960938 -5.738281 10.4375 -6.859375 11.40625 -7.765625 C 12.375 -8.671875 13.507812 -9.125 14.8125 -9.125 C 16.132812 -9.125 17.28125 -8.65625 18.25 -7.71875 C 19.21875 -6.789062 19.679688 -5.6875 19.640625 -4.40625 C 19.617188 -3.0625 19.140625 -1.921875 18.203125 -0.984375 C 17.265625 -0.046875 16.132812 0.421875 14.8125 0.421875 Z M 14.8125 0.421875 "/></g></g></g><g clip-path="url(#a646db6636)"><path fill="#8b5cf6" d="M 426.355469 1420.316406 C 426.519531 1422.582031 424.738281 1424.667969 422.046875 1425.710938 C 423.101562 1428.398438 422.773438 1431.125 420.996094 1432.535156 C 418.609375 1434.425781 414.515625 1433.238281 411.851562 1429.878906 C 411.839844 1429.863281 411.828125 1429.847656 411.816406 1429.832031 C 408.933594 1426.164062 405.242188 1423.207031 400.96875 1421.332031 L 376.984375 1410.8125 L 353.003906 1421.332031 C 348.726562 1423.207031 345.039062 1426.160156 342.15625 1429.832031 C 342.140625 1429.847656 342.128906 1429.863281 342.117188 1429.878906 C 339.457031 1433.238281 335.363281 1434.425781 332.976562 1432.535156 C 331.199219 1431.125 330.871094 1428.398438 331.925781 1425.710938 C 329.234375 1424.667969 327.449219 1422.582031 327.617188 1420.316406 C 327.839844 1417.277344 331.488281 1415.074219 335.765625 1415.386719 C 335.785156 1415.386719 335.800781 1415.386719 335.820312 1415.390625 C 340.476562 1415.753906 345.148438 1415.039062 349.421875 1413.164062 L 365.886719 1405.941406 L 349.421875 1398.71875 C 345.148438 1396.84375 340.476562 1396.128906 335.820312 1396.492188 C 335.800781 1396.496094 335.785156 1396.496094 335.765625 1396.5 C 331.488281 1396.8125 327.839844 1394.605469 327.617188 1391.566406 C 327.449219 1389.300781 329.234375 1387.214844 331.925781 1386.171875 C 330.871094 1383.484375 331.199219 1380.757812 332.976562 1379.347656 C 335.363281 1377.457031 339.457031 1378.644531 342.121094 1382.003906 C 342.132812 1382.019531 342.144531 1382.035156 342.15625 1382.050781 C 345.039062 1385.71875 348.730469 1388.675781 353.003906 1390.550781 L 376.984375 1401.074219 L 400.96875 1390.550781 C 405.242188 1388.679688 408.933594 1385.722656 411.816406 1382.050781 C 411.828125 1382.035156 411.839844 1382.023438 411.851562 1382.007812 C 414.515625 1378.644531 418.613281 1377.457031 420.996094 1379.351562 C 422.773438 1380.761719 423.101562 1383.488281 422.046875 1386.171875 C 424.738281 1387.21875 426.519531 1389.304688 426.355469 1391.566406 C 426.132812 1394.605469 422.484375 1396.8125 418.207031 1396.5 C 418.1875 1396.5 418.171875 1396.5 418.148438 1396.496094 C 413.496094 1396.128906 408.824219 1396.847656 404.550781 1398.71875 L 388.082031 1405.945312 L 404.550781 1413.167969 C 408.824219 1415.042969 413.496094 1415.757812 418.148438 1415.390625 C 418.171875 1415.390625 418.1875 1415.390625 418.207031 1415.386719 C 422.484375 1415.070312 426.132812 1417.277344 426.355469 1420.316406 Z M 346.941406 1360.4375 C 346.933594 1360.589844 346.898438 1360.738281 346.835938 1360.875 C 344.855469 1365.410156 345.300781 1367.914062 347.167969 1369.992188 C 349.71875 1372.820312 357.105469 1372.996094 358.113281 1372.992188 C 358.148438 1372.992188 358.230469 1372.988281 358.339844 1372.996094 C 360.042969 1373.078125 361.609375 1373.71875 362.21875 1375.101562 C 362.558594 1375.878906 362.21875 1377.183594 362.105469 1378.511719 C 361.777344 1382.382812 360.714844 1383.039062 361.550781 1384.375 C 361.878906 1384.902344 363.765625 1386.691406 367.980469 1387.65625 C 370.050781 1388.125 373.261719 1388.65625 376.785156 1388.902344 C 376.792969 1388.902344 376.800781 1388.902344 376.8125 1388.902344 L 376.8125 1388.910156 C 376.839844 1388.910156 376.867188 1388.90625 376.894531 1388.90625 C 376.925781 1388.90625 376.953125 1388.910156 376.980469 1388.910156 L 376.980469 1388.902344 C 376.992188 1388.902344 377 1388.902344 377.007812 1388.902344 C 380.53125 1388.65625 383.742188 1388.128906 385.808594 1387.65625 C 390.027344 1386.691406 391.914062 1384.902344 392.242188 1384.375 C 393.082031 1383.039062 392.015625 1382.378906 391.6875 1378.511719 C 391.574219 1377.183594 391.230469 1375.875 391.570312 1375.101562 C 392.183594 1373.71875 393.75 1373.078125 395.453125 1372.996094 C 395.5625 1372.992188 395.644531 1372.992188 395.679688 1372.992188 C 396.6875 1372.996094 404.074219 1372.816406 406.625 1369.992188 C 408.492188 1367.917969 408.9375 1365.410156 406.957031 1360.875 C 406.898438 1360.738281 406.859375 1360.589844 406.851562 1360.4375 C 406.367188 1351.25 411.796875 1349.820312 413.3125 1341.367188 C 415.585938 1328.714844 406.613281 1315.71875 405.851562 1314.796875 C 396.558594 1303.566406 382.539062 1302.71875 378.039062 1302.742188 C 377.660156 1302.746094 377.28125 1302.746094 376.898438 1302.746094 C 376.519531 1302.746094 376.140625 1302.746094 375.761719 1302.742188 C 371.261719 1302.71875 357.242188 1303.566406 347.945312 1314.796875 C 347.179688 1315.71875 338.210938 1328.714844 340.480469 1341.367188 C 342 1349.820312 347.425781 1351.25 346.941406 1360.4375 Z M 381.9375 1353.726562 L 381.964844 1353.394531 C 382.234375 1349.820312 385.347656 1347.140625 388.925781 1347.410156 L 392.941406 1347.710938 C 397.804688 1348.074219 401.503906 1352.132812 401.503906 1356.929688 C 401.503906 1357.164062 401.496094 1357.398438 401.476562 1357.632812 C 401.210938 1361.1875 398.109375 1363.855469 394.554688 1363.585938 L 390.132812 1363.253906 C 385.242188 1362.886719 381.570312 1358.621094 381.9375 1353.726562 Z M 372.960938 1369.238281 C 373.425781 1368.148438 374.050781 1367.222656 374.730469 1366.527344 C 374.738281 1366.523438 374.746094 1366.511719 374.753906 1366.507812 C 375.339844 1365.910156 376.117188 1365.605469 376.898438 1365.585938 C 377.679688 1365.605469 378.457031 1365.910156 379.046875 1366.507812 C 379.054688 1366.511719 379.0625 1366.523438 379.070312 1366.527344 C 379.75 1367.222656 380.375 1368.148438 380.839844 1369.238281 C 382.054688 1372.09375 381.722656 1374.96875 380.097656 1375.660156 C 379.328125 1375.988281 378.40625 1375.769531 377.515625 1375.140625 C 377.355469 1375.027344 377.171875 1374.957031 376.984375 1374.933594 L 376.984375 1374.917969 C 376.957031 1374.917969 376.929688 1374.921875 376.898438 1374.925781 C 376.871094 1374.921875 376.84375 1374.917969 376.816406 1374.917969 L 376.816406 1374.933594 C 376.628906 1374.957031 376.445312 1375.027344 376.285156 1375.140625 C 375.394531 1375.769531 374.472656 1375.988281 373.703125 1375.660156 C 372.078125 1374.96875 371.746094 1372.09375 372.960938 1369.238281 Z M 360.859375 1347.710938 L 364.875 1347.410156 C 368.449219 1347.140625 371.566406 1349.820312 371.835938 1353.398438 L 371.863281 1353.730469 C 372.230469 1358.625 368.558594 1362.890625 363.667969 1363.257812 L 359.246094 1363.589844 C 355.691406 1363.859375 352.589844 1361.191406 352.324219 1357.636719 C 352.304688 1357.402344 352.296875 1357.167969 352.296875 1356.933594 C 352.296875 1352.136719 355.996094 1348.078125 360.859375 1347.710938 Z M 360.859375 1347.710938 " fill-opacity="1" fill-rule="nonzero"/></g></svg>