<svg xmlns="http://www.w3.org/2000/svg" xmlns:xlink="http://www.w3.org/1999/xlink" width="3000" zoomAndPan="magnify" viewBox="0 0 2250 2250.000011" height="3000" preserveAspectRatio="xMidYMid meet" version="1.0"><defs><g/><clipPath id="a6d64c13e2"><path d="M 0.5 0 L 2249.5 0 L 2249.5 2249 L 0.5 2249 Z M 0.5 0 " clip-rule="nonzero"/></clipPath></defs><g clip-path="url(#a6d64c13e2)"><path fill="#ffffff" d="M 0.5 0 L 2249.5 0 L 2249.5 2249 L 0.5 2249 Z M 0.5 0 " fill-opacity="1" fill-rule="nonzero"/><path fill="#ffffff" d="M 0.5 0 L 2249.5 0 L 2249.5 2249 L 0.5 2249 Z M 0.5 0 " fill-opacity="1" fill-rule="nonzero"/></g><g fill="#ffffff" fill-opacity="1"><g transform="translate(41.820299, 1303.029891)"><g><path d="M 31.609375 0 L 31.609375 -363.6875 L 107.25 -363.6875 L 107.25 -226.953125 L 109.5625 -226.953125 C 113 -234.410156 117.851562 -241.925781 124.125 -249.5 C 130.40625 -257.070312 138.691406 -263.429688 148.984375 -268.578125 C 159.285156 -273.734375 172.015625 -276.3125 187.171875 -276.3125 C 207.171875 -276.3125 225.515625 -271.128906 242.203125 -260.765625 C 258.898438 -250.410156 272.3125 -234.84375 282.4375 -214.0625 C 292.5625 -193.289062 297.625 -167.28125 297.625 -136.03125 C 297.625 -105.601562 292.707031 -79.941406 282.875 -59.046875 C 273.050781 -38.148438 259.789062 -22.34375 243.09375 -11.625 C 226.40625 -0.914062 207.703125 4.4375 186.984375 4.4375 C 172.304688 4.4375 159.847656 2.007812 149.609375 -2.84375 C 139.367188 -7.695312 131.019531 -13.820312 124.5625 -21.21875 C 118.113281 -28.613281 113.113281 -36.101562 109.5625 -43.6875 L 106.1875 -43.6875 L 106.1875 0 Z M 105.65625 -136.375 C 105.65625 -112.113281 110.65625 -92.613281 120.65625 -77.875 C 130.664062 -63.132812 144.785156 -55.765625 163.015625 -55.765625 C 181.597656 -55.765625 195.800781 -63.25 205.625 -78.21875 C 215.457031 -93.195312 220.375 -112.582031 220.375 -136.375 C 220.375 -160.050781 215.488281 -179.257812 205.71875 -194 C 195.957031 -208.738281 181.722656 -216.109375 163.015625 -216.109375 C 144.671875 -216.109375 130.523438 -208.914062 120.578125 -194.53125 C 110.628906 -180.15625 105.65625 -160.769531 105.65625 -136.375 Z M 105.65625 -136.375 "/></g></g></g><g fill="#ffffff" fill-opacity="1"><g transform="translate(338.479094, 1303.029891)"><g><path d="M 153.421875 5.328125 C 125.835938 5.328125 102.015625 -0.5625 81.953125 -12.34375 C 61.890625 -24.125 46.410156 -40.578125 35.515625 -61.703125 C 24.617188 -82.835938 19.171875 -107.375 19.171875 -135.3125 C 19.171875 -163.488281 24.617188 -188.140625 35.515625 -209.265625 C 46.410156 -230.398438 61.890625 -246.859375 81.953125 -258.640625 C 102.015625 -270.421875 125.835938 -276.3125 153.421875 -276.3125 C 181.003906 -276.3125 204.828125 -270.421875 224.890625 -258.640625 C 244.960938 -246.859375 260.441406 -230.398438 271.328125 -209.265625 C 282.222656 -188.140625 287.671875 -163.488281 287.671875 -135.3125 C 287.671875 -107.375 282.222656 -82.835938 271.328125 -61.703125 C 260.441406 -40.578125 244.960938 -24.125 224.890625 -12.34375 C 204.828125 -0.5625 181.003906 5.328125 153.421875 5.328125 Z M 153.78125 -53.28125 C 172.488281 -53.28125 186.664062 -61.09375 196.3125 -76.71875 C 205.957031 -92.34375 210.78125 -112.050781 210.78125 -135.84375 C 210.78125 -159.644531 205.957031 -179.382812 196.3125 -195.0625 C 186.664062 -210.75 172.488281 -218.59375 153.78125 -218.59375 C 134.71875 -218.59375 120.332031 -210.75 110.625 -195.0625 C 100.914062 -179.382812 96.0625 -159.644531 96.0625 -135.84375 C 96.0625 -112.050781 100.914062 -92.34375 110.625 -76.71875 C 120.332031 -61.09375 134.71875 -53.28125 153.78125 -53.28125 Z M 153.78125 -53.28125 "/></g></g></g><g fill="#ffffff" fill-opacity="1"><g transform="translate(624.306478, 1303.029891)"><g><path d="M 153.421875 5.328125 C 125.835938 5.328125 102.015625 -0.5625 81.953125 -12.34375 C 61.890625 -24.125 46.410156 -40.578125 35.515625 -61.703125 C 24.617188 -82.835938 19.171875 -107.375 19.171875 -135.3125 C 19.171875 -163.488281 24.617188 -188.140625 35.515625 -209.265625 C 46.410156 -230.398438 61.890625 -246.859375 81.953125 -258.640625 C 102.015625 -270.421875 125.835938 -276.3125 153.421875 -276.3125 C 181.003906 -276.3125 204.828125 -270.421875 224.890625 -258.640625 C 244.960938 -246.859375 260.441406 -230.398438 271.328125 -209.265625 C 282.222656 -188.140625 287.671875 -163.488281 287.671875 -135.3125 C 287.671875 -107.375 282.222656 -82.835938 271.328125 -61.703125 C 260.441406 -40.578125 244.960938 -24.125 224.890625 -12.34375 C 204.828125 -0.5625 181.003906 5.328125 153.421875 5.328125 Z M 153.78125 -53.28125 C 172.488281 -53.28125 186.664062 -61.09375 196.3125 -76.71875 C 205.957031 -92.34375 210.78125 -112.050781 210.78125 -135.84375 C 210.78125 -159.644531 205.957031 -179.382812 196.3125 -195.0625 C 186.664062 -210.75 172.488281 -218.59375 153.78125 -218.59375 C 134.71875 -218.59375 120.332031 -210.75 110.625 -195.0625 C 100.914062 -179.382812 96.0625 -159.644531 96.0625 -135.84375 C 96.0625 -112.050781 100.914062 -92.34375 110.625 -76.71875 C 120.332031 -61.09375 134.71875 -53.28125 153.78125 -53.28125 Z M 153.78125 -53.28125 "/></g></g></g><g fill="#ffffff" fill-opacity="1"><g transform="translate(910.133826, 1303.029891)"><g><path d="M 30.1875 0 L 30.1875 -363.6875 L 105.84375 -363.6875 L 105.84375 -169.234375 L 109.921875 -169.234375 L 197.296875 -272.765625 L 284.125 -272.765625 L 182.90625 -154.671875 L 289.28125 0 L 200.671875 0 L 126.265625 -109.921875 L 105.84375 -86.65625 L 105.84375 0 Z M 30.1875 0 "/></g></g></g><g fill="#ffffff" fill-opacity="1"><g transform="translate(1179.980372, 1303.029891)"><g><path d="M 30.1875 0 L 30.1875 -272.765625 L 103.53125 -272.765625 L 103.53125 -225.171875 L 106.375 -225.171875 C 111.34375 -242.097656 119.65625 -254.910156 131.3125 -263.609375 C 142.976562 -272.316406 156.503906 -276.671875 171.890625 -276.671875 C 179.234375 -276.671875 186.039062 -275.78125 192.3125 -274 C 198.59375 -272.226562 204.21875 -269.800781 209.1875 -266.71875 L 186.453125 -204.21875 C 182.898438 -205.988281 179.019531 -207.492188 174.8125 -208.734375 C 170.613281 -209.984375 165.910156 -210.609375 160.703125 -210.609375 C 145.429688 -210.609375 132.5 -205.398438 121.90625 -194.984375 C 111.3125 -184.566406 105.957031 -171.007812 105.84375 -154.3125 L 105.84375 0 Z M 30.1875 0 "/></g></g></g><g fill="#ffffff" fill-opacity="1"><g transform="translate(1373.296765, 1303.029891)"><g><path d="M 107.96875 5.15625 C 81.925781 5.15625 60.320312 -1.648438 43.15625 -15.265625 C 25.988281 -28.878906 17.40625 -49.1875 17.40625 -76.1875 C 17.40625 -96.539062 22.195312 -112.519531 31.78125 -124.125 C 41.375 -135.726562 53.953125 -144.222656 69.515625 -149.609375 C 85.085938 -154.992188 101.867188 -158.515625 119.859375 -160.171875 C 143.535156 -162.546875 160.460938 -165.035156 170.640625 -167.640625 C 180.828125 -170.242188 185.921875 -175.925781 185.921875 -184.6875 L 185.921875 -185.75 C 185.921875 -197 182.398438 -205.695312 175.359375 -211.84375 C 168.316406 -218 158.34375 -221.078125 145.4375 -221.078125 C 131.820312 -221.078125 120.988281 -218.117188 112.9375 -212.203125 C 104.882812 -206.285156 99.554688 -198.769531 96.953125 -189.65625 L 26.984375 -195.34375 C 32.203125 -220.195312 45.140625 -239.90625 65.796875 -254.46875 C 86.453125 -269.03125 113.117188 -276.3125 145.796875 -276.3125 C 166.035156 -276.3125 184.972656 -273.113281 202.609375 -266.71875 C 220.253906 -260.332031 234.492188 -250.359375 245.328125 -236.796875 C 256.160156 -223.242188 261.578125 -205.632812 261.578125 -183.96875 L 261.578125 0 L 189.828125 0 L 189.828125 -37.828125 L 187.703125 -37.828125 C 181.066406 -25.160156 171.148438 -14.828125 157.953125 -6.828125 C 144.753906 1.160156 128.09375 5.15625 107.96875 5.15625 Z M 129.625 -47.0625 C 146.207031 -47.0625 159.820312 -51.882812 170.46875 -61.53125 C 181.125 -71.175781 186.453125 -83.160156 186.453125 -97.484375 L 186.453125 -126.4375 C 183.492188 -124.425781 178.90625 -122.648438 172.6875 -121.109375 C 166.476562 -119.566406 159.847656 -118.234375 152.796875 -117.109375 C 145.753906 -115.984375 139.453125 -115.007812 133.890625 -114.1875 C 120.628906 -112.289062 109.941406 -108.5625 101.828125 -103 C 93.722656 -97.4375 89.671875 -89.328125 89.671875 -78.671875 C 89.671875 -68.253906 93.429688 -60.378906 100.953125 -55.046875 C 108.472656 -49.722656 118.03125 -47.0625 129.625 -47.0625 Z M 129.625 -47.0625 "/></g></g></g><g fill="#ffffff" fill-opacity="1"><g transform="translate(1642.433128, 1303.029891)"><g><path d="M 153.421875 5.328125 C 125.484375 5.328125 101.476562 -0.617188 81.40625 -12.515625 C 61.34375 -24.410156 45.953125 -40.953125 35.234375 -62.140625 C 24.523438 -83.335938 19.171875 -107.726562 19.171875 -135.3125 C 19.171875 -163.25 24.585938 -187.785156 35.421875 -208.921875 C 46.253906 -230.054688 61.675781 -246.570312 81.6875 -258.46875 C 101.695312 -270.363281 125.492188 -276.3125 153.078125 -276.3125 C 176.867188 -276.3125 197.734375 -271.988281 215.671875 -263.34375 C 233.609375 -254.707031 247.753906 -242.570312 258.109375 -226.9375 C 268.472656 -211.3125 274.1875 -192.960938 275.25 -171.890625 L 203.859375 -171.890625 C 201.847656 -185.503906 196.550781 -196.484375 187.96875 -204.828125 C 179.382812 -213.179688 168.164062 -217.359375 154.3125 -217.359375 C 136.789062 -217.359375 122.703125 -210.3125 112.046875 -196.21875 C 101.390625 -182.132812 96.0625 -162.1875 96.0625 -136.375 C 96.0625 -110.332031 101.359375 -90.175781 111.953125 -75.90625 C 122.554688 -61.644531 136.675781 -54.515625 154.3125 -54.515625 C 167.332031 -54.515625 178.28125 -58.453125 187.15625 -66.328125 C 196.039062 -74.203125 201.609375 -85.421875 203.859375 -99.984375 L 275.25 -99.984375 C 274.0625 -79.140625 268.40625 -60.785156 258.28125 -44.921875 C 248.164062 -29.054688 234.226562 -16.710938 216.46875 -7.890625 C 198.707031 0.921875 177.691406 5.328125 153.421875 5.328125 Z M 153.421875 5.328125 "/></g></g></g><g fill="#ffffff" fill-opacity="1"><g transform="translate(1915.120689, 1303.029891)"><g><path d="M 74.234375 106.1875 C 63.453125 106.1875 54.242188 105.269531 46.609375 103.4375 C 38.972656 101.601562 33.023438 99.738281 28.765625 97.84375 L 45.8125 39.25 C 59.1875 43.269531 70.460938 44.332031 79.640625 42.4375 C 88.816406 40.539062 96.066406 33.378906 101.390625 20.953125 L 106.375 7.8125 L 8.53125 -272.765625 L 88.078125 -272.765625 L 144.546875 -72.453125 L 147.390625 -72.453125 L 204.390625 -272.765625 L 284.484375 -272.765625 L 177.9375 31.25 C 170.238281 53.03125 157.953125 70.960938 141.078125 85.046875 C 124.210938 99.140625 101.929688 106.1875 74.234375 106.1875 Z M 74.234375 106.1875 "/></g></g></g></svg>