<svg xmlns="http://www.w3.org/2000/svg" xmlns:xlink="http://www.w3.org/1999/xlink" width="3000" zoomAndPan="magnify" viewBox="0 0 2250 2250.000011" height="3000" preserveAspectRatio="xMidYMid meet" version="1.0"><defs><g/><clipPath id="1e2ed6d6cf"><path d="M 0.5 0 L 2249.5 0 L 2249.5 2249 L 0.5 2249 Z M 0.5 0 " clip-rule="nonzero"/></clipPath></defs><g clip-path="url(#1e2ed6d6cf)"><path fill="#ffffff" d="M 0.5 0 L 2249.5 0 L 2249.5 2249 L 0.5 2249 Z M 0.5 0 " fill-opacity="1" fill-rule="nonzero"/><path fill="#ffffff" d="M 0.5 0 L 2249.5 0 L 2249.5 2249 L 0.5 2249 Z M 0.5 0 " fill-opacity="1" fill-rule="nonzero"/></g><g fill="#ffffff" fill-opacity="1"><g transform="translate(16.728429, 1290.299362)"><g><path d="M 32.34375 0 L 32.34375 -372.109375 L 109.734375 -372.109375 L 109.734375 -232.203125 L 112.109375 -232.203125 C 115.617188 -239.828125 120.582031 -247.515625 127 -255.265625 C 133.414062 -263.023438 141.894531 -269.535156 152.4375 -274.796875 C 162.976562 -280.066406 176 -282.703125 191.5 -282.703125 C 211.96875 -282.703125 230.738281 -277.40625 247.8125 -266.8125 C 264.894531 -256.21875 278.613281 -240.289062 288.96875 -219.03125 C 299.332031 -197.769531 304.515625 -171.148438 304.515625 -139.171875 C 304.515625 -108.046875 299.488281 -81.789062 289.4375 -60.40625 C 279.382812 -39.03125 265.816406 -22.859375 248.734375 -11.890625 C 231.648438 -0.929688 212.507812 4.546875 191.3125 4.546875 C 176.300781 4.546875 163.554688 2.0625 153.078125 -2.90625 C 142.597656 -7.875 134.054688 -14.140625 127.453125 -21.703125 C 120.847656 -29.273438 115.734375 -36.941406 112.109375 -44.703125 L 108.65625 -44.703125 L 108.65625 0 Z M 108.109375 -139.53125 C 108.109375 -114.707031 113.222656 -94.753906 123.453125 -79.671875 C 133.691406 -64.585938 148.140625 -57.046875 166.796875 -57.046875 C 185.804688 -57.046875 200.335938 -64.707031 210.390625 -80.03125 C 220.453125 -95.351562 225.484375 -115.1875 225.484375 -139.53125 C 225.484375 -163.757812 220.484375 -183.414062 210.484375 -198.5 C 200.492188 -213.582031 185.929688 -221.125 166.796875 -221.125 C 148.015625 -221.125 133.535156 -213.765625 123.359375 -199.046875 C 113.191406 -184.328125 108.109375 -164.488281 108.109375 -139.53125 Z M 108.109375 -139.53125 "/></g></g></g><g fill="#ffffff" fill-opacity="1"><g transform="translate(320.259303, 1290.299362)"><g><path d="M 156.984375 5.453125 C 128.753906 5.453125 104.375 -0.570312 83.84375 -12.625 C 63.3125 -24.675781 47.472656 -41.507812 36.328125 -63.125 C 25.191406 -84.75 19.625 -109.859375 19.625 -138.453125 C 19.625 -167.273438 25.191406 -192.492188 36.328125 -214.109375 C 47.472656 -235.734375 63.3125 -252.570312 83.84375 -264.625 C 104.375 -276.675781 128.753906 -282.703125 156.984375 -282.703125 C 185.203125 -282.703125 209.578125 -276.675781 230.109375 -264.625 C 250.640625 -252.570312 266.476562 -235.734375 277.625 -214.109375 C 288.769531 -192.492188 294.34375 -167.273438 294.34375 -138.453125 C 294.34375 -109.859375 288.769531 -84.75 277.625 -63.125 C 266.476562 -41.507812 250.640625 -24.675781 230.109375 -12.625 C 209.578125 -0.570312 185.203125 5.453125 156.984375 5.453125 Z M 157.34375 -54.5 C 176.476562 -54.5 190.984375 -62.492188 200.859375 -78.484375 C 210.734375 -94.472656 215.671875 -114.644531 215.671875 -139 C 215.671875 -163.34375 210.734375 -183.535156 200.859375 -199.578125 C 190.984375 -215.628906 176.476562 -223.65625 157.34375 -223.65625 C 137.84375 -223.65625 123.125 -215.628906 113.1875 -199.578125 C 103.257812 -183.535156 98.296875 -163.34375 98.296875 -139 C 98.296875 -114.644531 103.257812 -94.472656 113.1875 -78.484375 C 123.125 -62.492188 137.84375 -54.5 157.34375 -54.5 Z M 157.34375 -54.5 "/></g></g></g><g fill="#ffffff" fill-opacity="1"><g transform="translate(612.707856, 1290.299362)"><g><path d="M 156.984375 5.453125 C 128.753906 5.453125 104.375 -0.570312 83.84375 -12.625 C 63.3125 -24.675781 47.472656 -41.507812 36.328125 -63.125 C 25.191406 -84.75 19.625 -109.859375 19.625 -138.453125 C 19.625 -167.273438 25.191406 -192.492188 36.328125 -214.109375 C 47.472656 -235.734375 63.3125 -252.570312 83.84375 -264.625 C 104.375 -276.675781 128.753906 -282.703125 156.984375 -282.703125 C 185.203125 -282.703125 209.578125 -276.675781 230.109375 -264.625 C 250.640625 -252.570312 266.476562 -235.734375 277.625 -214.109375 C 288.769531 -192.492188 294.34375 -167.273438 294.34375 -138.453125 C 294.34375 -109.859375 288.769531 -84.75 277.625 -63.125 C 266.476562 -41.507812 250.640625 -24.675781 230.109375 -12.625 C 209.578125 -0.570312 185.203125 5.453125 156.984375 5.453125 Z M 157.34375 -54.5 C 176.476562 -54.5 190.984375 -62.492188 200.859375 -78.484375 C 210.734375 -94.472656 215.671875 -114.644531 215.671875 -139 C 215.671875 -163.34375 210.734375 -183.535156 200.859375 -199.578125 C 190.984375 -215.628906 176.476562 -223.65625 157.34375 -223.65625 C 137.84375 -223.65625 123.125 -215.628906 113.1875 -199.578125 C 103.257812 -183.535156 98.296875 -163.34375 98.296875 -139 C 98.296875 -114.644531 103.257812 -94.472656 113.1875 -78.484375 C 123.125 -62.492188 137.84375 -54.5 157.34375 -54.5 Z M 157.34375 -54.5 "/></g></g></g><g fill="#ffffff" fill-opacity="1"><g transform="translate(905.156373, 1290.299362)"><g><path d="M 30.890625 0 L 30.890625 -372.109375 L 108.28125 -372.109375 L 108.28125 -173.15625 L 112.46875 -173.15625 L 201.859375 -279.078125 L 290.703125 -279.078125 L 187.140625 -158.25 L 295.96875 0 L 205.3125 0 L 129.1875 -112.46875 L 108.28125 -88.671875 L 108.28125 0 Z M 30.890625 0 "/></g></g></g><g fill="#ffffff" fill-opacity="1"><g transform="translate(1181.253894, 1290.299362)"><g><path d="M 30.890625 0 L 30.890625 -279.078125 L 105.921875 -279.078125 L 105.921875 -230.390625 L 108.828125 -230.390625 C 113.921875 -247.703125 122.429688 -260.8125 134.359375 -269.71875 C 146.285156 -278.625 160.125 -283.078125 175.875 -283.078125 C 183.382812 -283.078125 190.347656 -282.164062 196.765625 -280.34375 C 203.191406 -278.53125 208.945312 -276.050781 214.03125 -272.90625 L 190.78125 -208.9375 C 187.144531 -210.757812 183.175781 -212.304688 178.875 -213.578125 C 174.570312 -214.847656 169.757812 -215.484375 164.4375 -215.484375 C 148.800781 -215.484375 135.5625 -210.148438 124.71875 -199.484375 C 113.882812 -188.828125 108.40625 -174.960938 108.28125 -157.890625 L 108.28125 0 Z M 30.890625 0 "/></g></g></g><g fill="#ffffff" fill-opacity="1"><g transform="translate(1379.048446, 1290.299362)"><g><path d="M 110.46875 5.265625 C 83.820312 5.265625 61.71875 -1.695312 44.15625 -15.625 C 26.59375 -29.550781 17.8125 -50.320312 17.8125 -77.9375 C 17.8125 -98.78125 22.710938 -115.132812 32.515625 -127 C 42.328125 -138.875 55.195312 -147.566406 71.125 -153.078125 C 87.0625 -158.585938 104.234375 -162.191406 122.640625 -163.890625 C 146.867188 -166.304688 164.191406 -168.847656 174.609375 -171.515625 C 185.023438 -174.179688 190.234375 -179.992188 190.234375 -188.953125 L 190.234375 -190.046875 C 190.234375 -201.554688 186.628906 -210.457031 179.421875 -216.75 C 172.210938 -223.050781 162.003906 -226.203125 148.796875 -226.203125 C 134.867188 -226.203125 123.785156 -223.171875 115.546875 -217.109375 C 107.316406 -211.054688 101.867188 -203.367188 99.203125 -194.046875 L 27.609375 -199.859375 C 32.941406 -225.296875 46.175781 -245.460938 67.3125 -260.359375 C 88.445312 -275.253906 115.734375 -282.703125 149.171875 -282.703125 C 169.878906 -282.703125 189.253906 -279.429688 207.296875 -272.890625 C 225.347656 -266.359375 239.914062 -256.15625 251 -242.28125 C 262.082031 -228.414062 267.625 -210.398438 267.625 -188.234375 L 267.625 0 L 194.234375 0 L 194.234375 -38.703125 L 192.046875 -38.703125 C 185.265625 -25.742188 175.117188 -15.175781 161.609375 -7 C 148.109375 1.175781 131.0625 5.265625 110.46875 5.265625 Z M 132.640625 -48.140625 C 149.597656 -48.140625 163.523438 -53.078125 174.421875 -62.953125 C 185.328125 -72.828125 190.78125 -85.09375 190.78125 -99.75 L 190.78125 -129.359375 C 187.75 -127.304688 183.050781 -125.488281 176.6875 -123.90625 C 170.332031 -122.332031 163.550781 -120.96875 156.34375 -119.8125 C 149.132812 -118.664062 142.6875 -117.671875 137 -116.828125 C 123.425781 -114.890625 112.488281 -111.070312 104.1875 -105.375 C 95.894531 -99.6875 91.75 -91.390625 91.75 -80.484375 C 91.75 -69.828125 95.59375 -61.769531 103.28125 -56.3125 C 110.976562 -50.863281 120.765625 -48.140625 132.640625 -48.140625 Z M 132.640625 -48.140625 "/></g></g></g><g fill="#ffffff" fill-opacity="1"><g transform="translate(1654.419333, 1290.299362)"><g><path d="M 156.984375 5.453125 C 128.398438 5.453125 103.84375 -0.628906 83.3125 -12.796875 C 62.78125 -24.972656 47.03125 -41.898438 36.0625 -63.578125 C 25.101562 -85.265625 19.625 -110.222656 19.625 -138.453125 C 19.625 -167.035156 25.164062 -192.132812 36.25 -213.75 C 47.332031 -235.375 63.109375 -252.269531 83.578125 -264.4375 C 104.046875 -276.613281 128.390625 -282.703125 156.609375 -282.703125 C 180.960938 -282.703125 202.3125 -278.28125 220.65625 -269.4375 C 239.007812 -260.601562 253.484375 -248.191406 264.078125 -232.203125 C 274.679688 -216.210938 280.53125 -197.4375 281.625 -175.875 L 208.578125 -175.875 C 206.515625 -189.800781 201.09375 -201.035156 192.3125 -209.578125 C 183.53125 -218.117188 172.054688 -222.390625 157.890625 -222.390625 C 139.960938 -222.390625 125.546875 -215.179688 114.640625 -200.765625 C 103.742188 -186.347656 98.296875 -165.9375 98.296875 -139.53125 C 98.296875 -112.882812 103.710938 -92.265625 114.546875 -77.671875 C 125.390625 -63.078125 139.835938 -55.78125 157.890625 -55.78125 C 171.210938 -55.78125 182.414062 -59.804688 191.5 -67.859375 C 200.582031 -75.910156 206.273438 -87.390625 208.578125 -102.296875 L 281.625 -102.296875 C 280.40625 -80.972656 274.617188 -62.195312 264.265625 -45.96875 C 253.910156 -29.738281 239.648438 -17.109375 221.484375 -8.078125 C 203.316406 0.941406 181.816406 5.453125 156.984375 5.453125 Z M 156.984375 5.453125 "/></g></g></g><g fill="#ffffff" fill-opacity="1"><g transform="translate(1933.42368, 1290.299362)"><g><path d="M 75.953125 108.65625 C 64.921875 108.65625 55.5 107.710938 47.6875 105.828125 C 39.875 103.953125 33.789062 102.046875 29.4375 100.109375 L 46.875 40.15625 C 60.5625 44.269531 72.097656 45.359375 81.484375 43.421875 C 90.867188 41.484375 98.289062 34.15625 103.75 21.4375 L 108.828125 8 L 8.71875 -279.078125 L 90.125 -279.078125 L 147.890625 -74.125 L 150.796875 -74.125 L 209.125 -279.078125 L 291.0625 -279.078125 L 182.046875 31.984375 C 174.179688 54.265625 161.617188 72.613281 144.359375 87.03125 C 127.097656 101.445312 104.296875 108.65625 75.953125 108.65625 Z M 75.953125 108.65625 "/></g></g></g><g fill="#ffffff" fill-opacity="1"><g transform="translate(27.402308, 1420.822967)"><g><path d="M 16.96875 0 L 8.71875 -59.78125 L 18.375 -59.78125 L 23.65625 -14.015625 L 24.28125 -14.015625 L 44.671875 -59.78125 L 54.484375 -59.78125 L 59.46875 -14.171875 L 60.09375 -14.171875 L 80.640625 -59.78125 L 90.296875 -59.78125 L 62.109375 0 L 53.078125 0 L 47.640625 -45.921875 L 46.703125 -45.921875 L 26 0 Z M 16.96875 0 "/></g></g></g><g fill="#ffffff" fill-opacity="1"><g transform="translate(116.451876, 1420.822967)"><g><path d="M 18.53125 -35.953125 L 12.609375 0 L 3.421875 0 L 16.65625 -79.703125 L 25.84375 -79.703125 L 21.015625 -50.4375 L 21.796875 -50.4375 C 23.660156 -53.550781 26.15625 -56.015625 29.28125 -57.828125 C 32.40625 -59.648438 36.34375 -60.5625 41.09375 -60.5625 C 47.164062 -60.5625 51.769531 -58.722656 54.90625 -55.046875 C 58.050781 -51.378906 59 -45.691406 57.75 -37.984375 L 51.375 0 L 42.1875 0 L 48.421875 -37.359375 C 49.191406 -42.109375 48.554688 -45.785156 46.515625 -48.390625 C 44.484375 -51.003906 41.328125 -52.3125 37.046875 -52.3125 C 32.535156 -52.3125 28.550781 -50.890625 25.09375 -48.046875 C 21.644531 -45.203125 19.457031 -41.171875 18.53125 -35.953125 Z M 18.53125 -35.953125 "/></g></g></g><g fill="#ffffff" fill-opacity="1"><g transform="translate(181.21521, 1420.822967)"><g><path d="M 5.296875 23.1875 C 3.734375 23.1875 2.347656 23.0625 1.140625 22.8125 C -0.0546875 22.570312 -0.851562 22.335938 -1.25 22.109375 L 2.328125 14.015625 C 4.460938 14.578125 6.367188 14.773438 8.046875 14.609375 C 9.734375 14.441406 11.34375 13.679688 12.875 12.328125 C 14.40625 10.984375 15.976562 8.847656 17.59375 5.921875 L 20.859375 0 L 8.71875 -59.78125 L 18.375 -59.78125 L 26.9375 -12.140625 L 27.546875 -12.140625 L 52 -59.78125 L 62.265625 -59.78125 L 25.0625 9.65625 C 20.15625 18.675781 13.566406 23.1875 5.296875 23.1875 Z M 5.296875 23.1875 "/></g></g></g><g fill="#ffffff" fill-opacity="1"><g transform="translate(242.242233, 1420.822967)"><g/></g></g><g fill="#ffffff" fill-opacity="1"><g transform="translate(273.06708, 1420.822967)"><g><path d="M -0.3125 22.421875 L 13.390625 -59.78125 L 22.265625 -59.78125 L 20.703125 -50.28125 L 21.796875 -50.28125 C 22.628906 -51.320312 23.78125 -52.648438 25.25 -54.265625 C 26.726562 -55.890625 28.710938 -57.34375 31.203125 -58.625 C 33.703125 -59.914062 36.894531 -60.5625 40.78125 -60.5625 C 45.820312 -60.5625 50.046875 -59.300781 53.453125 -56.78125 C 56.867188 -54.257812 59.269531 -50.691406 60.65625 -46.078125 C 62.039062 -41.460938 62.210938 -36.015625 61.171875 -29.734375 C 60.140625 -23.398438 58.160156 -17.914062 55.234375 -13.28125 C 52.316406 -8.65625 48.738281 -5.078125 44.5 -2.546875 C 40.257812 -0.015625 35.648438 1.25 30.671875 1.25 C 26.828125 1.25 23.859375 0.609375 21.765625 -0.671875 C 19.679688 -1.960938 18.148438 -3.429688 17.171875 -5.078125 C 16.203125 -6.722656 15.457031 -8.09375 14.9375 -9.1875 L 14.171875 -9.1875 L 8.875 22.421875 Z M 17.4375 -29.890625 C 16.34375 -23.117188 16.914062 -17.609375 19.15625 -13.359375 C 21.40625 -9.117188 25.296875 -7 30.828125 -7 C 34.660156 -7 38.03125 -8.015625 40.9375 -10.046875 C 43.84375 -12.085938 46.226562 -14.835938 48.09375 -18.296875 C 49.96875 -21.765625 51.269531 -25.628906 52 -29.890625 C 52.664062 -34.085938 52.640625 -37.878906 51.921875 -41.265625 C 51.210938 -44.660156 49.738281 -47.347656 47.5 -49.328125 C 45.257812 -51.316406 42.191406 -52.3125 38.296875 -52.3125 C 32.691406 -52.3125 28.082031 -50.25 24.46875 -46.125 C 20.863281 -42 18.519531 -36.585938 17.4375 -29.890625 Z M 17.4375 -29.890625 "/></g></g></g><g fill="#ffffff" fill-opacity="1"><g transform="translate(339.854238, 1420.822967)"><g><path d="M 20.859375 1.40625 C 17.066406 1.40625 13.742188 0.6875 10.890625 -0.75 C 8.035156 -2.195312 5.921875 -4.285156 4.546875 -7.015625 C 3.171875 -9.753906 2.796875 -13.070312 3.421875 -16.96875 C 4.015625 -20.394531 5.164062 -23.175781 6.875 -25.3125 C 8.59375 -27.457031 10.675781 -29.144531 13.125 -30.375 C 15.582031 -31.601562 18.226562 -32.519531 21.0625 -33.125 C 23.90625 -33.738281 26.742188 -34.21875 29.578125 -34.5625 C 33.265625 -35.03125 36.257812 -35.390625 38.5625 -35.640625 C 40.875 -35.898438 42.613281 -36.328125 43.78125 -36.921875 C 44.945312 -37.523438 45.660156 -38.554688 45.921875 -40.015625 L 45.921875 -40.3125 C 46.546875 -44.132812 46.039062 -47.113281 44.40625 -49.25 C 42.769531 -51.394531 39.851562 -52.46875 35.65625 -52.46875 C 31.289062 -52.46875 27.640625 -51.503906 24.703125 -49.578125 C 21.773438 -47.660156 19.613281 -45.613281 18.21875 -43.4375 L 10.125 -46.546875 C 12.25 -50.179688 14.789062 -53.015625 17.75 -55.046875 C 20.707031 -57.085938 23.804688 -58.515625 27.046875 -59.328125 C 30.285156 -60.148438 33.410156 -60.5625 36.421875 -60.5625 C 38.347656 -60.5625 40.515625 -60.332031 42.921875 -59.875 C 45.335938 -59.414062 47.601562 -58.484375 49.71875 -57.078125 C 51.832031 -55.679688 53.425781 -53.566406 54.5 -50.734375 C 55.582031 -47.910156 55.734375 -44.128906 54.953125 -39.390625 L 48.421875 0 L 39.234375 0 L 40.625 -8.09375 L 40.15625 -8.09375 C 39.332031 -6.800781 38.066406 -5.414062 36.359375 -3.9375 C 34.660156 -2.457031 32.519531 -1.195312 29.9375 -0.15625 C 27.363281 0.882812 24.335938 1.40625 20.859375 1.40625 Z M 23.5 -6.84375 C 27.132812 -6.84375 30.320312 -7.554688 33.0625 -8.984375 C 35.800781 -10.410156 38.003906 -12.253906 39.671875 -14.515625 C 41.347656 -16.773438 42.394531 -19.148438 42.8125 -21.640625 L 44.21875 -30.046875 C 43.75 -29.578125 42.828125 -29.15625 41.453125 -28.78125 C 40.078125 -28.40625 38.523438 -28.082031 36.796875 -27.8125 C 35.066406 -27.539062 33.390625 -27.304688 31.765625 -27.109375 C 30.148438 -26.910156 28.847656 -26.75 27.859375 -26.625 C 25.421875 -26.3125 23.101562 -25.8125 20.90625 -25.125 C 18.71875 -24.4375 16.878906 -23.410156 15.390625 -22.046875 C 13.898438 -20.679688 12.972656 -18.832031 12.609375 -16.5 C 12.066406 -13.3125 12.832031 -10.90625 14.90625 -9.28125 C 16.976562 -7.65625 19.84375 -6.84375 23.5 -6.84375 Z M 23.5 -6.84375 "/></g></g></g><g fill="#ffffff" fill-opacity="1"><g transform="translate(401.659601, 1420.822967)"><g><path d="M 5.296875 23.1875 C 3.734375 23.1875 2.347656 23.0625 1.140625 22.8125 C -0.0546875 22.570312 -0.851562 22.335938 -1.25 22.109375 L 2.328125 14.015625 C 4.460938 14.578125 6.367188 14.773438 8.046875 14.609375 C 9.734375 14.441406 11.34375 13.679688 12.875 12.328125 C 14.40625 10.984375 15.976562 8.847656 17.59375 5.921875 L 20.859375 0 L 8.71875 -59.78125 L 18.375 -59.78125 L 26.9375 -12.140625 L 27.546875 -12.140625 L 52 -59.78125 L 62.265625 -59.78125 L 25.0625 9.65625 C 20.15625 18.675781 13.566406 23.1875 5.296875 23.1875 Z M 5.296875 23.1875 "/></g></g></g><g fill="#ffffff" fill-opacity="1"><g transform="translate(462.686624, 1420.822967)"><g/></g></g><g fill="#ffffff" fill-opacity="1"><g transform="translate(493.511472, 1420.822967)"><g><path d="M 40.015625 -59.78125 L 38.765625 -52 L 25.265625 -52 L 16.65625 0 L 7.46875 0 L 16.15625 -52 L 6.53125 -52 L 7.78125 -59.78125 L 17.46875 -59.78125 L 18.84375 -68.03125 C 19.351562 -71.457031 20.597656 -74.3125 22.578125 -76.59375 C 24.566406 -78.875 26.941406 -80.582031 29.703125 -81.71875 C 32.472656 -82.863281 35.285156 -83.4375 38.140625 -83.4375 C 40.398438 -83.4375 42.207031 -83.253906 43.5625 -82.890625 C 44.925781 -82.523438 45.921875 -82.191406 46.546875 -81.890625 L 42.65625 -73.9375 C 42.1875 -74.09375 41.566406 -74.285156 40.796875 -74.515625 C 40.035156 -74.753906 38.992188 -74.875 37.671875 -74.875 C 34.640625 -74.875 32.332031 -74.109375 30.75 -72.578125 C 29.164062 -71.046875 28.097656 -68.800781 27.546875 -65.84375 L 26.546875 -59.78125 Z M 40.015625 -59.78125 "/></g></g></g><g fill="#ffffff" fill-opacity="1"><g transform="translate(533.054495, 1420.822967)"><g><path d="M 28.171875 1.25 C 22.671875 1.25 18.070312 -0.0546875 14.375 -2.671875 C 10.675781 -5.296875 8.0625 -8.96875 6.53125 -13.6875 C 5 -18.414062 4.742188 -23.921875 5.765625 -30.203125 C 6.742188 -36.328125 8.710938 -41.664062 11.671875 -46.21875 C 14.628906 -50.769531 18.300781 -54.296875 22.6875 -56.796875 C 27.070312 -59.304688 31.910156 -60.5625 37.203125 -60.5625 C 42.703125 -60.5625 47.304688 -59.242188 51.015625 -56.609375 C 54.734375 -53.972656 57.351562 -50.285156 58.875 -45.546875 C 60.40625 -40.816406 60.65625 -35.285156 59.625 -28.953125 C 58.632812 -22.878906 56.660156 -17.578125 53.703125 -13.046875 C 50.742188 -8.523438 47.070312 -5.007812 42.6875 -2.5 C 38.300781 0 33.460938 1.25 28.171875 1.25 Z M 28.328125 -7 C 32.535156 -7 36.195312 -8.078125 39.3125 -10.234375 C 42.425781 -12.390625 44.945312 -15.226562 46.875 -18.75 C 48.8125 -22.28125 50.101562 -26.097656 50.75 -30.203125 C 51.375 -34.085938 51.347656 -37.710938 50.671875 -41.078125 C 49.992188 -44.441406 48.550781 -47.15625 46.34375 -49.21875 C 44.144531 -51.28125 41.046875 -52.3125 37.046875 -52.3125 C 32.847656 -52.3125 29.191406 -51.21875 26.078125 -49.03125 C 22.960938 -46.851562 20.441406 -43.988281 18.515625 -40.4375 C 16.597656 -36.882812 15.304688 -33.054688 14.640625 -28.953125 C 14.015625 -25.066406 14.035156 -21.453125 14.703125 -18.109375 C 15.378906 -14.773438 16.820312 -12.085938 19.03125 -10.046875 C 21.238281 -8.015625 24.335938 -7 28.328125 -7 Z M 28.328125 -7 "/></g></g></g><g fill="#ffffff" fill-opacity="1"><g transform="translate(598.440571, 1420.822967)"><g><path d="M 3.421875 0 L 13.390625 -59.78125 L 22.265625 -59.78125 L 20.703125 -50.75 L 21.328125 -50.75 C 22.878906 -53.707031 25.234375 -56.109375 28.390625 -57.953125 C 31.546875 -59.796875 34.953125 -60.71875 38.609375 -60.71875 C 41.773438 -60.71875 44.160156 -59.988281 45.765625 -58.53125 L 41.40625 -50.90625 C 40.320312 -51.53125 38.609375 -51.84375 36.265625 -51.84375 C 33.359375 -51.84375 30.664062 -51.234375 28.1875 -50.015625 C 25.71875 -48.796875 23.648438 -47.132812 21.984375 -45.03125 C 20.328125 -42.925781 19.28125 -40.523438 18.84375 -37.828125 L 12.609375 0 Z M 3.421875 0 "/></g></g></g><g fill="#ffffff" fill-opacity="1"><g transform="translate(640.474492, 1420.822967)"><g/></g></g><g fill="#ffffff" fill-opacity="1"><g transform="translate(671.299339, 1420.822967)"><g><path d="M 3.421875 0 L 16.65625 -79.703125 L 25.84375 -79.703125 L 18.09375 -33.15625 L 19.140625 -33.15625 L 49.8125 -59.78125 L 61.171875 -59.78125 L 31.640625 -34.171875 L 53.078125 0 L 41.40625 0 L 23.78125 -28.375 L 16.34375 -22.421875 L 12.609375 0 Z M 3.421875 0 "/></g></g></g><g fill="#ffffff" fill-opacity="1"><g transform="translate(730.92521, 1420.822967)"><g><path d="M 18.53125 -35.953125 L 12.609375 0 L 3.421875 0 L 13.390625 -59.78125 L 22.265625 -59.78125 L 20.703125 -50.4375 L 21.484375 -50.4375 C 23.347656 -53.46875 25.875 -55.910156 29.0625 -57.765625 C 32.257812 -59.628906 36.113281 -60.5625 40.625 -60.5625 C 46.625 -60.5625 51.1875 -58.703125 54.3125 -54.984375 C 57.4375 -51.273438 58.375 -45.609375 57.125 -37.984375 L 50.75 0 L 41.5625 0 L 47.796875 -37.359375 C 48.566406 -42.023438 47.957031 -45.679688 45.96875 -48.328125 C 43.988281 -50.984375 40.859375 -52.3125 36.578125 -52.3125 C 32.140625 -52.3125 28.253906 -50.890625 24.921875 -48.046875 C 21.585938 -45.203125 19.457031 -41.171875 18.53125 -35.953125 Z M 18.53125 -35.953125 "/></g></g></g><g fill="#ffffff" fill-opacity="1"><g transform="translate(795.065803, 1420.822967)"><g><path d="M 28.171875 1.25 C 22.671875 1.25 18.070312 -0.0546875 14.375 -2.671875 C 10.675781 -5.296875 8.0625 -8.96875 6.53125 -13.6875 C 5 -18.414062 4.742188 -23.921875 5.765625 -30.203125 C 6.742188 -36.328125 8.710938 -41.664062 11.671875 -46.21875 C 14.628906 -50.769531 18.300781 -54.296875 22.6875 -56.796875 C 27.070312 -59.304688 31.910156 -60.5625 37.203125 -60.5625 C 42.703125 -60.5625 47.304688 -59.242188 51.015625 -56.609375 C 54.734375 -53.972656 57.351562 -50.285156 58.875 -45.546875 C 60.40625 -40.816406 60.65625 -35.285156 59.625 -28.953125 C 58.632812 -22.878906 56.660156 -17.578125 53.703125 -13.046875 C 50.742188 -8.523438 47.070312 -5.007812 42.6875 -2.5 C 38.300781 0 33.460938 1.25 28.171875 1.25 Z M 28.328125 -7 C 32.535156 -7 36.195312 -8.078125 39.3125 -10.234375 C 42.425781 -12.390625 44.945312 -15.226562 46.875 -18.75 C 48.8125 -22.28125 50.101562 -26.097656 50.75 -30.203125 C 51.375 -34.085938 51.347656 -37.710938 50.671875 -41.078125 C 49.992188 -44.441406 48.550781 -47.15625 46.34375 -49.21875 C 44.144531 -51.28125 41.046875 -52.3125 37.046875 -52.3125 C 32.847656 -52.3125 29.191406 -51.21875 26.078125 -49.03125 C 22.960938 -46.851562 20.441406 -43.988281 18.515625 -40.4375 C 16.597656 -36.882812 15.304688 -33.054688 14.640625 -28.953125 C 14.015625 -25.066406 14.035156 -21.453125 14.703125 -18.109375 C 15.378906 -14.773438 16.820312 -12.085938 19.03125 -10.046875 C 21.238281 -8.015625 24.335938 -7 28.328125 -7 Z M 28.328125 -7 "/></g></g></g><g fill="#ffffff" fill-opacity="1"><g transform="translate(860.451878, 1420.822967)"><g><path d="M 16.96875 0 L 8.71875 -59.78125 L 18.375 -59.78125 L 23.65625 -14.015625 L 24.28125 -14.015625 L 44.671875 -59.78125 L 54.484375 -59.78125 L 59.46875 -14.171875 L 60.09375 -14.171875 L 80.640625 -59.78125 L 90.296875 -59.78125 L 62.109375 0 L 53.078125 0 L 47.640625 -45.921875 L 46.703125 -45.921875 L 26 0 Z M 16.96875 0 "/></g></g></g><g fill="#ffffff" fill-opacity="1"><g transform="translate(949.501446, 1420.822967)"><g><path d="M 25.84375 -79.703125 L 12.609375 0 L 3.421875 0 L 16.65625 -79.703125 Z M 25.84375 -79.703125 "/></g></g></g><g fill="#ffffff" fill-opacity="1"><g transform="translate(975.500167, 1420.822967)"><g><path d="M 28.328125 1.25 C 22.597656 1.25 17.863281 -0.0234375 14.125 -2.578125 C 10.382812 -5.140625 7.773438 -8.722656 6.296875 -13.328125 C 4.828125 -17.929688 4.597656 -23.296875 5.609375 -29.421875 C 6.617188 -35.546875 8.628906 -40.945312 11.640625 -45.625 C 14.648438 -50.3125 18.394531 -53.972656 22.875 -56.609375 C 27.363281 -59.242188 32.296875 -60.5625 37.671875 -60.5625 C 40.785156 -60.5625 43.78125 -60.039062 46.65625 -59 C 49.539062 -57.957031 52.03125 -56.273438 54.125 -53.953125 C 56.226562 -51.640625 57.695312 -48.570312 58.53125 -44.75 C 59.363281 -40.9375 59.3125 -36.242188 58.375 -30.671875 L 57.75 -26.78125 L 14.28125 -26.78125 C 13.164062 -19.457031 14.019531 -14.328125 16.84375 -11.390625 C 19.675781 -8.460938 23.972656 -7 29.734375 -7 C 33.421875 -7 36.671875 -7.773438 39.484375 -9.328125 C 42.296875 -10.890625 44.546875 -13.226562 46.234375 -16.34375 L 54.640625 -13.859375 C 52.484375 -9.335938 49.082031 -5.6875 44.4375 -2.90625 C 39.800781 -0.132812 34.429688 1.25 28.328125 1.25 Z M 15.5625 -34.71875 L 49.65625 -34.71875 C 50.539062 -39.769531 49.78125 -43.960938 47.375 -47.296875 C 44.976562 -50.640625 41.273438 -52.3125 36.265625 -52.3125 C 32.921875 -52.3125 29.789062 -51.429688 26.875 -49.671875 C 23.957031 -47.921875 21.492188 -45.695312 19.484375 -43 C 17.472656 -40.300781 16.164062 -37.539062 15.5625 -34.71875 Z M 15.5625 -34.71875 "/></g></g></g><g fill="#ffffff" fill-opacity="1"><g transform="translate(1039.485091, 1420.822967)"><g><path d="M 26 1.25 C 20.988281 1.25 16.785156 -0.015625 13.390625 -2.546875 C 9.992188 -5.078125 7.597656 -8.65625 6.203125 -13.28125 C 4.816406 -17.914062 4.644531 -23.398438 5.6875 -29.734375 C 6.75 -36.015625 8.738281 -41.460938 11.65625 -46.078125 C 14.570312 -50.691406 18.15625 -54.257812 22.40625 -56.78125 C 26.664062 -59.300781 31.3125 -60.5625 36.34375 -60.5625 C 40.238281 -60.5625 43.21875 -59.914062 45.28125 -58.625 C 47.34375 -57.34375 48.835938 -55.890625 49.765625 -54.265625 C 50.703125 -52.648438 51.421875 -51.320312 51.921875 -50.28125 L 52.703125 -50.28125 L 57.59375 -79.703125 L 66.78125 -79.703125 L 53.546875 0 L 44.671875 0 L 46.234375 -9.1875 L 45.140625 -9.1875 C 44.285156 -8.09375 43.09375 -6.722656 41.5625 -5.078125 C 40.03125 -3.429688 38.007812 -1.960938 35.5 -0.671875 C 33 0.609375 29.832031 1.25 26 1.25 Z M 28.25 -7 C 33.78125 -7 38.425781 -9.117188 42.1875 -13.359375 C 45.945312 -17.609375 48.382812 -23.117188 49.5 -29.890625 C 50.613281 -36.585938 50.003906 -42 47.671875 -46.125 C 45.335938 -50.25 41.359375 -52.3125 35.734375 -52.3125 C 31.859375 -52.3125 28.492188 -51.316406 25.640625 -49.328125 C 22.785156 -47.347656 20.460938 -44.660156 18.671875 -41.265625 C 16.890625 -37.878906 15.644531 -34.085938 14.9375 -29.890625 C 14.238281 -25.628906 14.226562 -21.765625 14.90625 -18.296875 C 15.582031 -14.835938 17.015625 -12.085938 19.203125 -10.046875 C 21.398438 -8.015625 24.414062 -7 28.25 -7 Z M 28.25 -7 "/></g></g></g><g fill="#ffffff" fill-opacity="1"><g transform="translate(1107.6734, 1420.822967)"><g><path d="M 23.8125 23.65625 C 19.351562 23.65625 15.617188 23.09375 12.609375 21.96875 C 9.597656 20.84375 7.179688 19.363281 5.359375 17.53125 C 3.546875 15.695312 2.175781 13.742188 1.25 11.671875 L 9.5 6.53125 C 10.125 7.625 10.925781 8.878906 11.90625 10.296875 C 12.894531 11.710938 14.394531 12.941406 16.40625 13.984375 C 18.414062 15.035156 21.25 15.5625 24.90625 15.5625 C 29.707031 15.5625 33.910156 14.394531 37.515625 12.0625 C 41.117188 9.726562 43.351562 6.070312 44.21875 1.09375 L 46.078125 -11.046875 L 45.296875 -11.046875 C 44.472656 -9.960938 43.320312 -8.617188 41.84375 -7.015625 C 40.363281 -5.421875 38.375 -4.007812 35.875 -2.78125 C 33.382812 -1.550781 30.195312 -0.9375 26.3125 -0.9375 C 21.457031 -0.9375 17.300781 -2.078125 13.84375 -4.359375 C 10.394531 -6.640625 7.925781 -9.957031 6.4375 -14.3125 C 4.945312 -18.675781 4.722656 -23.972656 5.765625 -30.203125 C 6.773438 -36.328125 8.722656 -41.664062 11.609375 -46.21875 C 14.503906 -50.769531 18.078125 -54.296875 22.328125 -56.796875 C 26.585938 -59.304688 31.234375 -60.5625 36.265625 -60.5625 C 40.160156 -60.5625 43.148438 -59.914062 45.234375 -58.625 C 47.328125 -57.34375 48.851562 -55.890625 49.8125 -54.265625 C 50.769531 -52.648438 51.5 -51.320312 52 -50.28125 L 52.921875 -50.28125 L 54.484375 -59.78125 L 63.359375 -59.78125 L 53.234375 1.71875 C 52.378906 6.851562 50.523438 11.035156 47.671875 14.265625 C 44.816406 17.492188 41.3125 19.863281 37.15625 21.375 C 33.007812 22.894531 28.5625 23.65625 23.8125 23.65625 Z M 28.640625 -9.1875 C 34.140625 -9.1875 38.71875 -11.0625 42.375 -14.8125 C 46.039062 -18.5625 48.414062 -23.742188 49.5 -30.359375 C 50.5625 -36.816406 49.910156 -42.085938 47.546875 -46.171875 C 45.191406 -50.265625 41.226562 -52.3125 35.65625 -52.3125 C 31.726562 -52.3125 28.34375 -51.320312 25.5 -49.34375 C 22.664062 -47.375 20.363281 -44.726562 18.59375 -41.40625 C 16.832031 -38.082031 15.613281 -34.398438 14.9375 -30.359375 C 13.90625 -24.128906 14.484375 -19.039062 16.671875 -15.09375 C 18.867188 -11.15625 22.859375 -9.1875 28.640625 -9.1875 Z M 28.640625 -9.1875 "/></g></g></g><g fill="#ffffff" fill-opacity="1"><g transform="translate(1174.460558, 1420.822967)"><g><path d="M 28.328125 1.25 C 22.597656 1.25 17.863281 -0.0234375 14.125 -2.578125 C 10.382812 -5.140625 7.773438 -8.722656 6.296875 -13.328125 C 4.828125 -17.929688 4.597656 -23.296875 5.609375 -29.421875 C 6.617188 -35.546875 8.628906 -40.945312 11.640625 -45.625 C 14.648438 -50.3125 18.394531 -53.972656 22.875 -56.609375 C 27.363281 -59.242188 32.296875 -60.5625 37.671875 -60.5625 C 40.785156 -60.5625 43.78125 -60.039062 46.65625 -59 C 49.539062 -57.957031 52.03125 -56.273438 54.125 -53.953125 C 56.226562 -51.640625 57.695312 -48.570312 58.53125 -44.75 C 59.363281 -40.9375 59.3125 -36.242188 58.375 -30.671875 L 57.75 -26.78125 L 14.28125 -26.78125 C 13.164062 -19.457031 14.019531 -14.328125 16.84375 -11.390625 C 19.675781 -8.460938 23.972656 -7 29.734375 -7 C 33.421875 -7 36.671875 -7.773438 39.484375 -9.328125 C 42.296875 -10.890625 44.546875 -13.226562 46.234375 -16.34375 L 54.640625 -13.859375 C 52.484375 -9.335938 49.082031 -5.6875 44.4375 -2.90625 C 39.800781 -0.132812 34.429688 1.25 28.328125 1.25 Z M 15.5625 -34.71875 L 49.65625 -34.71875 C 50.539062 -39.769531 49.78125 -43.960938 47.375 -47.296875 C 44.976562 -50.640625 41.273438 -52.3125 36.265625 -52.3125 C 32.921875 -52.3125 29.789062 -51.429688 26.875 -49.671875 C 23.957031 -47.921875 21.492188 -45.695312 19.484375 -43 C 17.472656 -40.300781 16.164062 -37.539062 15.5625 -34.71875 Z M 15.5625 -34.71875 "/></g></g></g><g fill="#ffffff" fill-opacity="1"><g transform="translate(1238.445482, 1420.822967)"><g><path d="M 19.140625 -22.421875 L 19.296875 -23.34375 C 20.160156 -28.195312 21.335938 -32.0625 22.828125 -34.9375 C 24.316406 -37.820312 26.117188 -40.148438 28.234375 -41.921875 C 30.347656 -43.703125 32.769531 -45.347656 35.5 -46.859375 C 37.988281 -48.253906 40.203125 -50.054688 42.140625 -52.265625 C 44.085938 -54.472656 45.296875 -57.132812 45.765625 -60.25 C 46.390625 -64.0625 45.617188 -67.085938 43.453125 -69.328125 C 41.285156 -71.578125 38.375 -72.703125 34.71875 -72.703125 C 32.59375 -72.703125 30.457031 -72.257812 28.3125 -71.375 C 26.175781 -70.488281 24.28125 -69.097656 22.625 -67.203125 C 20.976562 -65.316406 19.816406 -62.84375 19.140625 -59.78125 L 9.34375 -59.78125 C 10.269531 -64.1875 12.035156 -67.957031 14.640625 -71.09375 C 17.253906 -74.238281 20.410156 -76.640625 24.109375 -78.296875 C 27.804688 -79.960938 31.753906 -80.796875 35.953125 -80.796875 C 40.523438 -80.796875 44.351562 -79.882812 47.4375 -78.0625 C 50.53125 -76.25 52.75 -73.757812 54.09375 -70.59375 C 55.445312 -67.425781 55.785156 -63.820312 55.109375 -59.78125 C 54.410156 -55.5 52.832031 -51.820312 50.375 -48.75 C 47.925781 -45.675781 44.832031 -43.125 41.09375 -41.09375 C 37.363281 -38.988281 34.566406 -36.671875 32.703125 -34.140625 C 30.847656 -31.617188 29.492188 -28.019531 28.640625 -23.34375 L 28.484375 -22.421875 Z M 21.484375 0.625 C 19.515625 0.625 17.867188 -0.0546875 16.546875 -1.421875 C 15.222656 -2.785156 14.535156 -4.4375 14.484375 -6.375 C 14.453125 -8.320312 15.132812 -9.953125 16.53125 -11.265625 C 17.9375 -12.578125 19.585938 -13.234375 21.484375 -13.234375 C 23.398438 -13.234375 25.054688 -12.554688 26.453125 -11.203125 C 27.859375 -9.859375 28.535156 -8.25 28.484375 -6.375 C 28.460938 -4.4375 27.769531 -2.785156 26.40625 -1.421875 C 25.039062 -0.0546875 23.398438 0.625 21.484375 0.625 Z M 21.484375 0.625 "/></g></g></g></svg>