<svg width="2333.25" height="669" xmlns="http://www.w3.org/2000/svg" version="1.0"><defs><clipPath id="a"><path d="M307.56 511.8h98.85V643h-98.85zm0 0"/></clipPath></defs><g class="layer"><path d="M113.88 29.59H26.97c-12.67 0-23.54 10.86-23.54 23.54v563.98c0 12.68 10.87 23.54 23.54 23.54h86.91c12.67 0 23.53-10.86 23.53-23.54V54.04c0-13.59-10.86-24.45-23.53-24.45m7.24 95.05H19.73v-15.39h101.39zm141.22-95.05h-86.91c-12.67 0-23.53 10.86-23.53 23.54v563.98c0 12.68 10.86 23.54 23.53 23.54h86.91c12.68 0 23.54-10.86 23.54-23.54V54.04c0-13.59-10.86-24.45-23.54-24.45m7.24 95.05H168.19v-15.39h101.39zm300.55 464.41L425.29 44.07C421.67 31.4 409 24.16 396.32 26.88l-84.19 22.63c-12.67 3.62-19.92 16.29-17.2 28.97l144.84 544.97c3.62 12.68 16.3 19.92 28.97 17.2l84.19-22.63c12.68-3.62 19.92-16.3 17.2-28.97m-240.8-446.3-3.62-14.48 97.77-26.26 3.62 14.49zm0 0" fill="#8b5cf6"/><path d="M710.094 459.587v-256.31h53.31v96.37h1.63c2.41-5.26 5.83-10.55 10.25-15.89s10.27-9.83 17.53-13.45c7.26-3.63 16.23-5.45 26.91-5.45q21.15 0 38.79 10.95c11.76 7.3 21.21 18.28 28.35 32.92 7.13 14.64 10.7 32.97 10.7 55 0 21.44-3.46 39.52-10.39 54.25s-16.27 25.87-28.03 33.42-24.95 11.32-39.55 11.32c-10.34 0-19.12-1.72-26.34-5.13-7.22-3.43-13.11-7.74-17.66-12.95-4.54-5.22-8.06-10.5-10.56-15.83h-2.38v30.78zm52.19-96.11c0 17.11 3.52 30.85 10.56 41.23 7.05 10.39 17.01 15.58 29.86 15.58 13.09 0 23.1-5.27 30.03-15.83 6.93-10.55 10.39-24.21 10.39-40.98 0-16.69-3.44-30.22-10.33-40.61-6.88-10.39-16.91-15.59-30.09-15.59-12.94 0-22.91 5.07-29.92 15.22q-10.5 15.195-10.5 40.98m242.729 99.86c-19.44 0-36.24-4.15-50.38-12.45s-25.04-19.9-32.72-34.78c-7.68-14.9-11.51-32.19-11.51-51.88 0-19.86 3.83-37.24 11.51-52.12 7.68-14.9 18.58-26.5 32.72-34.8s30.94-12.45 50.38-12.45q29.16 0 50.37 12.45t32.73 34.8c7.68 14.88 11.52 32.26 11.52 52.12 0 19.69-3.84 36.98-11.52 51.88-7.68 14.88-18.59 26.48-32.73 34.78q-21.21 12.45-50.37 12.45m.25-41.3c13.18 0 23.17-5.5 29.96-16.51 6.8-11.01 10.21-24.9 10.21-41.67s-3.41-30.68-10.21-41.74c-6.79-11.06-16.78-16.59-29.96-16.59-13.43 0-23.57 5.53-30.41 16.59s-10.27 24.97-10.27 41.74 3.43 30.66 10.27 41.67 16.98 16.51 30.41 16.51m201.187 41.3c-19.44 0-36.24-4.15-50.38-12.45s-25.04-19.9-32.72-34.78c-7.68-14.9-11.51-32.19-11.51-51.88 0-19.86 3.83-37.24 11.51-52.12 7.68-14.9 18.58-26.5 32.72-34.8s30.94-12.45 50.38-12.45q29.16 0 50.37 12.45t32.73 34.8c7.68 14.88 11.52 32.26 11.52 52.12 0 19.69-3.84 36.98-11.52 51.88-7.68 14.88-18.59 26.48-32.73 34.78q-21.21 12.45-50.37 12.45m.25-41.3c13.18 0 23.17-5.5 29.96-16.51 6.8-11.01 10.21-24.9 10.21-41.67s-3.41-30.68-10.21-41.74c-6.79-11.06-16.78-16.59-29.96-16.59-13.43 0-23.57 5.53-30.41 16.59s-10.27 24.97-10.27 41.74 3.43 30.66 10.27 41.67 16.98 16.51 30.41 16.51m114.336 37.55v-256.31h53.31v137.04h2.88l61.58-72.96h61.18l-71.32 83.23 74.97 109h-62.46l-52.44-77.47-14.39 16.39v61.08zm190.174 0v-192.23h51.69v33.54h2q5.25-17.91 17.58-27.09c8.22-6.13 17.75-9.2 28.59-9.2 5.18 0 9.97.62 14.39 1.87 4.43 1.25 8.39 2.97 11.89 5.14l-16.01 44.05c-2.5-1.25-5.24-2.31-8.21-3.19-2.96-.87-6.27-1.31-9.93-1.31-10.78 0-19.89 3.67-27.36 11.01-7.46 7.34-11.23 16.89-11.32 28.66v108.75zm191.048 3.63c-18.35 0-33.58-4.8-45.68-14.4-12.1-9.59-18.14-23.89-18.14-42.92 0-14.35 3.37-25.61 10.12-33.79 6.76-8.18 15.63-14.16 26.59-17.96 10.98-3.8 22.81-6.28 35.49-7.45 16.69-1.66 28.62-3.41 35.8-5.25 7.17-1.83 10.76-5.84 10.76-12.02v-.75c0-7.92-2.48-14.05-7.45-18.39-4.96-4.34-11.99-6.51-21.08-6.51-9.59 0-17.23 2.09-22.91 6.26s-9.43 9.47-11.26 15.89l-49.31-4.01c3.67-17.52 12.78-31.41 27.34-41.67s33.36-15.39 56.39-15.39c14.27 0 27.62 2.25 40.05 6.76 12.42 4.5 22.45 11.53 30.09 21.08 7.63 9.55 11.45 21.96 11.45 37.23v129.66h-50.56v-26.66h-1.5c-4.67 8.93-11.65 16.21-20.97 21.85-9.3 5.62-21.04 8.44-35.22 8.44m15.27-36.8c11.68 0 21.27-3.4 28.78-10.19 7.51-6.8 11.27-15.25 11.27-25.34v-20.41c-2.09 1.42-5.32 2.67-9.71 3.77-4.37 1.08-9.04 2.02-14.01 2.81-4.96.79-9.4 1.48-13.33 2.06-9.34 1.34-16.88 3.97-22.59 7.89-5.72 3.92-8.57 9.63-8.57 17.14 0 7.35 2.65 12.89 7.94 16.64 5.3 3.75 12.04 5.63 20.22 5.63m206.444 36.92c-19.69 0-36.61-4.19-50.75-12.58-14.14-8.38-24.99-20.04-32.54-34.97s-11.32-32.12-11.32-51.56c0-19.69 3.81-36.99 11.45-51.87 7.63-14.9 18.5-26.54 32.59-34.93 14.1-8.38 30.88-12.57 50.32-12.57 16.76 0 31.47 3.04 44.1 9.14 12.65 6.08 22.62 14.63 29.93 25.65 7.3 11.01 11.32 23.95 12.07 38.8h-50.31c-1.42-9.59-5.15-17.33-11.2-23.22-6.06-5.88-13.96-8.83-23.72-8.83-12.34 0-22.27 4.97-29.78 14.91-7.51 9.93-11.27 23.98-11.27 42.17 0 18.36 3.74 32.56 11.21 42.61s17.41 15.08 29.84 15.08c9.18 0 16.89-2.77 23.16-8.31 6.25-5.56 10.18-13.46 11.76-23.72h50.31c-.83 14.68-4.82 27.61-11.95 38.79-7.14 11.18-16.96 19.88-29.48 26.1-12.51 6.2-27.32 9.31-44.42 9.31m136.355 71.09q-11.385 0-19.47-1.95c-5.37-1.29-9.56-2.6-12.56-3.94l12-41.29c9.44 2.83 17.38 3.58 23.85 2.25 6.46-1.34 11.57-6.39 15.32-15.14l3.52-9.27-68.97-197.73h56.08l39.8 141.17h2l40.17-141.17h56.43l-75.07 214.26c-5.43 15.35-14.09 27.98-25.99 37.91-11.88 9.94-27.59 14.9-47.11 14.9M722.556 573.29l-8.39-60.8h9.83l5.37 46.55h.64l20.74-46.55h9.97l5.06 46.39h.64l20.89-46.39h9.83l-28.66 60.8h-9.19l-5.54-46.7h-.94l-21.06 46.7zm88.024-36.58-6.01 36.58h-9.35l13.46-81.06h9.34l-4.9 29.76h.78c1.9-3.16 4.44-5.67 7.62-7.51 3.18-1.85 7.18-2.77 12.02-2.77 6.17 0 10.86 1.87 14.04 5.6 3.2 3.73 4.16 9.51 2.89 17.35l-6.48 38.63h-9.34l6.32-38c.79-4.82.15-8.55-1.92-11.2-2.07-2.66-5.29-3.99-9.64-3.99-4.58 0-8.63 1.45-12.14 4.33-3.51 2.89-5.74 6.98-6.69 12.28m48.275 60.17c-1.58 0-2.98-.12-4.21-.37-1.22-.25-2.04-.5-2.44-.74l3.65-8.23c2.16.58 4.1.79 5.81.61 1.72-.17 3.35-.94 4.9-2.31 1.57-1.38 3.16-3.56 4.8-6.53l3.33-6.02-12.36-60.8h9.83l8.7 48.46h.63l24.86-48.46h10.45l-37.85 70.61c-4.98 9.19-11.68 13.78-20.1 13.78m0 0"/><g transform="translate(911.41 573.29)" fill="#fff"/><path d="m938.323 596.09 13.92-83.6h9.03l-1.58 9.66h1.1c.85-1.05 2.03-2.4 3.53-4.05s3.51-3.13 6.04-4.44q3.81-1.95 9.75-1.95c5.12 0 9.41 1.28 12.88 3.85 3.47 2.55 5.91 6.18 7.31 10.87 1.42 4.7 1.6 10.24.55 16.63-1.06 6.43-3.06 12.01-6.03 16.71-2.97 4.72-6.62 8.36-10.94 10.93-4.31 2.57-9 3.86-14.06 3.86-3.91 0-6.92-.66-9.05-1.96-2.12-1.31-3.68-2.8-4.67-4.47s-1.75-3.07-2.27-4.18h-.79l-5.38 32.14zm18.04-53.19c-1.11 6.89-.53 12.48 1.75 16.8 2.29 4.31 6.25 6.46 11.86 6.46 3.91 0 7.34-1.03 10.29-3.1s5.38-4.87 7.28-8.4c1.9-3.51 3.22-7.44 3.97-11.76.68-4.28.66-8.14-.07-11.58-.72-3.44-2.22-6.17-4.51-8.19-2.28-2.02-5.41-3.03-9.36-3.03-5.7 0-10.39 2.1-14.05 6.3-3.67 4.19-6.05 9.69-7.16 16.5m67.284 31.81q-5.79 0-10.14-2.19c-2.9-1.46-5.05-3.59-6.45-6.37s-1.78-6.15-1.15-10.11c.61-3.49 1.78-6.32 3.52-8.5 1.75-2.18 3.87-3.89 6.36-5.14s5.18-2.18 8.06-2.8c2.9-.62 5.78-1.11 8.66-1.45 3.75-.48 6.8-.85 9.14-1.11 2.35-.27 4.12-.71 5.31-1.31s1.91-1.65 2.17-3.13v-.31c.64-3.88.12-6.91-1.54-9.09q-2.49-3.27-8.91-3.27c-4.43 0-8.14.98-11.12 2.94-2.99 1.95-5.19 4.03-6.61 6.25l-8.22-3.16c2.15-3.69 4.74-6.58 7.75-8.65 3-2.07 6.16-3.52 9.45-4.35 3.3-.83 6.48-1.25 9.55-1.25 1.94 0 4.14.23 6.59.69 2.46.46 4.76 1.4 6.91 2.83s3.78 3.58 4.87 6.45c1.1 2.88 1.26 6.73.47 11.56l-6.66 40.05h-9.34l1.42-8.23h-.47c-.84 1.32-2.13 2.74-3.86 4.25-1.73 1.5-3.9 2.77-6.53 3.82-2.62 1.05-5.7 1.58-9.23 1.58m2.69-8.39c3.69 0 6.93-.72 9.72-2.17 2.78-1.45 5.01-3.32 6.71-5.61 1.71-2.3 2.77-4.72 3.19-7.25l1.44-8.55c-.48.47-1.42.9-2.83 1.28-1.4.39-2.97.72-4.72 1s-3.45.51-5.11.71l-3.97.48c-2.48.33-4.84.84-7.07 1.53-2.23.7-4.11 1.75-5.63 3.13-1.51 1.38-2.45 3.26-2.81 5.64-.56 3.25.22 5.7 2.33 7.34 2.11 1.65 5.03 2.47 8.75 2.47m40.197 30.56c-1.58 0-2.98-.12-4.21-.37-1.22-.25-2.04-.5-2.44-.74l3.65-8.23c2.16.58 4.1.79 5.81.61 1.72-.17 3.35-.94 4.9-2.31 1.57-1.38 3.16-3.56 4.8-6.53l3.33-6.02-12.36-60.8h9.83l8.7 48.46h.63l24.86-48.46h10.45l-37.85 70.61c-4.98 9.19-11.68 13.78-20.1 13.78m0 0"/><g transform="translate(1119.09 573.29)" fill="#fff"/><path d="m1187.003 512.49-1.27 7.92h-13.73l-8.75 52.88h-9.35l8.83-52.88h-9.76l1.26-7.92h9.85l1.39-8.39c.53-3.47 1.8-6.38 3.81-8.7 2.02-2.32 4.44-4.06 7.25-5.22s5.66-1.75 8.56-1.75c2.3 0 4.15.19 5.53.56 1.39.37 2.39.71 3.02 1.03l-3.95 8.07c-.47-.16-1.1-.35-1.88-.6-.78-.24-1.84-.36-3.19-.36-3.08 0-5.43.78-7.04 2.35-1.61 1.55-2.69 3.83-3.25 6.84l-1.02 6.17zm24.058 62.07c-5.6 0-10.28-1.34-14.03-4-3.77-2.67-6.43-6.4-7.99-11.21-1.55-4.8-1.81-10.39-.78-16.78 1-6.22 3-11.64 6.02-16.28 3-4.63 6.74-8.22 11.2-10.77 4.46-2.53 9.38-3.81 14.76-3.81 5.6 0 10.28 1.34 14.05 4.02s6.43 6.42 7.99 11.23 1.81 10.44.76 16.88q-1.515 9.27-6.03 16.17c-3 4.6-6.73 8.18-11.19 10.73s-9.38 3.82-14.76 3.82m.15-8.4c4.27 0 7.99-1.09 11.16-3.28 3.16-2.18 5.73-5.07 7.7-8.65 1.97-3.6 3.28-7.48 3.94-11.66.63-3.96.61-7.64-.08-11.06s-2.15-6.17-4.39-8.27c-2.24-2.09-5.4-3.14-9.47-3.14-4.27 0-7.99 1.11-11.15 3.33-3.17 2.21-5.73 5.12-7.69 8.73-1.95 3.62-3.27 7.51-3.95 11.68-.63 3.96-.61 7.63.07 11.03.69 3.38 2.15 6.12 4.39 8.19 2.25 2.07 5.41 3.1 9.47 3.1m37.039 7.13 10.13-60.8h9.03l-1.58 9.19h.63c1.58-3.01 3.97-5.45 7.19-7.33 3.2-1.87 6.67-2.81 10.39-2.81 3.21 0 5.64.74 7.28 2.22l-4.44 7.76c-1.11-.63-2.84-.95-5.22-.95q-4.44 0-8.22 1.86c-2.52 1.24-4.62 2.93-6.31 5.06-1.69 2.14-2.76 4.58-3.2 7.33l-6.33 38.47zm0 0"/><g transform="translate(1283.391 573.29)" fill="#fff"/><path d="m1314.094 573.29 13.46-81.06h9.34l-7.87 47.34h1.06l31.19-27.08h11.56l-30.05 26.05 21.81 34.75h-11.87l-17.92-28.86-7.56 6.06-3.8 22.8zm71.871-36.58-6.01 36.58h-9.35l10.13-60.8h9.03l-1.58 9.5h.78c1.91-3.08 4.48-5.56 7.72-7.45 3.25-1.88 7.17-2.83 11.75-2.83 6.1 0 10.74 1.89 13.92 5.66s4.13 9.54 2.86 17.29l-6.48 38.63h-9.34l6.34-38c.79-4.75.18-8.47-1.84-11.16-2.03-2.68-5.22-4.03-9.57-4.03-4.51 0-8.46 1.45-11.86 4.33-3.38 2.89-5.55 6.98-6.5 12.28m70.922 37.85c-5.6 0-10.28-1.34-14.03-4-3.77-2.67-6.43-6.4-7.99-11.21-1.55-4.8-1.81-10.39-.78-16.78 1-6.22 3-11.64 6.02-16.28 3-4.63 6.74-8.22 11.2-10.77 4.46-2.53 9.38-3.81 14.76-3.81 5.6 0 10.28 1.34 14.05 4.02s6.43 6.42 7.99 11.23 1.81 10.44.76 16.88q-1.515 9.27-6.03 16.17c-3 4.6-6.73 8.18-11.19 10.73s-9.38 3.82-14.76 3.82m.15-8.4c4.27 0 7.99-1.09 11.16-3.28 3.16-2.18 5.73-5.07 7.7-8.65 1.97-3.6 3.28-7.48 3.94-11.66.63-3.96.61-7.64-.08-11.06s-2.15-6.17-4.39-8.27c-2.24-2.09-5.4-3.14-9.47-3.14-4.27 0-7.99 1.11-11.15 3.33-3.17 2.21-5.73 5.12-7.69 8.73-1.95 3.62-3.27 7.51-3.95 11.68-.63 3.96-.61 7.63.07 11.03.69 3.38 2.15 6.12 4.39 8.19 2.25 2.07 5.41 3.1 9.47 3.1m50.809 7.13-8.39-60.8h9.83l5.37 46.55h.64l20.74-46.55h9.97l5.06 46.39h.64l20.89-46.39h9.83l-28.66 60.8h-9.19l-5.54-46.7h-.94l-21.06 46.7zm95.463-81.06-13.45 81.06h-9.35l13.46-81.06zm24.844 82.33c-5.83 0-10.65-1.3-14.45-3.9-3.79-2.6-6.45-6.24-7.95-10.92s-1.74-10.14-.71-16.37 3.07-11.72 6.13-16.49c3.06-4.75 6.87-8.47 11.44-11.15s9.58-4.02 15.04-4.02c3.17 0 6.21.53 9.14 1.58s5.46 2.76 7.6 5.12c2.14 2.37 3.64 5.49 4.48 9.36.85 3.88.79 8.66-.15 14.33l-.65 3.96h-44.2c-1.14 7.44-.26 12.66 2.61 15.64 2.88 2.98 7.24 4.46 13.09 4.46 3.75 0 7.06-.78 9.93-2.37 2.86-1.58 5.14-3.96 6.86-7.13l8.54 2.54c-2.18 4.59-5.65 8.3-10.37 11.12-4.72 2.83-10.18 4.24-16.38 4.24m-12.98-36.57h34.67c.89-5.14.13-9.41-2.31-12.79-2.44-3.4-6.21-5.1-11.3-5.1-3.41 0-6.59.89-9.56 2.67-2.97 1.79-5.48 4.05-7.53 6.79s-3.37 5.55-3.97 8.43m71.554 36.57c-5.1 0-9.37-1.29-12.83-3.86-3.45-2.57-5.88-6.21-7.3-10.93-1.4-4.7-1.58-10.28-.53-16.71 1.08-6.39 3.11-11.93 6.08-16.63 2.97-4.69 6.61-8.32 10.94-10.87 4.32-2.57 9.04-3.85 14.17-3.85 3.96 0 6.98.65 9.08 1.95 2.1 1.31 3.63 2.79 4.58 4.44.94 1.65 1.67 3 2.17 4.05h.79l4.99-29.92h9.34l-13.47 81.06h-9.01l1.58-9.34h-1.11c-.87 1.11-2.08 2.51-3.64 4.18s-3.61 3.16-6.16 4.47c-2.54 1.3-5.77 1.96-9.67 1.96m2.29-8.4c5.63 0 10.35-2.15 14.18-6.46 3.82-4.32 6.3-9.91 7.43-16.8q1.71-10.215-1.86-16.5c-2.37-4.2-6.43-6.3-12.15-6.3-3.93 0-7.35 1.01-10.25 3.03q-4.35 3.03-7.08 8.19c-1.82 3.44-3.09 7.3-3.8 11.58-.72 4.32-.73 8.25-.04 11.76.68 3.53 2.14 6.33 4.37 8.4s5.3 3.1 9.2 3.1m60.709 31.19c-4.53 0-8.33-.57-11.39-1.72-3.06-1.14-5.53-2.65-7.38-4.51-1.84-1.86-3.24-3.84-4.18-5.95l8.39-5.22c.63 1.1 1.45 2.37 2.45 3.81q1.5 2.16 4.56 3.75c2.05 1.07 4.94 1.61 8.66 1.61 4.88 0 9.16-1.19 12.83-3.56q5.49-3.57 6.81-11.16l1.89-12.34h-.8c-.84 1.1-2.01 2.46-3.51 4.09-1.5 1.62-3.53 3.06-6.07 4.31-2.53 1.25-5.77 1.88-9.73 1.88-4.93 0-9.15-1.16-12.66-3.49-3.51-2.32-6.02-5.69-7.54-10.12-1.51-4.44-1.75-9.82-.69-16.16 1.03-6.22 3.02-11.64 5.95-16.28 2.95-4.63 6.58-8.22 10.91-10.77 4.32-2.53 9.05-3.81 14.17-3.81 3.96 0 7 .65 9.13 1.95 2.12 1.31 3.67 2.79 4.64 4.44s1.72 3 2.22 4.05h.95l1.58-9.66h9.03l-10.3 62.53c-.87 5.23-2.75 9.49-5.66 12.77-2.9 3.29-6.46 5.71-10.68 7.25s-8.75 2.31-13.58 2.31m4.91-33.4c5.59 0 10.25-1.91 13.96-5.72 3.73-3.82 6.15-9.08 7.25-15.82 1.09-6.56.43-11.92-1.98-16.07-2.4-4.16-6.43-6.24-12.11-6.24-3.98 0-7.42 1.01-10.31 3.02-2.89 2-5.23 4.69-7.02 8.06-1.79 3.38-3.03 7.12-3.72 11.23-1.06 6.34-.48 11.51 1.75 15.52s6.29 6.02 12.18 6.02m63.474 10.61c-5.83 0-10.65-1.3-14.45-3.9-3.79-2.6-6.45-6.24-7.95-10.92s-1.74-10.14-.71-16.37 3.07-11.72 6.13-16.49c3.06-4.75 6.87-8.47 11.44-11.15s9.58-4.02 15.04-4.02c3.17 0 6.21.53 9.14 1.58s5.46 2.76 7.6 5.12c2.14 2.37 3.64 5.49 4.48 9.36.85 3.88.79 8.66-.15 14.33l-.65 3.96h-44.2c-1.14 7.44-.26 12.66 2.61 15.64 2.88 2.98 7.24 4.46 13.09 4.46 3.75 0 7.06-.78 9.93-2.37 2.86-1.58 5.14-3.96 6.86-7.13l8.54 2.54c-2.18 4.59-5.65 8.3-10.37 11.12-4.72 2.83-10.18 4.24-16.38 4.24m-12.98-36.57h34.67c.89-5.14.13-9.41-2.31-12.79-2.44-3.4-6.21-5.1-11.3-5.1-3.41 0-6.59.89-9.56 2.67-2.97 1.79-5.48 4.05-7.53 6.79s-3.37 5.55-3.97 8.43m64.583 12.5.16-.95c.87-4.93 2.06-8.85 3.57-11.78 1.52-2.94 3.35-5.31 5.5-7.11 2.16-1.81 4.62-3.49 7.39-5.02 2.54-1.42 4.79-3.25 6.77-5.5 1.98-2.23 3.21-4.94 3.69-8.11.63-3.87-.16-6.95-2.36-9.23-2.2-2.29-5.17-3.44-8.89-3.44-2.16 0-4.33.46-6.5 1.36-2.18.9-4.11 2.31-5.78 4.24-1.68 1.91-2.86 4.43-3.55 7.54h-9.97c.95-4.47 2.74-8.31 5.39-11.5 2.66-3.19 5.86-5.64 9.63-7.33 3.75-1.69 7.78-2.54 12.06-2.54 4.63 0 8.52.93 11.65 2.78 3.15 1.84 5.41 4.37 6.79 7.59 1.37 3.22 1.71 6.89 1.03 11-.72 4.36-2.33 8.1-4.82 11.24-2.49 3.12-5.63 5.71-9.43 7.76-3.81 2.14-6.65 4.5-8.53 7.07q-2.835 3.855-4.14 10.98l-.16.95zm2.37 23.44c-2 0-3.68-.69-5.03-2.08-1.34-1.38-2.04-3.06-2.09-5.04-.02-1.98.67-3.64 2.09-4.97 1.43-1.34 3.1-2 5.03-2 1.96 0 3.65.68 5.07 2.06 1.42 1.37 2.11 3 2.06 4.91-.02 1.98-.73 3.66-2.11 5.04-1.39 1.39-3.06 2.08-5.02 2.08m0 0"/><g clip-path="url(#a)"><path d="M406.38 629.27c.17 2.27-1.61 4.35-4.3 5.39 1.05 2.69.72 5.41-1.05 6.82-2.39 1.89-6.48.7-9.14-2.65-.01-.02-.02-.03-.03-.05-2.88-3.66-6.57-6.62-10.84-8.49l-23.96-10.51-23.95 10.51c-4.27 1.87-7.96 4.82-10.84 8.49-.01.02-.02.03-.04.05-2.66 3.35-6.75 4.54-9.13 2.65-1.78-1.41-2.1-4.13-1.05-6.82-2.69-1.04-4.47-3.12-4.3-5.39.22-3.03 3.86-5.23 8.14-4.92h.05c4.65.37 9.32-.35 13.59-2.22l16.45-7.22-16.45-7.21c-4.27-1.87-8.94-2.59-13.59-2.22h-.05c-4.28.31-7.92-1.89-8.14-4.93-.17-2.26 1.61-4.34 4.3-5.39-1.05-2.68-.73-5.4 1.05-6.81 2.38-1.89 6.47-.7 9.13 2.65.02.02.03.03.04.05 2.88 3.66 6.57 6.61 10.84 8.49l23.95 10.51 23.96-10.51c4.27-1.87 7.96-4.82 10.84-8.49.01-.01.02-.03.03-.05 2.66-3.35 6.75-4.54 9.14-2.65 1.77 1.41 2.1 4.13 1.05 6.82 2.69 1.04 4.47 3.13 4.3 5.38-.22 3.04-3.87 5.24-8.14 4.93h-.06c-4.64-.37-9.31.35-13.58 2.22l-16.45 7.22 16.45 7.21c4.27 1.87 8.94 2.59 13.58 2.23.02-.01.04-.01.06-.01 4.27-.31 7.92 1.89 8.14 4.92m-79.33-59.81c-.01.15-.05.3-.1.43-1.99 4.54-1.54 7.04.33 9.11 2.54 2.83 9.92 3 10.93 3h.23c1.7.09 3.26.73 3.87 2.11.34.77 0 2.08-.11 3.41-.33 3.86-1.39 4.52-.56 5.85.33.53 2.22 2.32 6.43 3.28 2.07.47 5.27.99 8.79 1.24h.03v.01c.03 0 .06 0 .08-.01.03 0 .06.01.09.01v-.01h.03c3.52-.25 6.72-.77 8.79-1.24 4.21-.96 6.1-2.75 6.42-3.28.84-1.33-.23-1.99-.55-5.85-.11-1.33-.46-2.64-.12-3.41.61-1.38 2.18-2.02 3.88-2.11h.23c1.01 0 8.39-.18 10.93-3 1.87-2.07 2.31-4.57.33-9.11-.05-.13-.09-.28-.11-.43-.48-9.18 4.95-10.61 6.46-19.05 2.27-12.64-6.69-25.62-7.45-26.54-9.28-11.23-23.29-12.07-27.79-12.05-.38 0-.75.01-1.13.01s-.76-.01-1.14-.01c-4.49-.02-18.5.82-27.79 12.05-.76.92-9.72 13.9-7.45 26.54 1.51 8.45 6.93 9.87 6.45 19.05m34.96-6.71.03-.33c.26-3.57 3.38-6.24 6.95-5.98l4.01.31c4.86.36 8.55 4.41 8.55 9.21 0 .23 0 .46-.02.7-.27 3.55-3.37 6.21-6.92 5.95l-4.41-.34c-4.89-.36-8.56-4.63-8.19-9.52m-8.97 15.5c.47-1.09 1.09-2.02 1.77-2.71.01 0 .01-.01.02-.02.59-.59 1.37-.9 2.15-.92.78.02 1.55.33 2.14.92l.02.02c.68.69 1.31 1.62 1.77 2.71 1.22 2.85.88 5.73-.74 6.42-.77.32-1.69.1-2.58-.52a1.06 1.06 0 0 0-.53-.21v-.01h-.17v.01c-.18.02-.37.09-.53.21-.89.62-1.81.84-2.57.52-1.63-.7-1.96-3.57-.75-6.42m-12.09-21.5 4.01-.3a6.487 6.487 0 0 1 6.96 5.98l.03.33c.36 4.88-3.31 9.15-8.19 9.52l-4.42.33c-3.55.27-6.64-2.4-6.91-5.95-.02-.23-.03-.47-.03-.7 0-4.8 3.69-8.85 8.55-9.21m0 0" fill="#8b5cf6"/></g></g></svg>