<svg xmlns="http://www.w3.org/2000/svg" xmlns:xlink="http://www.w3.org/1999/xlink" width="2779" zoomAndPan="magnify" viewBox="0 0 2084.25 2250.000011" height="3000" preserveAspectRatio="xMidYMid meet" version="1.0"><defs><clipPath id="4ae64e7cad"><path d="M 1105 1747.875 L 1459 1747.875 L 1459 2216 L 1105 2216 Z M 1105 1747.875 " clip-rule="nonzero"/></clipPath></defs><path fill="#8b5cf6" d="M 408.71875 19.726562 L 93.074219 19.726562 C 47.042969 19.726562 7.589844 59.183594 7.589844 105.214844 L 7.589844 2153.617188 C 7.589844 2199.648438 47.042969 2239.101562 93.074219 2239.101562 L 408.71875 2239.101562 C 454.75 2239.101562 494.207031 2199.648438 494.207031 2153.617188 L 494.207031 108.503906 C 494.207031 59.183594 454.75 19.726562 408.71875 19.726562 Z M 435.023438 364.964844 L 66.773438 364.964844 L 66.773438 309.070312 L 435.023438 309.070312 Z M 435.023438 364.964844 " fill-opacity="1" fill-rule="nonzero"/><path fill="#8b5cf6" d="M 947.945312 19.726562 L 632.300781 19.726562 C 586.269531 19.726562 546.8125 59.183594 546.8125 105.214844 L 546.8125 2153.617188 C 546.8125 2199.648438 586.269531 2239.101562 632.300781 2239.101562 L 947.945312 2239.101562 C 993.976562 2239.101562 1033.433594 2199.648438 1033.433594 2153.617188 L 1033.433594 108.503906 C 1033.433594 59.183594 993.976562 19.726562 947.945312 19.726562 Z M 974.25 364.964844 L 605.996094 364.964844 L 605.996094 309.070312 L 974.25 309.070312 Z M 974.25 364.964844 " fill-opacity="1" fill-rule="nonzero"/><path fill="#8b5cf6" d="M 2065.851562 2051.6875 L 1539.777344 72.335938 C 1526.628906 26.304688 1480.59375 0 1434.5625 9.863281 L 1128.785156 92.0625 C 1082.753906 105.214844 1056.449219 151.246094 1066.3125 197.277344 L 1592.386719 2176.632812 C 1605.539062 2222.664062 1651.570312 2248.964844 1697.601562 2239.101562 L 2003.382812 2156.902344 C 2049.414062 2143.75 2075.714844 2097.71875 2065.851562 2051.6875 Z M 1191.253906 430.722656 L 1178.101562 378.117188 L 1533.203125 282.765625 L 1546.355469 335.371094 Z M 1191.253906 430.722656 " fill-opacity="1" fill-rule="nonzero"/><g clip-path="url(#4ae64e7cad)"><path fill="#8b5cf6" d="M 1458.410156 2168.558594 C 1459.003906 2176.65625 1452.621094 2184.117188 1442.996094 2187.855469 C 1446.765625 2197.464844 1445.597656 2207.21875 1439.238281 2212.261719 C 1430.703125 2219.03125 1416.054688 2214.777344 1406.523438 2202.765625 C 1406.480469 2202.710938 1406.4375 2202.660156 1406.394531 2202.601562 C 1396.085938 2189.472656 1382.878906 2178.902344 1367.585938 2172.191406 L 1281.789062 2134.554688 L 1195.992188 2172.191406 C 1180.699219 2178.894531 1167.5 2189.46875 1157.183594 2202.601562 C 1157.140625 2202.660156 1157.101562 2202.710938 1157.058594 2202.765625 C 1147.53125 2214.777344 1132.882812 2219.03125 1124.347656 2212.261719 C 1117.988281 2207.21875 1116.824219 2197.464844 1120.589844 2187.855469 C 1110.964844 2184.117188 1104.585938 2176.65625 1105.175781 2168.558594 C 1105.976562 2157.691406 1119.027344 2149.796875 1134.324219 2150.914062 C 1134.394531 2150.921875 1134.460938 2150.921875 1134.53125 2150.929688 C 1151.179688 2152.234375 1167.898438 2149.679688 1183.1875 2142.972656 L 1242.09375 2117.132812 L 1183.1875 2091.289062 C 1167.898438 2084.585938 1151.179688 2082.027344 1134.53125 2083.332031 C 1134.460938 2083.339844 1134.394531 2083.339844 1134.324219 2083.347656 C 1119.027344 2084.472656 1105.976562 2076.570312 1105.175781 2065.703125 C 1104.585938 2057.605469 1110.964844 2050.144531 1120.589844 2046.40625 C 1116.824219 2036.796875 1117.988281 2027.042969 1124.347656 2022 C 1132.882812 2015.230469 1147.53125 2019.484375 1157.066406 2031.496094 C 1157.105469 2031.550781 1157.148438 2031.601562 1157.191406 2031.660156 C 1167.5 2044.789062 1180.707031 2055.359375 1196 2062.070312 L 1281.789062 2099.710938 L 1367.585938 2062.078125 C 1382.878906 2055.371094 1396.078125 2044.800781 1406.394531 2031.664062 C 1406.4375 2031.609375 1406.480469 2031.558594 1406.523438 2031.503906 C 1416.054688 2019.484375 1430.710938 2015.230469 1439.238281 2022.007812 C 1445.597656 2027.050781 1446.765625 2036.800781 1442.996094 2046.414062 C 1452.621094 2050.152344 1459.003906 2057.613281 1458.410156 2065.710938 C 1457.609375 2076.578125 1444.558594 2084.472656 1429.261719 2083.355469 C 1429.191406 2083.347656 1429.125 2083.347656 1429.054688 2083.339844 C 1412.40625 2082.035156 1395.6875 2084.589844 1380.398438 2091.296875 L 1321.496094 2117.136719 L 1380.398438 2142.980469 C 1395.6875 2149.683594 1412.40625 2152.242188 1429.054688 2150.933594 C 1429.125 2150.929688 1429.191406 2150.929688 1429.261719 2150.921875 C 1444.558594 2149.789062 1457.609375 2157.691406 1458.410156 2168.558594 Z M 1174.3125 1954.347656 C 1174.285156 1954.882812 1174.152344 1955.421875 1173.929688 1955.910156 C 1166.84375 1972.125 1168.441406 1981.09375 1175.125 1988.527344 C 1184.242188 1998.636719 1210.667969 1999.273438 1214.273438 1999.253906 C 1214.398438 1999.253906 1214.6875 1999.246094 1215.09375 1999.273438 C 1221.175781 1999.570312 1226.785156 2001.859375 1228.96875 2006.808594 C 1230.183594 2009.582031 1228.964844 2014.246094 1228.558594 2019.003906 C 1227.386719 2032.84375 1223.578125 2035.199219 1226.566406 2039.976562 C 1227.746094 2041.867188 1234.496094 2048.269531 1249.582031 2051.710938 C 1256.988281 2053.394531 1268.464844 2055.289062 1281.070312 2056.179688 C 1281.105469 2056.179688 1281.132812 2056.179688 1281.167969 2056.179688 L 1281.167969 2056.199219 C 1281.273438 2056.199219 1281.371094 2056.191406 1281.472656 2056.183594 C 1281.570312 2056.183594 1281.675781 2056.199219 1281.777344 2056.199219 L 1281.777344 2056.179688 C 1281.8125 2056.179688 1281.839844 2056.179688 1281.875 2056.179688 C 1294.480469 2055.289062 1305.957031 2053.402344 1313.363281 2051.710938 C 1328.449219 2048.269531 1335.195312 2041.863281 1336.375 2039.976562 C 1339.371094 2035.199219 1335.554688 2032.839844 1334.382812 2019.003906 C 1333.980469 2014.246094 1332.75 2009.578125 1333.972656 2006.808594 C 1336.15625 2001.859375 1341.761719 1999.570312 1347.851562 1999.273438 C 1348.253906 1999.253906 1348.542969 1999.253906 1348.671875 1999.253906 C 1352.273438 1999.273438 1378.703125 1998.632812 1387.816406 1988.527344 C 1394.503906 1981.101562 1396.097656 1972.125 1389.011719 1955.910156 C 1388.800781 1955.421875 1388.664062 1954.882812 1388.628906 1954.347656 C 1386.90625 1921.476562 1406.324219 1916.359375 1411.75 1886.125 C 1419.875 1840.851562 1387.789062 1794.371094 1385.054688 1791.070312 C 1351.816406 1750.882812 1301.652344 1747.859375 1285.554688 1747.945312 C 1284.199219 1747.953125 1282.84375 1747.957031 1281.484375 1747.957031 C 1280.128906 1747.957031 1278.773438 1747.953125 1277.414062 1747.945312 C 1261.320312 1747.859375 1211.15625 1750.882812 1177.894531 1791.070312 C 1175.160156 1794.371094 1143.074219 1840.851562 1151.199219 1886.125 C 1156.625 1916.367188 1176.039062 1921.476562 1174.3125 1954.347656 Z M 1299.511719 1930.335938 L 1299.605469 1929.148438 C 1300.566406 1916.359375 1311.707031 1906.769531 1324.503906 1907.730469 L 1338.878906 1908.8125 C 1356.265625 1910.121094 1369.503906 1924.632812 1369.503906 1941.796875 C 1369.503906 1942.632812 1369.472656 1943.472656 1369.410156 1944.3125 C 1368.449219 1957.03125 1357.363281 1966.566406 1344.644531 1965.609375 L 1328.828125 1964.421875 C 1311.328125 1963.109375 1298.199219 1947.847656 1299.511719 1930.335938 Z M 1267.394531 1985.828125 C 1269.054688 1981.925781 1271.289062 1978.613281 1273.726562 1976.132812 C 1273.75 1976.109375 1273.777344 1976.074219 1273.804688 1976.054688 C 1275.910156 1973.921875 1278.6875 1972.832031 1281.484375 1972.761719 C 1284.277344 1972.832031 1287.054688 1973.921875 1289.167969 1976.054688 C 1289.195312 1976.074219 1289.222656 1976.109375 1289.246094 1976.132812 C 1291.683594 1978.613281 1293.914062 1981.925781 1295.574219 1985.828125 C 1299.921875 1996.046875 1298.734375 2006.332031 1292.917969 2008.804688 C 1290.171875 2009.980469 1286.871094 2009.195312 1283.691406 2006.949219 C 1283.109375 2006.539062 1282.460938 2006.289062 1281.789062 2006.199219 L 1281.789062 2006.148438 C 1281.683594 2006.148438 1281.585938 2006.164062 1281.484375 2006.171875 C 1281.386719 2006.164062 1281.28125 2006.148438 1281.183594 2006.148438 L 1281.183594 2006.199219 C 1280.511719 2006.289062 1279.859375 2006.539062 1279.28125 2006.949219 C 1276.101562 2009.1875 1272.800781 2009.980469 1270.054688 2008.804688 C 1264.230469 2006.328125 1263.042969 1996.039062 1267.394531 1985.828125 Z M 1224.09375 1908.820312 L 1238.46875 1907.738281 C 1251.257812 1906.777344 1262.40625 1916.367188 1263.367188 1929.15625 L 1263.460938 1930.34375 C 1264.773438 1947.855469 1251.644531 1963.117188 1234.140625 1964.4375 L 1218.328125 1965.625 C 1205.609375 1966.578125 1194.523438 1957.046875 1193.5625 1944.328125 C 1193.496094 1943.480469 1193.46875 1942.644531 1193.46875 1941.8125 C 1193.460938 1924.640625 1206.699219 1910.128906 1224.09375 1908.820312 Z M 1224.09375 1908.820312 " fill-opacity="1" fill-rule="nonzero"/></g></svg>