<svg xmlns="http://www.w3.org/2000/svg" xmlns:xlink="http://www.w3.org/1999/xlink" width="3111" zoomAndPan="magnify" viewBox="0 0 2333.25 669.000002" height="892" preserveAspectRatio="xMidYMid meet" version="1.0"><defs><g/><clipPath id="da70a8807c"><path d="M 307.558594 511.804688 L 406.414062 511.804688 L 406.414062 643 L 307.558594 643 Z M 307.558594 511.804688 " clip-rule="nonzero"/></clipPath></defs><path fill="#8b5cf6" d="M 113.875 29.589844 L 26.96875 29.589844 C 14.296875 29.589844 3.433594 40.453125 3.433594 53.128906 L 3.433594 617.113281 C 3.433594 629.789062 14.296875 640.652344 26.96875 640.652344 L 113.875 640.652344 C 126.550781 640.652344 137.414062 629.789062 137.414062 617.113281 L 137.414062 54.035156 C 137.414062 40.453125 126.550781 29.589844 113.875 29.589844 Z M 121.117188 124.644531 L 19.726562 124.644531 L 19.726562 109.253906 L 121.117188 109.253906 Z M 121.117188 124.644531 " fill-opacity="1" fill-rule="nonzero"/><path fill="#8b5cf6" d="M 262.339844 29.589844 L 175.433594 29.589844 C 162.761719 29.589844 151.898438 40.453125 151.898438 53.128906 L 151.898438 617.113281 C 151.898438 629.789062 162.761719 640.652344 175.433594 640.652344 L 262.339844 640.652344 C 275.015625 640.652344 285.878906 629.789062 285.878906 617.113281 L 285.878906 54.035156 C 285.878906 40.453125 275.015625 29.589844 262.339844 29.589844 Z M 269.582031 124.644531 L 168.191406 124.644531 L 168.191406 109.253906 L 269.582031 109.253906 Z M 269.582031 124.644531 " fill-opacity="1" fill-rule="nonzero"/><path fill="#8b5cf6" d="M 570.132812 589.050781 L 425.289062 44.074219 C 421.667969 31.402344 408.996094 24.160156 396.320312 26.875 L 312.132812 49.507812 C 299.457031 53.128906 292.214844 65.800781 294.929688 78.476562 L 439.773438 623.449219 C 443.394531 636.125 456.070312 643.367188 468.742188 640.652344 L 552.933594 618.019531 C 565.609375 614.398438 572.851562 601.722656 570.132812 589.050781 Z M 329.332031 142.75 L 325.710938 128.265625 L 423.480469 102.011719 L 427.101562 116.496094 Z M 329.332031 142.75 " fill-opacity="1" fill-rule="nonzero"/><g fill="#ffffff" fill-opacity="1"><g transform="translate(687.813887, 459.586867)"><g><path d="M 22.28125 0 L 22.28125 -256.3125 L 75.59375 -256.3125 L 75.59375 -159.9375 L 77.21875 -159.9375 C 79.632812 -165.195312 83.050781 -170.492188 87.46875 -175.828125 C 91.894531 -181.171875 97.738281 -185.65625 105 -189.28125 C 112.257812 -192.914062 121.226562 -194.734375 131.90625 -194.734375 C 146.007812 -194.734375 158.941406 -191.082031 170.703125 -183.78125 C 182.460938 -176.476562 191.910156 -165.503906 199.046875 -150.859375 C 206.179688 -136.222656 209.75 -117.890625 209.75 -95.859375 C 209.75 -74.421875 206.285156 -56.335938 199.359375 -41.609375 C 192.429688 -26.878906 183.085938 -15.738281 171.328125 -8.1875 C 159.566406 -0.644531 146.382812 3.125 131.78125 3.125 C 121.4375 3.125 112.65625 1.414062 105.4375 -2 C 98.21875 -5.425781 92.332031 -9.742188 87.78125 -14.953125 C 83.238281 -20.171875 79.71875 -25.445312 77.21875 -30.78125 L 74.84375 -30.78125 L 74.84375 0 Z M 74.46875 -96.109375 C 74.46875 -79.003906 77.988281 -65.257812 85.03125 -54.875 C 92.082031 -44.488281 102.035156 -39.296875 114.890625 -39.296875 C 127.984375 -39.296875 137.992188 -44.570312 144.921875 -55.125 C 151.847656 -65.675781 155.3125 -79.335938 155.3125 -96.109375 C 155.3125 -112.796875 151.867188 -126.332031 144.984375 -136.71875 C 138.097656 -147.113281 128.066406 -152.3125 114.890625 -152.3125 C 101.953125 -152.3125 91.976562 -147.238281 84.96875 -137.09375 C 77.96875 -126.957031 74.46875 -113.296875 74.46875 -96.109375 Z M 74.46875 -96.109375 "/></g></g></g><g fill="#ffffff" fill-opacity="1"><g transform="translate(896.883394, 459.586867)"><g><path d="M 108.125 3.75 C 88.6875 3.75 71.894531 -0.398438 57.75 -8.703125 C 43.613281 -17.003906 32.707031 -28.597656 25.03125 -43.484375 C 17.351562 -58.378906 13.515625 -75.671875 13.515625 -95.359375 C 13.515625 -115.222656 17.351562 -132.597656 25.03125 -147.484375 C 32.707031 -162.378906 43.613281 -173.976562 57.75 -182.28125 C 71.894531 -190.582031 88.6875 -194.734375 108.125 -194.734375 C 127.570312 -194.734375 144.363281 -190.582031 158.5 -182.28125 C 172.644531 -173.976562 183.554688 -162.378906 191.234375 -147.484375 C 198.910156 -132.597656 202.75 -115.222656 202.75 -95.359375 C 202.75 -75.671875 198.910156 -58.378906 191.234375 -43.484375 C 183.554688 -28.597656 172.644531 -17.003906 158.5 -8.703125 C 144.363281 -0.398438 127.570312 3.75 108.125 3.75 Z M 108.375 -37.546875 C 121.5625 -37.546875 131.550781 -43.050781 138.34375 -54.0625 C 145.144531 -65.070312 148.546875 -78.960938 148.546875 -95.734375 C 148.546875 -112.503906 145.144531 -126.414062 138.34375 -137.46875 C 131.550781 -148.53125 121.5625 -154.0625 108.375 -154.0625 C 94.945312 -154.0625 84.8125 -148.53125 77.96875 -137.46875 C 71.125 -126.414062 67.703125 -112.503906 67.703125 -95.734375 C 67.703125 -78.960938 71.125 -65.070312 77.96875 -54.0625 C 84.8125 -43.050781 94.945312 -37.546875 108.375 -37.546875 Z M 108.375 -37.546875 "/></g></g></g><g fill="#ffffff" fill-opacity="1"><g transform="translate(1098.319493, 459.586867)"><g><path d="M 108.125 3.75 C 88.6875 3.75 71.894531 -0.398438 57.75 -8.703125 C 43.613281 -17.003906 32.707031 -28.597656 25.03125 -43.484375 C 17.351562 -58.378906 13.515625 -75.671875 13.515625 -95.359375 C 13.515625 -115.222656 17.351562 -132.597656 25.03125 -147.484375 C 32.707031 -162.378906 43.613281 -173.976562 57.75 -182.28125 C 71.894531 -190.582031 88.6875 -194.734375 108.125 -194.734375 C 127.570312 -194.734375 144.363281 -190.582031 158.5 -182.28125 C 172.644531 -173.976562 183.554688 -162.378906 191.234375 -147.484375 C 198.910156 -132.597656 202.75 -115.222656 202.75 -95.359375 C 202.75 -75.671875 198.910156 -58.378906 191.234375 -43.484375 C 183.554688 -28.597656 172.644531 -17.003906 158.5 -8.703125 C 144.363281 -0.398438 127.570312 3.75 108.125 3.75 Z M 108.375 -37.546875 C 121.5625 -37.546875 131.550781 -43.050781 138.34375 -54.0625 C 145.144531 -65.070312 148.546875 -78.960938 148.546875 -95.734375 C 148.546875 -112.503906 145.144531 -126.414062 138.34375 -137.46875 C 131.550781 -148.53125 121.5625 -154.0625 108.375 -154.0625 C 94.945312 -154.0625 84.8125 -148.53125 77.96875 -137.46875 C 71.125 -126.414062 67.703125 -112.503906 67.703125 -95.734375 C 67.703125 -78.960938 71.125 -65.070312 77.96875 -54.0625 C 84.8125 -43.050781 94.945312 -37.546875 108.375 -37.546875 Z M 108.375 -37.546875 "/></g></g></g><g fill="#ffffff" fill-opacity="1"><g transform="translate(1299.755566, 459.586867)"><g><path d="M 21.28125 0 L 21.28125 -256.3125 L 74.59375 -256.3125 L 74.59375 -119.265625 L 77.46875 -119.265625 L 139.046875 -192.234375 L 200.234375 -192.234375 L 128.90625 -109 L 203.875 0 L 141.421875 0 L 88.984375 -77.46875 L 74.59375 -61.078125 L 74.59375 0 Z M 21.28125 0 "/></g></g></g><g fill="#ffffff" fill-opacity="1"><g transform="translate(1489.929211, 459.586867)"><g><path d="M 21.28125 0 L 21.28125 -192.234375 L 72.96875 -192.234375 L 72.96875 -158.6875 L 74.96875 -158.6875 C 78.46875 -170.625 84.328125 -179.65625 92.546875 -185.78125 C 100.765625 -191.914062 110.296875 -194.984375 121.140625 -194.984375 C 126.316406 -194.984375 131.113281 -194.359375 135.53125 -193.109375 C 139.957031 -191.859375 143.921875 -190.144531 147.421875 -187.96875 L 131.40625 -143.921875 C 128.90625 -145.171875 126.171875 -146.234375 123.203125 -147.109375 C 120.242188 -147.984375 116.929688 -148.421875 113.265625 -148.421875 C 102.492188 -148.421875 93.375 -144.75 85.90625 -137.40625 C 78.445312 -130.070312 74.675781 -120.519531 74.59375 -108.75 L 74.59375 0 Z M 21.28125 0 "/></g></g></g><g fill="#ffffff" fill-opacity="1"><g transform="translate(1626.168431, 459.586867)"><g><path d="M 76.09375 3.625 C 57.738281 3.625 42.507812 -1.171875 30.40625 -10.765625 C 18.3125 -20.359375 12.265625 -34.664062 12.265625 -53.6875 C 12.265625 -68.039062 15.640625 -79.304688 22.390625 -87.484375 C 29.148438 -95.660156 38.015625 -101.644531 48.984375 -105.4375 C 59.960938 -109.238281 71.789062 -111.722656 84.46875 -112.890625 C 101.15625 -114.554688 113.085938 -116.304688 120.265625 -118.140625 C 127.441406 -119.972656 131.03125 -123.976562 131.03125 -130.15625 L 131.03125 -130.90625 C 131.03125 -138.832031 128.546875 -144.960938 123.578125 -149.296875 C 118.617188 -153.640625 111.59375 -155.8125 102.5 -155.8125 C 92.90625 -155.8125 85.269531 -153.722656 79.59375 -149.546875 C 73.914062 -145.378906 70.160156 -140.082031 68.328125 -133.65625 L 19.015625 -137.671875 C 22.691406 -155.191406 31.804688 -169.082031 46.359375 -179.34375 C 60.921875 -189.601562 79.71875 -194.734375 102.75 -194.734375 C 117.019531 -194.734375 130.367188 -192.476562 142.796875 -187.96875 C 155.222656 -183.46875 165.253906 -176.441406 172.890625 -166.890625 C 180.523438 -157.335938 184.34375 -144.925781 184.34375 -129.65625 L 184.34375 0 L 133.78125 0 L 133.78125 -26.65625 L 132.28125 -26.65625 C 127.613281 -17.726562 120.625 -10.445312 111.3125 -4.8125 C 102.007812 0.8125 90.269531 3.625 76.09375 3.625 Z M 91.359375 -33.171875 C 103.035156 -33.171875 112.628906 -36.566406 120.140625 -43.359375 C 127.648438 -50.160156 131.40625 -58.609375 131.40625 -68.703125 L 131.40625 -89.109375 C 129.320312 -87.691406 126.085938 -86.4375 121.703125 -85.34375 C 117.328125 -84.257812 112.65625 -83.320312 107.6875 -82.53125 C 102.726562 -81.738281 98.285156 -81.050781 94.359375 -80.46875 C 85.015625 -79.132812 77.484375 -76.503906 71.765625 -72.578125 C 66.054688 -68.660156 63.203125 -62.945312 63.203125 -55.4375 C 63.203125 -48.09375 65.847656 -42.546875 71.140625 -38.796875 C 76.441406 -35.046875 83.179688 -33.171875 91.359375 -33.171875 Z M 91.359375 -33.171875 "/></g></g></g><g fill="#ffffff" fill-opacity="1"><g transform="translate(1815.841577, 459.586867)"><g><path d="M 108.125 3.75 C 88.4375 3.75 71.519531 -0.441406 57.375 -8.828125 C 43.238281 -17.210938 32.394531 -28.867188 24.84375 -43.796875 C 17.289062 -58.734375 13.515625 -75.921875 13.515625 -95.359375 C 13.515625 -115.054688 17.332031 -132.347656 24.96875 -147.234375 C 32.601562 -162.128906 43.46875 -173.769531 57.5625 -182.15625 C 71.664062 -190.539062 88.4375 -194.734375 107.875 -194.734375 C 124.644531 -194.734375 139.347656 -191.6875 151.984375 -185.59375 C 164.628906 -179.507812 174.601562 -170.957031 181.90625 -159.9375 C 189.207031 -148.925781 193.234375 -135.992188 193.984375 -121.140625 L 143.671875 -121.140625 C 142.253906 -130.734375 138.519531 -138.472656 132.46875 -144.359375 C 126.414062 -150.242188 118.507812 -153.1875 108.75 -153.1875 C 96.40625 -153.1875 86.476562 -148.21875 78.96875 -138.28125 C 71.457031 -128.351562 67.703125 -114.296875 67.703125 -96.109375 C 67.703125 -77.753906 71.4375 -63.550781 78.90625 -53.5 C 86.375 -43.445312 96.320312 -38.421875 108.75 -38.421875 C 117.925781 -38.421875 125.644531 -41.191406 131.90625 -46.734375 C 138.164062 -52.285156 142.085938 -60.191406 143.671875 -70.453125 L 193.984375 -70.453125 C 193.148438 -55.773438 189.164062 -42.84375 182.03125 -31.65625 C 174.894531 -20.476562 165.066406 -11.78125 152.546875 -5.5625 C 140.035156 0.644531 125.226562 3.75 108.125 3.75 Z M 108.125 3.75 "/></g></g></g><g fill="#ffffff" fill-opacity="1"><g transform="translate(2008.01742, 459.586867)"><g><path d="M 52.3125 74.84375 C 44.71875 74.84375 38.226562 74.191406 32.84375 72.890625 C 27.46875 71.597656 23.28125 70.285156 20.28125 68.953125 L 32.28125 27.65625 C 41.71875 30.488281 49.664062 31.238281 56.125 29.90625 C 62.59375 28.570312 67.703125 23.523438 71.453125 14.765625 L 74.96875 5.5 L 6 -192.234375 L 62.078125 -192.234375 L 101.875 -51.0625 L 103.875 -51.0625 L 144.046875 -192.234375 L 200.484375 -192.234375 L 125.40625 22.03125 C 119.976562 37.375 111.316406 50.007812 99.421875 59.9375 C 87.535156 69.875 71.832031 74.84375 52.3125 74.84375 Z M 52.3125 74.84375 "/></g></g></g><g fill="#ffffff" fill-opacity="1"><g transform="translate(705.306398, 573.289471)"><g><path d="M 17.25 0 L 8.859375 -60.796875 L 18.6875 -60.796875 L 24.0625 -14.25 L 24.703125 -14.25 L 45.4375 -60.796875 L 55.40625 -60.796875 L 60.46875 -14.40625 L 61.109375 -14.40625 L 82 -60.796875 L 91.828125 -60.796875 L 63.171875 0 L 53.984375 0 L 48.4375 -46.703125 L 47.5 -46.703125 L 26.4375 0 Z M 17.25 0 "/></g></g></g><g fill="#ffffff" fill-opacity="1"><g transform="translate(791.739227, 573.289471)"><g><path d="M 18.84375 -36.578125 L 12.828125 0 L 3.484375 0 L 16.9375 -81.0625 L 26.28125 -81.0625 L 21.375 -51.296875 L 22.15625 -51.296875 C 24.0625 -54.460938 26.601562 -56.96875 29.78125 -58.8125 C 32.957031 -60.65625 36.960938 -61.578125 41.796875 -61.578125 C 47.972656 -61.578125 52.65625 -59.710938 55.84375 -55.984375 C 59.039062 -52.253906 60.003906 -46.46875 58.734375 -38.625 L 52.25 0 L 42.90625 0 L 49.234375 -38 C 50.023438 -42.820312 49.382812 -46.554688 47.3125 -49.203125 C 45.238281 -51.859375 42.023438 -53.1875 37.671875 -53.1875 C 33.085938 -53.1875 29.039062 -51.742188 25.53125 -48.859375 C 22.019531 -45.972656 19.789062 -41.878906 18.84375 -36.578125 Z M 18.84375 -36.578125 "/></g></g></g><g fill="#ffffff" fill-opacity="1"><g transform="translate(853.47472, 573.289471)"><g><path d="M 5.375 23.59375 C 3.800781 23.59375 2.398438 23.46875 1.171875 23.21875 C -0.0546875 22.96875 -0.867188 22.722656 -1.265625 22.484375 L 2.375 14.25 C 4.539062 14.832031 6.476562 15.035156 8.1875 14.859375 C 9.90625 14.691406 11.539062 13.921875 13.09375 12.546875 C 14.65625 11.171875 16.253906 8.992188 17.890625 6.015625 L 21.21875 0 L 8.859375 -60.796875 L 18.6875 -60.796875 L 27.390625 -12.34375 L 28.015625 -12.34375 L 52.875 -60.796875 L 63.328125 -60.796875 L 25.484375 9.8125 C 20.503906 19 13.800781 23.59375 5.375 23.59375 Z M 5.375 23.59375 "/></g></g></g><g fill="#ffffff" fill-opacity="1"><g transform="translate(911.410636, 573.289471)"><g/></g></g><g fill="#ffffff" fill-opacity="1"><g transform="translate(938.63318, 573.289471)"><g><path d="M -0.3125 22.796875 L 13.609375 -60.796875 L 22.640625 -60.796875 L 21.0625 -51.140625 L 22.15625 -51.140625 C 23.007812 -52.191406 24.1875 -53.539062 25.6875 -55.1875 C 27.1875 -56.84375 29.203125 -58.320312 31.734375 -59.625 C 34.273438 -60.925781 37.523438 -61.578125 41.484375 -61.578125 C 46.597656 -61.578125 50.890625 -60.296875 54.359375 -57.734375 C 57.828125 -55.179688 60.265625 -51.554688 61.671875 -46.859375 C 63.085938 -42.160156 63.269531 -36.617188 62.21875 -30.234375 C 61.164062 -23.796875 59.15625 -18.222656 56.1875 -13.515625 C 53.21875 -8.804688 49.570312 -5.164062 45.25 -2.59375 C 40.9375 -0.0195312 36.25 1.265625 31.1875 1.265625 C 27.28125 1.265625 24.265625 0.613281 22.140625 -0.6875 C 20.015625 -2 18.457031 -3.488281 17.46875 -5.15625 C 16.476562 -6.832031 15.722656 -8.226562 15.203125 -9.34375 L 14.40625 -9.34375 L 9.03125 22.796875 Z M 17.734375 -30.390625 C 16.617188 -23.503906 17.203125 -17.90625 19.484375 -13.59375 C 21.773438 -9.28125 25.726562 -7.125 31.34375 -7.125 C 35.25 -7.125 38.675781 -8.160156 41.625 -10.234375 C 44.582031 -12.304688 47.007812 -15.101562 48.90625 -18.625 C 50.8125 -22.144531 52.132812 -26.066406 52.875 -30.390625 C 53.5625 -34.671875 53.539062 -38.53125 52.8125 -41.96875 C 52.09375 -45.414062 50.585938 -48.144531 48.296875 -50.15625 C 46.015625 -52.175781 42.894531 -53.1875 38.9375 -53.1875 C 33.238281 -53.1875 28.554688 -51.085938 24.890625 -46.890625 C 21.222656 -42.703125 18.835938 -37.203125 17.734375 -30.390625 Z M 17.734375 -30.390625 "/></g></g></g><g fill="#ffffff" fill-opacity="1"><g transform="translate(1002.426775, 573.289471)"><g><path d="M 21.21875 1.421875 C 17.363281 1.421875 13.984375 0.691406 11.078125 -0.765625 C 8.179688 -2.234375 6.03125 -4.359375 4.625 -7.140625 C 3.226562 -9.921875 2.847656 -13.289062 3.484375 -17.25 C 4.085938 -20.738281 5.257812 -23.570312 7 -25.75 C 8.75 -27.925781 10.867188 -29.640625 13.359375 -30.890625 C 15.847656 -32.140625 18.535156 -33.070312 21.421875 -33.6875 C 24.316406 -34.3125 27.203125 -34.796875 30.078125 -35.140625 C 33.828125 -35.617188 36.875 -35.988281 39.21875 -36.25 C 41.570312 -36.519531 43.34375 -36.957031 44.53125 -37.5625 C 45.71875 -38.164062 46.441406 -39.207031 46.703125 -40.6875 L 46.703125 -41 C 47.335938 -44.882812 46.820312 -47.914062 45.15625 -50.09375 C 43.5 -52.269531 40.53125 -53.359375 36.25 -53.359375 C 31.820312 -53.359375 28.113281 -52.378906 25.125 -50.421875 C 22.144531 -48.472656 19.941406 -46.390625 18.515625 -44.171875 L 10.296875 -47.328125 C 12.453125 -51.023438 15.035156 -53.910156 18.046875 -55.984375 C 21.054688 -58.054688 24.207031 -59.503906 27.5 -60.328125 C 30.800781 -61.160156 33.984375 -61.578125 37.046875 -61.578125 C 38.992188 -61.578125 41.191406 -61.347656 43.640625 -60.890625 C 46.097656 -60.429688 48.398438 -59.488281 50.546875 -58.0625 C 52.703125 -56.632812 54.328125 -54.484375 55.421875 -51.609375 C 56.523438 -48.734375 56.679688 -44.878906 55.890625 -40.046875 L 49.234375 0 L 39.890625 0 L 41.3125 -8.234375 L 40.84375 -8.234375 C 40 -6.910156 38.710938 -5.492188 36.984375 -3.984375 C 35.253906 -2.484375 33.078125 -1.207031 30.453125 -0.15625 C 27.828125 0.894531 24.75 1.421875 21.21875 1.421875 Z M 23.90625 -6.96875 C 27.601562 -6.96875 30.84375 -7.691406 33.625 -9.140625 C 36.40625 -10.585938 38.644531 -12.457031 40.34375 -14.75 C 42.050781 -17.050781 43.113281 -19.46875 43.53125 -22 L 44.96875 -30.546875 C 44.488281 -30.078125 43.546875 -29.648438 42.140625 -29.265625 C 40.742188 -28.878906 39.171875 -28.546875 37.421875 -28.265625 C 35.671875 -27.992188 33.96875 -27.757812 32.3125 -27.5625 C 30.664062 -27.363281 29.34375 -27.203125 28.34375 -27.078125 C 25.863281 -26.753906 23.503906 -26.242188 21.265625 -25.546875 C 19.035156 -24.847656 17.160156 -23.804688 15.640625 -22.421875 C 14.128906 -21.035156 13.191406 -19.15625 12.828125 -16.78125 C 12.273438 -13.53125 13.050781 -11.082031 15.15625 -9.4375 C 17.269531 -7.789062 20.1875 -6.96875 23.90625 -6.96875 Z M 23.90625 -6.96875 "/></g></g></g><g fill="#ffffff" fill-opacity="1"><g transform="translate(1061.154251, 573.289471)"><g><path d="M 5.375 23.59375 C 3.800781 23.59375 2.398438 23.46875 1.171875 23.21875 C -0.0546875 22.96875 -0.867188 22.722656 -1.265625 22.484375 L 2.375 14.25 C 4.539062 14.832031 6.476562 15.035156 8.1875 14.859375 C 9.90625 14.691406 11.539062 13.921875 13.09375 12.546875 C 14.65625 11.171875 16.253906 8.992188 17.890625 6.015625 L 21.21875 0 L 8.859375 -60.796875 L 18.6875 -60.796875 L 27.390625 -12.34375 L 28.015625 -12.34375 L 52.875 -60.796875 L 63.328125 -60.796875 L 25.484375 9.8125 C 20.503906 19 13.800781 23.59375 5.375 23.59375 Z M 5.375 23.59375 "/></g></g></g><g fill="#ffffff" fill-opacity="1"><g transform="translate(1119.090154, 573.289471)"><g/></g></g><g fill="#ffffff" fill-opacity="1"><g transform="translate(1146.312722, 573.289471)"><g><path d="M 40.6875 -60.796875 L 39.421875 -52.875 L 25.6875 -52.875 L 16.9375 0 L 7.59375 0 L 16.421875 -52.875 L 6.65625 -52.875 L 7.921875 -60.796875 L 17.765625 -60.796875 L 19.15625 -69.1875 C 19.6875 -72.664062 20.957031 -75.566406 22.96875 -77.890625 C 24.988281 -80.210938 27.40625 -81.953125 30.21875 -83.109375 C 33.03125 -84.273438 35.882812 -84.859375 38.78125 -84.859375 C 41.082031 -84.859375 42.925781 -84.671875 44.3125 -84.296875 C 45.695312 -83.929688 46.703125 -83.585938 47.328125 -83.265625 L 43.375 -75.203125 C 42.90625 -75.359375 42.28125 -75.554688 41.5 -75.796875 C 40.71875 -76.035156 39.65625 -76.15625 38.3125 -76.15625 C 35.226562 -76.15625 32.878906 -75.375 31.265625 -73.8125 C 29.660156 -72.257812 28.578125 -69.976562 28.015625 -66.96875 L 27 -60.796875 Z M 40.6875 -60.796875 "/></g></g></g><g fill="#ffffff" fill-opacity="1"><g transform="translate(1182.401004, 573.289471)"><g><path d="M 28.65625 1.265625 C 23.0625 1.265625 18.382812 -0.0664062 14.625 -2.734375 C 10.863281 -5.398438 8.203125 -9.132812 6.640625 -13.9375 C 5.085938 -18.738281 4.828125 -24.332031 5.859375 -30.71875 C 6.859375 -36.9375 8.863281 -42.363281 11.875 -47 C 14.882812 -51.632812 18.617188 -55.222656 23.078125 -57.765625 C 27.535156 -60.304688 32.457031 -61.578125 37.84375 -61.578125 C 43.4375 -61.578125 48.117188 -60.238281 51.890625 -57.5625 C 55.660156 -54.882812 58.320312 -51.140625 59.875 -46.328125 C 61.4375 -41.515625 61.691406 -35.890625 60.640625 -29.453125 C 59.628906 -23.273438 57.617188 -17.882812 54.609375 -13.28125 C 51.609375 -8.675781 47.878906 -5.097656 43.421875 -2.546875 C 38.960938 -0.00390625 34.039062 1.265625 28.65625 1.265625 Z M 28.8125 -7.125 C 33.082031 -7.125 36.800781 -8.21875 39.96875 -10.40625 C 43.132812 -12.59375 45.703125 -15.476562 47.671875 -19.0625 C 49.640625 -22.65625 50.953125 -26.539062 51.609375 -30.71875 C 52.242188 -34.675781 52.21875 -38.363281 51.53125 -41.78125 C 50.84375 -45.195312 49.378906 -47.953125 47.140625 -50.046875 C 44.898438 -52.140625 41.742188 -53.1875 37.671875 -53.1875 C 33.398438 -53.1875 29.679688 -52.078125 26.515625 -49.859375 C 23.347656 -47.648438 20.785156 -44.738281 18.828125 -41.125 C 16.878906 -37.507812 15.5625 -33.617188 14.875 -29.453125 C 14.25 -25.492188 14.273438 -21.816406 14.953125 -18.421875 C 15.640625 -15.035156 17.101562 -12.304688 19.34375 -10.234375 C 21.59375 -8.160156 24.75 -7.125 28.8125 -7.125 Z M 28.8125 -7.125 "/></g></g></g><g fill="#ffffff" fill-opacity="1"><g transform="translate(1244.769765, 573.289471)"><g><path d="M 3.484375 0 L 13.609375 -60.796875 L 22.640625 -60.796875 L 21.0625 -51.609375 L 21.6875 -51.609375 C 23.269531 -54.617188 25.664062 -57.0625 28.875 -58.9375 C 32.082031 -60.8125 35.546875 -61.75 39.265625 -61.75 C 42.484375 -61.75 44.910156 -61.007812 46.546875 -59.53125 L 42.109375 -51.765625 C 41.003906 -52.398438 39.265625 -52.71875 36.890625 -52.71875 C 33.929688 -52.71875 31.191406 -52.097656 28.671875 -50.859375 C 26.148438 -49.617188 24.046875 -47.929688 22.359375 -45.796875 C 20.671875 -43.660156 19.601562 -41.21875 19.15625 -38.46875 L 12.828125 0 Z M 3.484375 0 "/></g></g></g><g fill="#ffffff" fill-opacity="1"><g transform="translate(1283.391096, 573.289471)"><g/></g></g><g fill="#ffffff" fill-opacity="1"><g transform="translate(1310.613663, 573.289471)"><g><path d="M 3.484375 0 L 16.9375 -81.0625 L 26.28125 -81.0625 L 18.40625 -33.71875 L 19.46875 -33.71875 L 50.65625 -60.796875 L 62.21875 -60.796875 L 32.171875 -34.75 L 53.984375 0 L 42.109375 0 L 24.1875 -28.859375 L 16.625 -22.796875 L 12.828125 0 Z M 3.484375 0 "/></g></g></g><g fill="#ffffff" fill-opacity="1"><g transform="translate(1367.124709, 573.289471)"><g><path d="M 18.84375 -36.578125 L 12.828125 0 L 3.484375 0 L 13.609375 -60.796875 L 22.640625 -60.796875 L 21.0625 -51.296875 L 21.84375 -51.296875 C 23.75 -54.378906 26.320312 -56.863281 29.5625 -58.75 C 32.8125 -60.632812 36.726562 -61.578125 41.3125 -61.578125 C 47.414062 -61.578125 52.054688 -59.691406 55.234375 -55.921875 C 58.410156 -52.148438 59.363281 -46.382812 58.09375 -38.625 L 51.609375 0 L 42.265625 0 L 48.609375 -38 C 49.398438 -42.75 48.785156 -46.46875 46.765625 -49.15625 C 44.742188 -51.84375 41.554688 -53.1875 37.203125 -53.1875 C 32.691406 -53.1875 28.738281 -51.742188 25.34375 -48.859375 C 21.957031 -45.972656 19.789062 -41.878906 18.84375 -36.578125 Z M 18.84375 -36.578125 "/></g></g></g><g fill="#ffffff" fill-opacity="1"><g transform="translate(1428.226947, 573.289471)"><g><path d="M 28.65625 1.265625 C 23.0625 1.265625 18.382812 -0.0664062 14.625 -2.734375 C 10.863281 -5.398438 8.203125 -9.132812 6.640625 -13.9375 C 5.085938 -18.738281 4.828125 -24.332031 5.859375 -30.71875 C 6.859375 -36.9375 8.863281 -42.363281 11.875 -47 C 14.882812 -51.632812 18.617188 -55.222656 23.078125 -57.765625 C 27.535156 -60.304688 32.457031 -61.578125 37.84375 -61.578125 C 43.4375 -61.578125 48.117188 -60.238281 51.890625 -57.5625 C 55.660156 -54.882812 58.320312 -51.140625 59.875 -46.328125 C 61.4375 -41.515625 61.691406 -35.890625 60.640625 -29.453125 C 59.628906 -23.273438 57.617188 -17.882812 54.609375 -13.28125 C 51.609375 -8.675781 47.878906 -5.097656 43.421875 -2.546875 C 38.960938 -0.00390625 34.039062 1.265625 28.65625 1.265625 Z M 28.8125 -7.125 C 33.082031 -7.125 36.800781 -8.21875 39.96875 -10.40625 C 43.132812 -12.59375 45.703125 -15.476562 47.671875 -19.0625 C 49.640625 -22.65625 50.953125 -26.539062 51.609375 -30.71875 C 52.242188 -34.675781 52.21875 -38.363281 51.53125 -41.78125 C 50.84375 -45.195312 49.378906 -47.953125 47.140625 -50.046875 C 44.898438 -52.140625 41.742188 -53.1875 37.671875 -53.1875 C 33.398438 -53.1875 29.679688 -52.078125 26.515625 -49.859375 C 23.347656 -47.648438 20.785156 -44.738281 18.828125 -41.125 C 16.878906 -37.507812 15.5625 -33.617188 14.875 -29.453125 C 14.25 -25.492188 14.273438 -21.816406 14.953125 -18.421875 C 15.640625 -15.035156 17.101562 -12.304688 19.34375 -10.234375 C 21.59375 -8.160156 24.75 -7.125 28.8125 -7.125 Z M 28.8125 -7.125 "/></g></g></g><g fill="#ffffff" fill-opacity="1"><g transform="translate(1490.595708, 573.289471)"><g><path d="M 17.25 0 L 8.859375 -60.796875 L 18.6875 -60.796875 L 24.0625 -14.25 L 24.703125 -14.25 L 45.4375 -60.796875 L 55.40625 -60.796875 L 60.46875 -14.40625 L 61.109375 -14.40625 L 82 -60.796875 L 91.828125 -60.796875 L 63.171875 0 L 53.984375 0 L 48.4375 -46.703125 L 47.5 -46.703125 L 26.4375 0 Z M 17.25 0 "/></g></g></g><g fill="#ffffff" fill-opacity="1"><g transform="translate(1577.02852, 573.289471)"><g><path d="M 26.28125 -81.0625 L 12.828125 0 L 3.484375 0 L 16.9375 -81.0625 Z M 26.28125 -81.0625 "/></g></g></g><g fill="#ffffff" fill-opacity="1"><g transform="translate(1599.343277, 573.289471)"><g><path d="M 28.8125 1.265625 C 22.976562 1.265625 18.160156 -0.03125 14.359375 -2.625 C 10.566406 -5.226562 7.914062 -8.867188 6.40625 -13.546875 C 4.90625 -18.234375 4.671875 -23.691406 5.703125 -29.921875 C 6.734375 -36.148438 8.773438 -41.644531 11.828125 -46.40625 C 14.890625 -51.164062 18.703125 -54.882812 23.265625 -57.5625 C 27.835938 -60.238281 32.851562 -61.578125 38.3125 -61.578125 C 41.476562 -61.578125 44.523438 -61.050781 47.453125 -60 C 50.378906 -58.945312 52.910156 -57.238281 55.046875 -54.875 C 57.191406 -52.507812 58.6875 -49.390625 59.53125 -45.515625 C 60.375 -41.640625 60.320312 -36.863281 59.375 -31.1875 L 58.734375 -27.234375 L 14.53125 -27.234375 C 13.394531 -19.785156 14.265625 -14.570312 17.140625 -11.59375 C 20.015625 -8.613281 24.378906 -7.125 30.234375 -7.125 C 33.984375 -7.125 37.289062 -7.914062 40.15625 -9.5 C 43.019531 -11.082031 45.304688 -13.457031 47.015625 -16.625 L 55.5625 -14.09375 C 53.375 -9.5 49.914062 -5.789062 45.1875 -2.96875 C 40.46875 -0.144531 35.007812 1.265625 28.8125 1.265625 Z M 15.828125 -35.296875 L 50.5 -35.296875 C 51.394531 -40.441406 50.625 -44.707031 48.1875 -48.09375 C 45.75 -51.488281 41.984375 -53.1875 36.890625 -53.1875 C 33.484375 -53.1875 30.296875 -52.296875 27.328125 -50.515625 C 24.359375 -48.734375 21.847656 -46.472656 19.796875 -43.734375 C 17.753906 -40.992188 16.429688 -38.179688 15.828125 -35.296875 Z M 15.828125 -35.296875 "/></g></g></g><g fill="#ffffff" fill-opacity="1"><g transform="translate(1660.287181, 573.289471)"><g><path d="M 26.4375 1.265625 C 21.34375 1.265625 17.066406 -0.0195312 13.609375 -2.59375 C 10.160156 -5.164062 7.726562 -8.804688 6.3125 -13.515625 C 4.90625 -18.222656 4.726562 -23.796875 5.78125 -30.234375 C 6.863281 -36.617188 8.890625 -42.160156 11.859375 -46.859375 C 14.828125 -51.554688 18.472656 -55.179688 22.796875 -57.734375 C 27.117188 -60.296875 31.84375 -61.578125 36.96875 -61.578125 C 40.925781 -61.578125 43.953125 -60.925781 46.046875 -59.625 C 48.148438 -58.320312 49.675781 -56.84375 50.625 -55.1875 C 51.570312 -53.539062 52.296875 -52.191406 52.796875 -51.140625 L 53.59375 -51.140625 L 58.578125 -81.0625 L 67.921875 -81.0625 L 54.453125 0 L 45.4375 0 L 47.015625 -9.34375 L 45.90625 -9.34375 C 45.039062 -8.226562 43.828125 -6.832031 42.265625 -5.15625 C 40.710938 -3.488281 38.660156 -2 36.109375 -0.6875 C 33.566406 0.613281 30.34375 1.265625 26.4375 1.265625 Z M 28.734375 -7.125 C 34.359375 -7.125 39.082031 -9.28125 42.90625 -13.59375 C 46.726562 -17.90625 49.207031 -23.503906 50.34375 -30.390625 C 51.476562 -37.203125 50.859375 -42.703125 48.484375 -46.890625 C 46.109375 -51.085938 42.054688 -53.1875 36.328125 -53.1875 C 32.398438 -53.1875 28.984375 -52.175781 26.078125 -50.15625 C 23.179688 -48.144531 20.820312 -45.414062 19 -41.96875 C 17.175781 -38.53125 15.910156 -34.671875 15.203125 -30.390625 C 14.484375 -26.066406 14.46875 -22.144531 15.15625 -18.625 C 15.84375 -15.101562 17.300781 -12.304688 19.53125 -10.234375 C 21.757812 -8.160156 24.828125 -7.125 28.734375 -7.125 Z M 28.734375 -7.125 "/></g></g></g><g fill="#ffffff" fill-opacity="1"><g transform="translate(1725.505611, 573.289471)"><g><path d="M 24.21875 24.0625 C 19.6875 24.0625 15.890625 23.488281 12.828125 22.34375 C 9.765625 21.195312 7.304688 19.691406 5.453125 17.828125 C 3.609375 15.972656 2.210938 13.988281 1.265625 11.875 L 9.65625 6.65625 C 10.289062 7.757812 11.109375 9.03125 12.109375 10.46875 C 13.109375 11.90625 14.628906 13.15625 16.671875 14.21875 C 18.722656 15.289062 21.609375 15.828125 25.328125 15.828125 C 30.210938 15.828125 34.488281 14.640625 38.15625 12.265625 C 41.820312 9.890625 44.09375 6.171875 44.96875 1.109375 L 46.859375 -11.234375 L 46.0625 -11.234375 C 45.21875 -10.128906 44.046875 -8.765625 42.546875 -7.140625 C 41.046875 -5.515625 39.023438 -4.078125 36.484375 -2.828125 C 33.953125 -1.578125 30.707031 -0.953125 26.75 -0.953125 C 21.820312 -0.953125 17.601562 -2.113281 14.09375 -4.4375 C 10.582031 -6.757812 8.066406 -10.132812 6.546875 -14.5625 C 5.035156 -19 4.804688 -24.382812 5.859375 -30.71875 C 6.890625 -36.9375 8.875 -42.363281 11.8125 -47 C 14.757812 -51.632812 18.394531 -55.222656 22.71875 -57.765625 C 27.039062 -60.304688 31.765625 -61.578125 36.890625 -61.578125 C 40.847656 -61.578125 43.890625 -60.925781 46.015625 -59.625 C 48.140625 -58.320312 49.6875 -56.84375 50.65625 -55.1875 C 51.632812 -53.539062 52.375 -52.191406 52.875 -51.140625 L 53.828125 -51.140625 L 55.40625 -60.796875 L 64.4375 -60.796875 L 54.140625 1.734375 C 53.273438 6.960938 51.390625 11.21875 48.484375 14.5 C 45.578125 17.789062 42.015625 20.207031 37.796875 21.75 C 33.578125 23.289062 29.050781 24.0625 24.21875 24.0625 Z M 29.125 -9.34375 C 34.71875 -9.34375 39.375 -11.25 43.09375 -15.0625 C 46.820312 -18.875 49.238281 -24.144531 50.34375 -30.875 C 51.425781 -37.4375 50.765625 -42.796875 48.359375 -46.953125 C 45.960938 -51.109375 41.925781 -53.1875 36.25 -53.1875 C 32.269531 -53.1875 28.832031 -52.179688 25.9375 -50.171875 C 23.050781 -48.171875 20.710938 -45.484375 18.921875 -42.109375 C 17.128906 -38.734375 15.890625 -34.988281 15.203125 -30.875 C 14.140625 -24.539062 14.722656 -19.367188 16.953125 -15.359375 C 19.179688 -11.347656 23.238281 -9.34375 29.125 -9.34375 Z M 29.125 -9.34375 "/></g></g></g><g fill="#ffffff" fill-opacity="1"><g transform="translate(1789.299229, 573.289471)"><g><path d="M 28.8125 1.265625 C 22.976562 1.265625 18.160156 -0.03125 14.359375 -2.625 C 10.566406 -5.226562 7.914062 -8.867188 6.40625 -13.546875 C 4.90625 -18.234375 4.671875 -23.691406 5.703125 -29.921875 C 6.734375 -36.148438 8.773438 -41.644531 11.828125 -46.40625 C 14.890625 -51.164062 18.703125 -54.882812 23.265625 -57.5625 C 27.835938 -60.238281 32.851562 -61.578125 38.3125 -61.578125 C 41.476562 -61.578125 44.523438 -61.050781 47.453125 -60 C 50.378906 -58.945312 52.910156 -57.238281 55.046875 -54.875 C 57.191406 -52.507812 58.6875 -49.390625 59.53125 -45.515625 C 60.375 -41.640625 60.320312 -36.863281 59.375 -31.1875 L 58.734375 -27.234375 L 14.53125 -27.234375 C 13.394531 -19.785156 14.265625 -14.570312 17.140625 -11.59375 C 20.015625 -8.613281 24.378906 -7.125 30.234375 -7.125 C 33.984375 -7.125 37.289062 -7.914062 40.15625 -9.5 C 43.019531 -11.082031 45.304688 -13.457031 47.015625 -16.625 L 55.5625 -14.09375 C 53.375 -9.5 49.914062 -5.789062 45.1875 -2.96875 C 40.46875 -0.144531 35.007812 1.265625 28.8125 1.265625 Z M 15.828125 -35.296875 L 50.5 -35.296875 C 51.394531 -40.441406 50.625 -44.707031 48.1875 -48.09375 C 45.75 -51.488281 41.984375 -53.1875 36.890625 -53.1875 C 33.484375 -53.1875 30.296875 -52.296875 27.328125 -50.515625 C 24.359375 -48.734375 21.847656 -46.472656 19.796875 -43.734375 C 17.753906 -40.992188 16.429688 -38.179688 15.828125 -35.296875 Z M 15.828125 -35.296875 "/></g></g></g><g fill="#ffffff" fill-opacity="1"><g transform="translate(1850.243133, 573.289471)"><g><path d="M 19.46875 -22.796875 L 19.625 -23.75 C 20.5 -28.675781 21.691406 -32.601562 23.203125 -35.53125 C 24.722656 -38.46875 26.554688 -40.835938 28.703125 -42.640625 C 30.859375 -44.453125 33.320312 -46.125 36.09375 -47.65625 C 38.625 -49.082031 40.878906 -50.914062 42.859375 -53.15625 C 44.835938 -55.394531 46.066406 -58.097656 46.546875 -61.265625 C 47.179688 -65.140625 46.394531 -68.21875 44.1875 -70.5 C 41.988281 -72.789062 39.023438 -73.9375 35.296875 -73.9375 C 33.140625 -73.9375 30.972656 -73.484375 28.796875 -72.578125 C 26.617188 -71.679688 24.691406 -70.269531 23.015625 -68.34375 C 21.335938 -66.425781 20.15625 -63.910156 19.46875 -60.796875 L 9.5 -60.796875 C 10.445312 -65.273438 12.242188 -69.109375 14.890625 -72.296875 C 17.546875 -75.492188 20.753906 -77.9375 24.515625 -79.625 C 28.273438 -81.320312 32.296875 -82.171875 36.578125 -82.171875 C 41.210938 -82.171875 45.097656 -81.242188 48.234375 -79.390625 C 51.378906 -77.546875 53.640625 -75.015625 55.015625 -71.796875 C 56.390625 -68.578125 56.734375 -64.910156 56.046875 -60.796875 C 55.328125 -56.441406 53.722656 -52.695312 51.234375 -49.5625 C 48.742188 -46.4375 45.597656 -43.847656 41.796875 -41.796875 C 37.992188 -39.660156 35.148438 -37.304688 33.265625 -34.734375 C 31.378906 -32.160156 30 -28.5 29.125 -23.75 L 28.96875 -22.796875 Z M 21.84375 0.640625 C 19.84375 0.640625 18.164062 -0.0507812 16.8125 -1.4375 C 15.46875 -2.820312 14.769531 -4.503906 14.71875 -6.484375 C 14.695312 -8.460938 15.394531 -10.117188 16.8125 -11.453125 C 18.238281 -12.785156 19.914062 -13.453125 21.84375 -13.453125 C 23.800781 -13.453125 25.488281 -12.765625 26.90625 -11.390625 C 28.332031 -10.023438 29.019531 -8.390625 28.96875 -6.484375 C 28.945312 -4.503906 28.242188 -2.820312 26.859375 -1.4375 C 25.472656 -0.0507812 23.800781 0.640625 21.84375 0.640625 Z M 21.84375 0.640625 "/></g></g></g><g clip-path="url(#da70a8807c)"><path fill="#8b5cf6" d="M 406.382812 629.273438 C 406.546875 631.535156 404.765625 633.621094 402.078125 634.664062 C 403.128906 637.347656 402.804688 640.070312 401.027344 641.480469 C 398.644531 643.371094 394.554688 642.179688 391.890625 638.828125 C 391.878906 638.8125 391.867188 638.796875 391.855469 638.78125 C 388.976562 635.117188 385.289062 632.164062 381.019531 630.289062 L 357.0625 619.78125 L 333.105469 630.289062 C 328.835938 632.160156 325.148438 635.113281 322.269531 638.78125 C 322.257812 638.796875 322.246094 638.8125 322.234375 638.828125 C 319.574219 642.179688 315.480469 643.371094 313.097656 641.480469 C 311.324219 640.070312 310.996094 637.347656 312.050781 634.664062 C 309.363281 633.621094 307.578125 631.535156 307.746094 629.273438 C 307.96875 626.242188 311.613281 624.035156 315.886719 624.347656 C 315.90625 624.351562 315.921875 624.351562 315.941406 624.351562 C 320.589844 624.71875 325.257812 624.003906 329.527344 622.128906 L 345.976562 614.914062 L 329.527344 607.699219 C 325.257812 605.828125 320.589844 605.113281 315.941406 605.476562 C 315.921875 605.480469 315.90625 605.480469 315.886719 605.480469 C 311.613281 605.792969 307.96875 603.589844 307.746094 600.554688 C 307.578125 598.292969 309.363281 596.210938 312.050781 595.164062 C 310.996094 592.480469 311.324219 589.757812 313.097656 588.351562 C 315.480469 586.460938 319.574219 587.648438 322.234375 591.003906 C 322.246094 591.019531 322.257812 591.03125 322.269531 591.046875 C 325.148438 594.714844 328.835938 597.664062 333.105469 599.539062 L 357.0625 610.050781 L 381.019531 599.542969 C 385.289062 597.667969 388.976562 594.71875 391.855469 591.050781 C 391.867188 591.035156 391.878906 591.019531 391.890625 591.003906 C 394.554688 587.648438 398.644531 586.460938 401.027344 588.351562 C 402.804688 589.761719 403.128906 592.484375 402.078125 595.167969 C 404.765625 596.210938 406.546875 598.296875 406.382812 600.554688 C 406.15625 603.589844 402.511719 605.792969 398.242188 605.484375 C 398.222656 605.480469 398.203125 605.480469 398.183594 605.480469 C 393.535156 605.113281 388.867188 605.828125 384.597656 607.699219 L 368.148438 614.917969 L 384.597656 622.132812 C 388.867188 624.003906 393.535156 624.71875 398.183594 624.355469 C 398.203125 624.351562 398.222656 624.351562 398.242188 624.351562 C 402.511719 624.035156 406.15625 626.242188 406.382812 629.273438 Z M 327.050781 569.460938 C 327.042969 569.609375 327.003906 569.757812 326.945312 569.894531 C 324.964844 574.425781 325.410156 576.929688 327.277344 579.003906 C 329.824219 581.828125 337.203125 582.003906 338.207031 582 C 338.246094 582 338.324219 581.996094 338.4375 582.003906 C 340.136719 582.085938 341.703125 582.726562 342.3125 584.109375 C 342.652344 584.882812 342.3125 586.1875 342.199219 587.515625 C 341.871094 591.378906 340.808594 592.035156 341.640625 593.371094 C 341.972656 593.898438 343.855469 595.6875 348.070312 596.648438 C 350.136719 597.117188 353.339844 597.644531 356.859375 597.894531 C 356.871094 597.894531 356.878906 597.894531 356.890625 597.894531 L 356.890625 597.898438 C 356.917969 597.898438 356.945312 597.898438 356.972656 597.894531 C 357 597.894531 357.03125 597.898438 357.058594 597.898438 L 357.058594 597.894531 C 357.066406 597.894531 357.074219 597.894531 357.085938 597.894531 C 360.605469 597.644531 363.808594 597.117188 365.878906 596.648438 C 370.089844 595.6875 371.976562 593.898438 372.304688 593.371094 C 373.140625 592.035156 372.074219 591.378906 371.75 587.515625 C 371.636719 586.1875 371.292969 584.882812 371.632812 584.109375 C 372.242188 582.726562 373.808594 582.085938 375.507812 582.003906 C 375.621094 582 375.703125 582 375.738281 582 C 376.746094 582.003906 384.125 581.824219 386.667969 579.003906 C 388.535156 576.929688 388.980469 574.425781 387.003906 569.894531 C 386.945312 569.757812 386.90625 569.609375 386.894531 569.460938 C 386.414062 560.28125 391.835938 558.851562 393.351562 550.410156 C 395.621094 537.765625 386.660156 524.789062 385.898438 523.867188 C 376.617188 512.644531 362.609375 511.800781 358.113281 511.824219 C 357.734375 511.824219 357.355469 511.828125 356.976562 511.828125 C 356.597656 511.828125 356.21875 511.824219 355.839844 511.824219 C 351.347656 511.800781 337.339844 512.644531 328.050781 523.867188 C 327.289062 524.789062 318.328125 537.765625 320.597656 550.410156 C 322.113281 558.855469 327.53125 560.28125 327.050781 569.460938 Z M 362.011719 562.753906 L 362.035156 562.421875 C 362.304688 558.851562 365.417969 556.175781 368.988281 556.441406 L 373.003906 556.746094 C 377.859375 557.109375 381.554688 561.164062 381.554688 565.957031 C 381.554688 566.1875 381.546875 566.421875 381.527344 566.65625 C 381.261719 570.210938 378.164062 572.871094 374.613281 572.605469 L 370.199219 572.273438 C 365.308594 571.90625 361.644531 567.644531 362.011719 562.753906 Z M 353.042969 578.25 C 353.507812 577.160156 354.128906 576.234375 354.8125 575.542969 C 354.816406 575.535156 354.824219 575.527344 354.832031 575.519531 C 355.421875 574.925781 356.195312 574.621094 356.976562 574.601562 C 357.757812 574.621094 358.53125 574.925781 359.121094 575.519531 C 359.128906 575.527344 359.136719 575.535156 359.144531 575.542969 C 359.824219 576.234375 360.449219 577.160156 360.910156 578.25 C 362.125 581.101562 361.792969 583.976562 360.171875 584.667969 C 359.402344 584.992188 358.480469 584.773438 357.59375 584.148438 C 357.429688 584.03125 357.25 583.964844 357.0625 583.9375 L 357.0625 583.925781 C 357.03125 583.925781 357.003906 583.929688 356.976562 583.929688 C 356.949219 583.929688 356.921875 583.925781 356.894531 583.925781 L 356.894531 583.9375 C 356.707031 583.964844 356.523438 584.03125 356.363281 584.148438 C 355.472656 584.773438 354.550781 584.992188 353.785156 584.667969 C 352.160156 583.972656 351.828125 581.101562 353.042969 578.25 Z M 340.953125 556.746094 L 344.964844 556.445312 C 348.535156 556.175781 351.648438 558.855469 351.917969 562.425781 L 351.945312 562.757812 C 352.3125 567.644531 348.644531 571.910156 343.757812 572.277344 L 339.339844 572.609375 C 335.789062 572.875 332.695312 570.214844 332.425781 566.660156 C 332.40625 566.425781 332.398438 566.191406 332.398438 565.960938 C 332.398438 561.164062 336.09375 557.113281 340.953125 556.746094 Z M 340.953125 556.746094 " fill-opacity="1" fill-rule="nonzero"/></g></svg>